<?xml version="1.0" encoding="utf-8"?>
<!-- Generator: Adobe Illustrator 21.1.0, SVG Export Plug-In . SVG Version: 6.00 Build 0)  -->
<svg version="1.1" id="Layer_1" xmlns="http://www.w3.org/2000/svg" xmlns:xlink="http://www.w3.org/1999/xlink" x="0px" y="0px"
	 viewBox="0 0 50 50" style="enable-background:new 0 0 50 50;" xml:space="preserve">
<style type="text/css">
	.st0{fill:#9E9784;}
	.st1{fill:#061030;}
	.st2{fill:#EE312F;}
	.st3{fill:#FFFFFF;}
</style>
<title>Adelaide</title>
<path class="st0" d="M41.1,14.8l-1.3-1.4l-4.1-0.9l-1.1,0.7l-0.4-0.4v-2.1l-1-1.3h-0.1c-2.6-0.4-5.3-0.7-8-0.8
	c-2.7,0.1-5.4,0.3-8,0.8h-0.1l-1,1.3v2.1l-0.4,0.4l-1.1-0.7l-4,0.9l-1.4,1.4v7.4c0,0,0,0.1,0,0.1c-0.1,0.5,0.2,1.1,0.7,1.3
	c0.6,0.4,2.5,1.5,2.5,1.5l0.2,0.1l0.2-0.1c2.2-0.9,4.6-1.5,7-1.8c-0.2,0.5-0.3,1.1-0.4,1.7l-0.4-0.7c0,0-1.4,4.6,0.1,7
	c0.5,0.7,1.1,1.4,1.7,2l2,2.2c1.1,1.3,1.8,2.8,2.2,4.4c0.1,0.4,0.4,1.5,0.4,1.5s0.3-1.1,0.4-1.5c0.3-1.6,1.1-3.2,2.2-4.4l1.7-1.8
	c0.7-0.7,1.4-1.5,2-2.3c1.4-2.1,0.1-7,0.1-7L30.9,25c-0.1-0.6-0.2-1.2-0.4-1.7c2.5,0.3,4.9,0.9,7.2,1.9l0.2,0.1l2.5-1.6
	c0.5-0.3,0.8-0.8,0.7-1.4L41.1,14.8z"/>
<path class="st1" d="M40.7,14.9l-1.1-1.2l-3.8-0.9l-1.2,0.8L33.8,13v-2.2l-0.8-1c-2.6-0.5-5.3-0.7-8-0.8c-2.7,0.1-5.4,0.3-8,0.8
	l-0.9,1V13l-0.7,0.7l-1.3-0.8l-3.8,0.9l-1.1,1.1v7.3c-0.1,0.4,0.1,0.9,0.5,1.1l2.5,1.5c2.7-1.1,5.5-1.7,8.4-2
	c-0.2,0.3-0.3,0.7-0.4,1c-0.1-0.2-0.2-0.5-0.2-0.5c-0.5,0.9-0.7,2-0.6,3c-0.3-0.2-0.5-0.5-0.6-0.8c-0.5,2.4-0.4,4.5,0.2,5.6
	c0.4,0.6,1,1.2,3.6,4.1c1.2,1.3,1.9,3,2.3,4.7c0.3-1.8,1.1-3.4,2.3-4.8c2.6-2.8,3.2-3.5,3.6-4.1c0.6-1.1,0.7-3.2,0.2-5.6
	c-0.2,0.3-0.4,0.6-0.6,0.8c0.1-1-0.1-2.1-0.6-3c0,0-0.1,0.3-0.2,0.5c-0.1-0.3-0.3-0.7-0.4-1c2.9,0.3,5.8,1,8.6,2.1l2.3-1.5
	c0.4-0.2,0.6-0.6,0.5-1.1l0,0L40.7,14.9z"/>
<path class="st0" d="M26.2,31.9c-0.2-0.1-0.4-0.2-0.5-0.4c0.2,0.3,0.4,0.6,0.5,1c-0.6,1.7-1.1,3.5-1.2,5.3v-7.5
	c-0.2,0.3-0.7,1.3-1.2,1.5c-0.5,0.1-1,0.2-1.5,0.2c0.6,0.8,1.1,1.7,1.5,2.6c0.7,1.4,1.1,2.9,1.2,4.5c0.2-1.5,0.6-3.1,1.2-4.5
	c0.4-0.9,0.9-1.8,1.5-2.6C27.2,32.1,26.7,32,26.2,31.9z"/>
<path class="st2" d="M29,29c-0.3,0.1-0.5,0.3-0.7,0.5c0,0.1,0.1,0.2,0.1,0.2h0c-0.1,0.1-0.3,0.2-0.2,0.3s0.2,0,0.3,0
	c0,0.2,0,0.3-0.1,0.4c-0.2,0.2-0.5,0.2-0.7,0c0,0,0,0,0,0c-0.1,0.1-0.2,0.3-0.2,0.4c0.4,0.2,0.8,0.1,1.1-0.1
	c0.5-0.4,0.3-1.3,0.3-1.3C28.7,29.3,28.9,29.2,29,29z"/>
<path class="st2" d="M21.8,30.5c-0.1-0.1-0.2-0.3-0.1-0.4c0.1,0,0.3,0,0.3,0s-0.1-0.2-0.2-0.3h0c0-0.1,0-0.2,0.1-0.2
	c-0.2-0.2-0.5-0.4-0.7-0.5c0.1,0.1,0.3,0.3,0.4,0.5c0,0-0.2,0.9,0.3,1.3c0.3,0.2,0.7,0.3,1.1,0.1c0-0.2-0.1-0.3-0.2-0.4
	C22.3,30.7,22,30.7,21.8,30.5C21.8,30.5,21.8,30.5,21.8,30.5z"/>
<path class="st3" d="M20.7,29.3c-0.2,0.5-0.1,1,0.2,1.4c0.3,0.3,0.7,0.5,1.1,0.4c-0.6,0-1.1-0.6-1-1.2c0-0.1,0-0.1,0-0.2
	C21,29.7,20.7,29.4,20.7,29.3z"/>
<path class="st3" d="M28,31.1c0.4,0,0.8-0.1,1.1-0.4c0.3-0.4,0.4-0.9,0.2-1.4c-0.1,0.1-0.4,0.4-0.4,0.4c0.2,0.6-0.2,1.2-0.8,1.4
	C28.1,31.1,28.1,31.1,28,31.1z"/>
<path class="st3" d="M28.7,28.6c0.5-1.2,0.7-2.5,0.7-3.8c-0.2-0.9-0.6-1.8-1.1-2.6c0.4,1.9,0.4,3.8-0.1,5.6
	c-0.2,0.2-0.3,0.3-0.5,0.5c0-0.4,0.1-0.7,0.1-0.7c-1.2,1.3-1.1,3.8-1.1,3.8C27,30.2,27.7,29.2,28.7,28.6z"/>
<path class="st3" d="M30.7,26.7c-0.3,0.3-0.5,0.5-0.8,0.8c0.1-0.5,0.1-1,0.1-1.4c-0.1,0.8-0.4,1.7-0.8,2.4c0.5-0.2,1-0.5,1-0.5
	c0.5,2.8-1,3.7-1.7,4.7c-0.4,0.6-0.8,1.2-1.2,1.9c0,0,0.9-1.1,1.3-1.5c0.8-0.7,1.5-1.5,2-2.4C31,29.3,31,28,30.7,26.7z"/>
<path class="st3" d="M19.8,27.9c0,0,0.5,0.3,1,0.5c-0.4-0.8-0.7-1.6-0.8-2.4c0,0.5,0,1,0.1,1.5c-0.3-0.2-0.6-0.5-0.8-0.8
	C19,28,19,29.3,19.4,30.6c0.5,0.9,1.2,1.7,2,2.4c0.3,0.3,1.3,1.5,1.3,1.5c-0.3-0.7-0.7-1.3-1.2-1.9C20.8,31.6,19.4,30.7,19.8,27.9z"
	/>
<path class="st3" d="M22.3,28.3c-0.1-0.2-0.3-0.4-0.5-0.5c-0.4-1.9-0.5-3.8-0.1-5.6c-0.5,0.8-0.9,1.7-1.1,2.6c0,1.3,0.2,2.6,0.7,3.8
	c1,0.7,1.7,1.7,2,2.8c0,0,0.1-2.5-1.1-3.8C22.2,27.8,22.3,28.1,22.3,28.3z"/>
<path class="st3" d="M17.7,10.2l-0.7,2l0.5-0.1l0.1-0.4l0.6-0.1l0.1,0.4l0.5-0.1l-0.7-1.8L17.7,10.2z M17.7,11.4l0.2-0.7l0.2,0.6
	L17.7,11.4z"/>
<path class="st3" d="M19.5,10c0,0.8,0,1.1,0,1.9l1.2-0.1l0.2-0.2V10l-0.2-0.1L19.5,10z M20.5,11.4L20.5,11.4H20v-1.2h0.4h0V11.4z"/>
<path class="st3" d="M21.7,11.7l1.4-0.1c0-0.1,0-0.2,0-0.3h-0.9c0-0.2,0-0.3,0-0.5h0.7v-0.3h-0.7V10h0.9V9.7l-1.4,0.1V11.7z"/>
<path class="st3" d="M24.3,11.3V9.7h-0.5v1.9h1.4c0-0.1,0-0.2,0-0.3L24.3,11.3z"/>
<path class="st3" d="M26.4,9.7l-0.7,1.9h0.5l0.1-0.4h0.6l0.1,0.4h0.5l-0.7-1.9L26.4,9.7z M26.4,10.9l0.2-0.6l0.2,0.6L26.4,10.9z"/>
<path class="st3" d="M28.1,11.7h0.5V9.8h-0.5V11.7z"/>
<path class="st3" d="M30.6,10l-1.2-0.1v1.9l1.2,0.1l0.2-0.1c0-0.6,0-1,0-1.6L30.6,10z M30.4,11.5L30.4,11.5h-0.5v-1.3h0.4h0V11.5z"
	/>
<path class="st3" d="M33,10.7v-0.3l-1.4-0.2c0,0.8,0,1.1,0,1.9l1.4,0.2V12l-0.9-0.1v-0.5l0.7,0.1v-0.3L32.1,11v-0.5L33,10.7z"/>
<path class="st2" d="M21.4,21.4c-3,0.2-6,0.7-8.9,1.6l-1.2-0.3l1.2,0.7c2.8-1,5.8-1.6,8.8-1.8L21.4,21.4z"/>
<path class="st2" d="M37.6,23c-2.9-0.9-5.9-1.4-8.9-1.6l0.2,0.3c3,0.2,5.9,0.8,8.8,1.8l1.2-0.7L37.6,23z"/>
<path class="st0" d="M10.7,14.2l-0.8,0.9v1.7c0.6-0.2,1-0.3,1.6-0.4v-0.9l0.2-0.2L13,15l0.2,0.1v1.7L13,17l-1.4,0.3v1.3l1.4-0.3
	l0.2,0.1v1.8L13,20.4l-1.3,0.3l-0.2-0.1c0-0.4,0-0.5,0-0.9c-0.6,0.2-1,0.2-1.6,0.4v1.7l0.8,0.4c1.1-0.3,2.2-0.5,3.3-0.8l0.8-0.8
	c0-0.9,0-1.8,0-2.7l-0.8-0.5l0.8-0.8c0-0.9,0-1.8,0-2.6l-0.8-0.5C12.9,13.7,11.8,13.9,10.7,14.2z"/>
<path class="st0" d="M17,13l-0.8,0.8v6.7L17,21c1.1-0.2,2.2-0.3,3.4-0.4l0.8-0.7c0-1.1,0-2.3,0-3.4L20.4,16
	c-0.8,0.1-1.7,0.2-2.5,0.3c0-0.7,0-1.1,0-1.8l0.2-0.2l1.3-0.2l0.2,0.1c0,0.3,0,0.5,0,0.8l1.6-0.1v-1.7l-0.8-0.6
	C19.2,12.7,18.1,12.8,17,13z M18,17.5l1.3-0.1l0.2,0.1c0,0.7,0,1.1,0,1.8l-0.2,0.2L18,19.6l-0.2-0.1c0-0.7,0-1.1,0-1.8L18,17.5z"/>
<path class="st0" d="M33.8,13.7L33,13c-1.4-0.2-2.9-0.3-4.3-0.4v8l1.7,0.1c0-1,0-2.1,0-3.1l1,0.1l0.8,3.2l1.6,0.2L33,17.9l0.8-0.5
	C33.8,16.1,33.8,14.9,33.8,13.7z M32,16.4l-1.6-0.2V14l1.6,0.2l0.2,0.2c0,0.8,0,1.2,0,2L32,16.4z"/>
<path class="st0" d="M40,16.7v-1.6l-0.8-0.9c-1.1-0.3-2.2-0.5-3.3-0.8L35.1,14c0,1.1,0,2.2,0,3.3l0.8,0.8c0.8,0.1,1.5,0.3,2.3,0.5
	l0.2,0.2v1.8l-0.2,0.1L37,20.4l-0.2-0.2c0-0.3,0-0.5,0-0.9c-0.7-0.1-1-0.2-1.7-0.3v1.6l0.8,0.8c1.1,0.2,2.2,0.5,3.3,0.8l0.8-0.4
	c0-1.1,0-2.3,0-3.4l-0.8-0.9c-0.8-0.2-1.6-0.4-2.3-0.5l-0.2-0.2c0-0.7,0-1,0-1.7L37,15l1.3,0.3l0.2,0.2v0.8
	C39.1,16.5,39.4,16.5,40,16.7z"/>
<path class="st0" d="M22.6,12.4v7.9c1.1,0.1,2.1,0.9,2.5,2c0.3-1.1,1.2-1.9,2.4-2v-1.2c-1,0-2.1,0-3.1,0V17c0.9,0,1.4,0,2.3,0v-1.3
	c-0.9,0-1.4,0-2.3,0v-2c1,0,2.1,0,3.1,0v-1.2C25.8,12.4,24.2,12.4,22.6,12.4z"/>
</svg>
