<?xml version="1.0" encoding="utf-8"?>
<!-- Generator: Adobe Illustrator 21.1.0, SVG Export Plug-In . SVG Version: 6.00 Build 0)  -->
<svg version="1.1" id="Layer_1" xmlns="http://www.w3.org/2000/svg" xmlns:xlink="http://www.w3.org/1999/xlink" x="0px" y="0px"
	 viewBox="0 0 50 50" style="enable-background:new 0 0 50 50;" xml:space="preserve">
<style type="text/css">
	.st0{fill:#FAA21B;}
	.st1{fill:#FFFFFF;}
	.st2{fill:#23356F;}
</style>
<title>Brisbane</title>
<path class="st0" d="M27.7,37.6c1.5,1.7,3.7,2.7,6,2.7c1.1,0,2.3-0.3,3.3-0.7c4-1.9,5.7-6.6,3.9-10.6c-0.1-0.2-0.2-0.4-0.3-0.7
	c0.4-0.1,0.7-0.2,1-0.5c0.6-0.6,0.9-1.4,0.9-2.2v-2.9c0-0.6-0.1-1.2-0.5-1.6l2.4-4.5h-7.7v-1.3l1.2-2.2H16.5l-6-3.5l1.8,2.3l-4-2.1
	l4.7,6.8H5.7l2.7,3.7V29l1.9-0.4c1-0.2,2-0.4,3-0.6c0.2,0,4.8-0.6,7-0.8l6.6,9.5c0.1,0.2,0.2,0.3,0.3,0.5L27.7,37.6z"/>
<path class="st0" d="M16.9,15.9c0,0.1,0,0.1,0,0.2c0,0.1-0.1,0.1-0.1,0.1c0.1,0,0.1,0,0.2,0.1c0,0.1,0,0.1,0,0.2v0.7
	c0,0.1,0,0.2-0.1,0.3c-0.1,0.1-0.2,0.1-0.3,0.1h-1v-2.7h1c0.1,0,0.2,0,0.2,0.1c0.1,0.1,0.1,0.2,0.1,0.2L16.9,15.9z M16.1,15.3V16
	h0.2l0,0c0,0,0,0,0-0.1v-0.6v-0.1L16.1,15.3z M16.4,16.5C16.4,16.5,16.4,16.4,16.4,16.5L16.4,16.5l-0.3-0.1V17h0.3l0,0L16.4,16.5z"
	/>
<path class="st0" d="M19.7,16.4c0,0.1,0,0.1-0.1,0.2c0,0-0.1,0.1-0.2,0.1l0.3,0.9h-0.6l-0.3-0.9h-0.1v0.9h-0.5v-2.7h1
	c0.2,0,0.3,0.1,0.4,0.3c0,0,0,0,0,0.1L19.7,16.4z M18.9,15.3v0.9h0.3c0,0,0,0,0-0.1v-0.8c0,0,0-0.1,0-0.1L18.9,15.3z"/>
<path class="st0" d="M21.1,14.8h0.5v2.7h-0.5V14.8z"/>
<path class="st0" d="M23.2,17.5L23.1,17h0.6c0,0,0.1,0,0.1-0.1v-0.5c0,0,0-0.1,0-0.1h-0.5h-0.1c0,0-0.1-0.1-0.1-0.1
	c0-0.1,0-0.1,0-0.2v-0.9c0-0.2,0.1-0.3,0.3-0.4c0,0,0,0,0.1,0h0.7l0.1,0.5h-0.6c0,0-0.1,0-0.1,0.1v0.5c0,0,0,0,0,0.1H24
	c0.1,0,0.1,0,0.2,0.1c0.1,0.1,0.1,0.1,0.1,0.2v0.9c0,0.2-0.1,0.4-0.3,0.4c-0.1,0-0.1,0-0.2,0L23.2,17.5z"/>
<path class="st0" d="M27,15.9c0,0,0,0.1,0,0.1c0,0.1-0.1,0.1-0.1,0.1c0.1,0,0.1,0,0.2,0.1c0,0.1,0,0.1,0,0.2V17c0,0.1,0,0.2-0.1,0.3
	c-0.1,0.1-0.2,0.1-0.3,0.1h-1v-2.6h1c0.1,0,0.2,0,0.2,0.1c0.1,0.1,0.1,0.2,0.1,0.2L27,15.9z M26.2,15.3V16h0.2l0,0c0,0,0,0,0-0.1
	v-0.6v-0.1L26.2,15.3z M26.5,16.5C26.5,16.5,26.5,16.4,26.5,16.5L26.5,16.5l-0.3-0.1V17h0.3l0,0L26.5,16.5z"/>
<path class="st0" d="M29,17.2v0.3h-0.5l0.5-2.7h0.6l0.5,2.7h-0.5v-0.3H29z M29.1,16.7h0.2l-0.1-0.9L29.1,16.7z"/>
<path class="st0" d="M31.2,14.8h0.5l0.2,1.1v-1.1h0.5v2.7H32l-0.3-1.1v1.1h-0.5L31.2,14.8z"/>
<path class="st0" d="M34,14.8h1l0.1,0.5h-0.6V16H35v0.5h-0.4V17h0.6L35,17.5h-1V14.8z"/>
<path class="st1" d="M13.8,22.3c0.2,0,0.4-0.2,0.5-0.3c0.1-0.2,0.1-0.3,0.1-0.5v-2.2c0-0.3-0.1-0.5-0.2-0.7
	c-0.2-0.2-0.5-0.3-0.8-0.3H8.8l1.2,1.6v7c1-0.2,2.1-0.4,3.1-0.6c0.4,0,0.7-0.2,1-0.5c0.2-0.3,0.3-0.6,0.3-1v-2
	c0-0.2-0.1-0.3-0.2-0.5C14.1,22.3,13.9,22.3,13.8,22.3z M12.7,19.9v1.8c0,0.1,0,0.1-0.1,0.2c0,0-0.1,0.1-0.1,0.1L11.7,22v-2.2h0.9
	C12.6,19.8,12.7,19.8,12.7,19.9C12.7,19.9,12.7,19.9,12.7,19.9z M12.7,24.9c0,0,0,0.1,0,0.1c0,0-0.1,0.1-0.1,0.1l-0.9,0.1v-2
	l0.8-0.1c0.1,0,0.1,0,0.2,0c0.1,0,0.1,0.1,0.1,0.2L12.7,24.9z"/>
<path class="st1" d="M18.1,18.3h-0.7l0.4,0.6v5.4c0,0,0,0.1,0,0.1c0,0-0.1,0.1-0.1,0l-0.6,0c-0.1,0-0.1,0-0.1,0c0,0,0-0.1,0-0.1v-6
	h-2.3l0.4,0.6V25c0,0.3,0.1,0.6,0.3,0.9c0.3,0.2,0.7,0.2,1,0.1l1.8-0.2c0.4,0,0.7-0.1,1-0.4c0.2-0.2,0.3-0.6,0.3-0.9v-6.1L18.1,18.3
	L18.1,18.3z"/>
<path class="st1" d="M22.9,24.1L22.9,24.1h-0.9l0,0v-5.8h-2.2l0.4,0.6v0.3v6.3l0,0c1.1-0.1,2.5-0.1,3.5-0.1L22.9,24.1z"/>
<path class="st1" d="M26.9,25.4h1v-1.3h-1.7v-5.8h-2.3l0.5,0.6v4.7L26.9,25.4z"/>
<path class="st1" d="M33.6,23.4l1.8,1.2V20v-0.3h1.2v-1.4h-4.1v1.4h1.2L33.6,23.4z"/>
<path class="st1" d="M28.4,25.4l2,0.1h0c0.4-0.2,0.9-0.4,1.4-0.5l-0.5-0.8l-1.1-0.1v-1.6l1.4,0.1l0,0v-1.3h-1.4v-1.8H32v-1.3h-4
	l0.4,0.6L28.4,25.4z"/>
<path class="st1" d="M38.8,19.9l2,0.1l0.8-1.6h-3.5c-0.3,0-0.6,0.1-0.9,0.3c-0.2,0.2-0.3,0.5-0.3,0.8v2.7c0,0.2,0,0.3,0.1,0.5
	c0,0.1,0.1,0.2,0.2,0.3c0.1,0.1,0.2,0.1,0.3,0.2l0.4,0.1l0.9,0.1c0.1,0,0.2,0,0.2,0.1c0,0,0.1,0.1,0.1,0.2v1.5l0,0
	c0,0.1-0.1,0.1-0.2,0.1l-1.8-0.2l-0.5,0.6l0.4,0.2c0.5,0.2,0.9,0.5,1.3,0.8l1,0.2h0.3c0.3,0.1,0.7,0.1,1-0.1c0.2-0.3,0.3-0.6,0.3-1
	v-2.7c0-0.3-0.1-0.5-0.2-0.7c-0.2-0.2-0.4-0.2-0.6-0.2l-1.1-0.1c-0.1,0-0.1,0-0.2-0.1c0,0-0.1-0.1-0.1-0.2V20
	C38.6,19.9,38.7,19.9,38.8,19.9z"/>
<path class="st2" d="M41.3,21.3l2.2-4h-7.4v-2l0.8-1.6H16.4l-3.7-2.1l1.7,2.1l-4.3-2.3l4.1,5.9H6.7l2.2,3v8l1.3-0.2
	c1-0.2,2-0.4,3.1-0.6c0,0,4.8-0.6,7.1-0.8h0.3l6.7,9.7c0.1,0.2,0.2,0.3,0.3,0.5l0,0c1.4,1.9,3.6,3,6,3c1.1,0,2.1-0.2,3.1-0.7
	c3.7-1.7,5.4-6.1,3.7-9.9c-0.2-0.5-0.5-1-0.8-1.4H40c0.4,0,0.9-0.1,1.2-0.4c0.5-0.5,0.7-1.1,0.7-1.8v-2.8
	C42,22.3,41.8,21.7,41.3,21.3L41.3,21.3z"/>
<path class="st0" d="M16.9,15.9c0,0.1,0,0.1,0,0.2c0,0.1-0.1,0.1-0.1,0.1c0.1,0,0.1,0,0.2,0.1c0,0.1,0,0.1,0,0.2v0.7
	c0,0.1,0,0.2-0.1,0.3c-0.1,0.1-0.2,0.1-0.3,0.1h-1v-2.7h1c0.1,0,0.2,0,0.2,0.1c0.1,0.1,0.1,0.2,0.1,0.2L16.9,15.9z M16.1,15.3V16
	h0.2l0,0c0,0,0,0,0-0.1v-0.6v-0.1L16.1,15.3z M16.4,16.5C16.4,16.5,16.4,16.4,16.4,16.5L16.4,16.5l-0.3-0.1V17h0.3l0,0L16.4,16.5z"
	/>
<path class="st0" d="M19.7,16.4c0,0.1,0,0.1-0.1,0.2c0,0-0.1,0.1-0.2,0.1l0.3,0.9h-0.6l-0.3-0.9h-0.1v0.9h-0.5v-2.7h1
	c0.2,0,0.3,0.1,0.4,0.3c0,0,0,0,0,0.1L19.7,16.4z M18.9,15.3v0.9h0.3c0,0,0,0,0-0.1v-0.8c0,0,0-0.1,0-0.1L18.9,15.3z"/>
<path class="st0" d="M21.1,14.8h0.5v2.7h-0.5V14.8z"/>
<path class="st0" d="M23.2,17.5L23.1,17h0.6c0,0,0.1,0,0.1-0.1v-0.5c0,0,0-0.1,0-0.1h-0.5h-0.1c0,0-0.1-0.1-0.1-0.1
	c0-0.1,0-0.1,0-0.2v-0.9c0-0.2,0.1-0.3,0.3-0.4c0,0,0,0,0.1,0h0.7l0.1,0.5h-0.6c0,0-0.1,0-0.1,0.1v0.5c0,0,0,0,0,0.1H24
	c0.1,0,0.1,0,0.2,0.1c0.1,0.1,0.1,0.1,0.1,0.2v0.9c0,0.2-0.1,0.4-0.3,0.4c-0.1,0-0.1,0-0.2,0L23.2,17.5z"/>
<path class="st0" d="M27,15.9c0,0,0,0.1,0,0.1c0,0.1-0.1,0.1-0.1,0.1c0.1,0,0.1,0,0.2,0.1c0,0.1,0,0.1,0,0.2V17c0,0.1,0,0.2-0.1,0.3
	c-0.1,0.1-0.2,0.1-0.3,0.1h-1v-2.6h1c0.1,0,0.2,0,0.2,0.1c0.1,0.1,0.1,0.2,0.1,0.2L27,15.9z M26.2,15.3V16h0.2l0,0c0,0,0,0,0-0.1
	v-0.6v-0.1L26.2,15.3z M26.5,16.5C26.5,16.5,26.5,16.4,26.5,16.5L26.5,16.5l-0.3-0.1V17h0.3l0,0L26.5,16.5z"/>
<path class="st0" d="M29,17.2v0.3h-0.5l0.5-2.7h0.6l0.5,2.7h-0.5v-0.3H29z M29.1,16.7h0.2l-0.1-0.9L29.1,16.7z"/>
<path class="st0" d="M31.2,14.8h0.5l0.2,1.1v-1.1h0.5v2.7H32l-0.3-1.1v1.1h-0.5L31.2,14.8z"/>
<path class="st0" d="M34,14.8h1l0.1,0.5h-0.6V16H35v0.5h-0.4V17h0.6L35,17.5h-1V14.8z"/>
<path class="st0" d="M25.7,28.9l-1.8-2.4l0,0H23L25.7,28.9z"/>
<polygon class="st0" points="14.5,15.9 14.5,15.3 14.5,14.7 12.7,13.6 "/>
<path class="st0" d="M37.2,26.8L37.2,26.8l-5.6-3.4l2,2.4c-1.8,0-3.5,0.7-4.8,2L24,24.6l4,4.4c-0.6,1-0.9,2.2-0.9,3.4l-3.4-3.5
	l4.5,7l0,0c1.9,3.1,6,4,9.1,2.1c3.1-1.9,4-6,2.1-9.1C38.7,28,38,27.3,37.2,26.8L37.2,26.8z M39,29.9c-0.2,0-0.5,0-0.7,0
	c-0.5,0-1.1,0.1-1.6,0.1c-0.6,0.1-1.3,0.3-1.9,0.5c-1.5,0.5-2.9,0.9-4.3,0.1c1.1-1.7,2.6-3.1,4.4-4c0.3,0.1,0.6,0.1,0.8,0.2
	C37.2,27.4,38.3,28.5,39,29.9L39,29.9z M33.7,26.5c-1.5,0.9-2.8,2.2-3.7,3.7c-0.2-0.2-0.3-0.4-0.3-0.7c-0.1-0.5-0.1-1,0.1-1.5
	C30.8,27,32.2,26.5,33.7,26.5L33.7,26.5z M29.6,30.8L29.5,31c-0.1,0.2-0.2,0.4-0.2,0.5c-0.4-0.4-0.7-0.9-1-1.4
	c0.1-0.4,0.3-0.8,0.6-1.1c0,0.2,0,0.4,0.1,0.6C29,30.1,29.2,30.5,29.6,30.8L29.6,30.8z M27.9,31c0.3,0.5,0.7,0.9,1.1,1.3
	c-0.1,0.3-0.1,0.5-0.2,0.8C28.7,33,28.5,33,28.4,33c-0.2,0-0.4,0-0.5,0C27.7,32.3,27.8,31.7,27.9,31z M31,36.4L31,36.4
	c0.3,0.5,0.7,1,1.1,1.6l-0.5-0.2c-0.6-0.2-1.2-0.5-1.7-1c-0.3-0.8-0.5-1.7-0.5-2.6C30.1,34.9,30.6,35.6,31,36.4z M28.3,34.8
	c-0.2-0.3-0.3-0.7-0.4-1.1h0.3c0.2,0,0.3,0.1,0.5,0.1c0,0.6,0,1.2,0.1,1.8C28.6,35.4,28.5,35.1,28.3,34.8L28.3,34.8z M36.1,37.6
	c-0.9,0.4-1.9,0.6-2.9,0.5c-0.6-0.7-1.1-1.4-1.5-2.2l0,0c-0.5-1-1.2-1.8-2.1-2.5c0-0.2,0-0.4,0.1-0.6c1,0.8,2,1.4,3.1,1.9
	c1.7,0.9,3.7,1.3,5.6,1.1C37.7,36.6,37,37.2,36.1,37.6L36.1,37.6z M39.1,34.4c-0.1,0.2-0.2,0.4-0.3,0.7c-1.5,0.5-3.8,0-5.8-0.9
	c-1.2-0.5-2.2-1.2-3.2-2c0.1-0.3,0.2-0.5,0.3-0.8l0,0c1.6,1,3.2,0.5,4.8,0c0.6-0.2,1.2-0.4,1.8-0.5c0.5-0.1,1-0.1,1.5-0.1
	c0.3,0,0.7,0,1,0.1C39.5,31.9,39.5,33.2,39.1,34.4L39.1,34.4z"/>
<path class="st1" d="M14.1,25.9c0.2-0.3,0.3-0.6,0.3-1v-2c0-0.2-0.1-0.3-0.2-0.5c0-0.1-0.1-0.1-0.1-0.1c-0.1-0.1-0.2-0.1-0.4-0.1
	c0.2,0,0.4-0.2,0.5-0.3c0.1-0.2,0.1-0.3,0.1-0.5v-2.2c0-0.3-0.1-0.5-0.2-0.7c-0.2-0.2-0.5-0.3-0.8-0.3H8.8l1.2,1.6v7l0,0
	c1-0.2,2.1-0.4,3.1-0.6C13.5,26.3,13.8,26.2,14.1,25.9z M12.7,20.2v1.5c0,0.1,0,0.1-0.1,0.2c0,0-0.1,0.1-0.1,0.1L11.7,22l0,0v-2.2
	h0.9c0.1,0,0.1,0,0.1,0.1c0,0,0,0,0,0L12.7,20.2z M11.7,23.2l0.8-0.1c0.1,0,0.1,0,0.2,0c0.1,0,0.1,0.1,0.1,0.2v1.5c0,0,0,0.1,0,0.1
	c0,0-0.1,0.1-0.1,0.1l-0.9,0.1l0,0L11.7,23.2z"/>
<path class="st1" d="M18.2,18.3h-0.8l0.4,0.6v0.3v5.1c0,0,0,0.1,0,0.1c0,0-0.1,0.1-0.1,0l-0.6,0c-0.1,0-0.1,0-0.1,0c0,0,0-0.1,0-0.1
	l0,0v-5.8v-0.3h-2.3l0.4,0.6v0.3v5.6c0,0,0,0,0,0.1c0,0.3,0.1,0.6,0.3,0.8c0.3,0.2,0.7,0.2,1,0.1l1.8-0.2c0.4,0,0.7-0.1,1-0.4
	c0.2-0.2,0.3-0.6,0.3-0.9v-5.9v-0.3L18.2,18.3z"/>
<path class="st1" d="M23.1,24.4l-0.2-0.3l0,0h-0.9l0,0v-5.5l0,0v-0.3h-2.2l0.4,0.6v0.3l0,0v6.3l0,0c1.1-0.1,2.5-0.1,3.5-0.1
	L23.1,24.4z"/>
<path class="st1" d="M26.1,18.3h-2.2l0.5,0.6v0.3l0,0v4.5l0,0l2.6,1.7h1l0,0v-1.3h-1.7L26.1,18.3z"/>
<path class="st1" d="M36.5,19.8v-1.2l0,0v-0.3h-4.1v1.4l0,0h1.2v3.6l1,0.7l0.8,0.5V20l0,0v-0.3L36.5,19.8z"/>
<path class="st1" d="M28.7,18.3H28l0.4,0.6v6.5l2,0.1l0,0l0,0c0.4-0.2,0.9-0.4,1.4-0.5l-0.5-0.8l-1.1-0.1v-1.3l0,0v-0.3l1.4,0.1l0,0
	v-1.2h-1.4V20l0,0v-0.3H32v-1.1l0,0v-0.3L28.7,18.3z"/>
<path class="st1" d="M38.6,20c0-0.1,0.1-0.2,0.2-0.2l2,0.1l0.8-1.6h-3.5c-0.3,0-0.6,0.1-0.9,0.3C37,18.8,36.9,19,37,19.3v0.2l0,0V22
	c0,0.2,0,0.3,0.1,0.5c0,0.1,0.1,0.2,0.2,0.3c0.1,0.1,0.2,0.1,0.3,0.2l0.4,0.1l0.9,0.1c0.1,0,0.2,0,0.2,0.1c0,0,0.1,0.1,0.1,0.2v1.5
	l0,0c0,0.1-0.1,0.1-0.2,0.1l-1.8-0.2l-0.5,0.6l0.4,0.2l0,0l0.2,0.1l0,0l0.2,0.1l0,0c0.3,0.2,0.6,0.4,0.8,0.6l1,0.2h0.3
	c0.3,0.1,0.7,0.1,1-0.1c0.2-0.3,0.3-0.6,0.3-1v-2.4l0,0v-0.3c0-0.3-0.1-0.5-0.2-0.7c-0.2-0.2-0.4-0.2-0.6-0.2l-1.1-0.1
	c-0.1,0-0.1,0-0.2-0.1c0,0-0.1-0.1-0.1-0.2v-1.2l0,0L38.6,20z"/>
</svg>
