<?xml version="1.0" encoding="utf-8"?>
<!-- Generator: Adobe Illustrator 21.1.0, SVG Export Plug-In . SVG Version: 6.00 Build 0)  -->
<svg version="1.1" id="Layer_1" xmlns="http://www.w3.org/2000/svg" xmlns:xlink="http://www.w3.org/1999/xlink" x="0px" y="0px"
	 viewBox="0 0 50 50" style="enable-background:new 0 0 50 50;" xml:space="preserve">
<style type="text/css">
	.st0{fill:#BC2F2D;}
	.st1{fill:#E7D2AD;}
	.st2{fill:#CEAB7B;}
	.st3{fill:#1C2651;}
	.st4{fill:#F79239;}
	.st5{fill:#FFFFFF;}
	.st6{fill:#003767;}
	.st7{fill:#C1D835;}
	.st8{fill:#6381A8;}
	.st9{fill:#123D66;}
</style>
<title>Cairns</title>
<path class="st0" d="M31.5,33.2"/>
<path class="st0" d="M18.6,33.2"/>
<path class="st1" d="M11.5,22.8c1.5,0,3.6,0,5.1,0c0,0.4,0.1,0.9,0,1.3c0.5-0.1,1-0.2,1.5-0.4c-0.3-0.4-0.6-0.8-0.8-1.3
	c0.2,0,0.1,0,0.3-0.1c-0.2-0.5-0.3-1.1-0.2-1.7c-0.1,0-0.5,0-0.4,0c0.6-1,1.3-1.9,2.3-2.5c1.1,0,2.5,0.1,3.8,0
	c0.5,0.5,1.2,0.7,1.8,0.6c1.1,0,1.8-0.5,1.8-0.7c1.2,0,2.5,0,3.5,0c1.1,0.5,1.9,1.4,2.5,2.4c0,0-0.4,0.1-0.3,0.1
	c0.2,0.4,0.2,0.8,0.1,1.2c0.5,0.6,0.8,1.3,0.9,2c0.2,0,0.4,0,0.6,0c1.4-2,4-0.9,5.6-0.7c0.1,1.6,0,3.1-0.4,4.6h-0.4
	c0.4,1.3-0.7,3.2-0.7,3.2c0.6,0.4,1.1,0.9,1.5,1.6c0.4,2.3-1.9,4.8-1.9,4.8s1.4,2,1.3,3.1c-1.4-0.8-2.9-1.5-2.9-1.5
	c-0.6,0.6-1.3,1.1-2.2,1.4c-2,0.2-4.6-1.4-4.6-1.4c0,0.8-1.5,3.2-4.5,3.2s-4.7-2.4-4.7-3.1c-1.3,0.9-2.8,1.4-4.4,1.3
	c-2.8-0.8-5.8-5.5-5.4-7.6c0.5-0.8,1.2-1.5,2-2.1c-0.6-1.4-0.8-2.3-0.8-2.3l-1.2,0.1c-0.5-1.8-0.7-3.7-0.4-5.5L11.5,22.8z"/>
<polygon class="st2" points="12.8,25.9 14.2,27.5 15.1,25.5 13.7,24 12.8,25.9 12.8,25.9 "/>
<polygon class="st2" points="14,29.5 15.8,30.6 16,28.5 14.2,27.5 14,29.5 14,29.5 "/>
<polygon class="st2" points="16.2,32.7 18.3,33.1 17.9,31 15.8,30.6 16.2,32.7 16.2,32.7 "/>
<polygon class="st2" points="19.4,34.9 21.5,34.7 20.4,32.9 18.3,33.1 19.4,34.9 19.4,34.9 "/>
<polygon class="st2" points="23,36.1 24.9,35.3 23.4,33.8 21.4,34.7 23,36.1 23,36.1 "/>
<polygon class="st2" points="26.9,36.1 28.4,34.7 26.5,33.8 24.9,35.3 26.9,36.1 26.9,36.1 "/>
<polygon class="st2" points="30.5,34.9 31.6,33.1 29.5,32.9 28.4,34.7 30.5,34.9 30.5,34.9 "/>
<polygon class="st2" points="33.6,32.7 34.1,30.6 32,31 31.5,33.1 33.6,32.7 33.6,32.7 "/>
<polygon class="st2" points="35.9,29.6 35.7,27.5 33.8,28.5 34,30.6 35.9,29.6 35.9,29.6 "/>
<polygon class="st2" points="37.1,25.9 36.2,24 34.8,25.6 35.7,27.5 37.1,25.9 37.1,25.9 "/>
<path class="st3" d="M34.6,29.3c1.5,0.2,4.6,2.9,4.7,3.5c0.1,3.9-4.8,7.1-5.4,7.2c-1.6,0-3-0.7-4.8-1.5c-1.5-0.9-2.8-1.3-3-1.8
	c0.5-0.1,3.9-1.5,3.9-1.5l4-0.4l1.6-2.6C35.5,32.1,34.8,30.2,34.6,29.3L34.6,29.3z"/>
<path class="st2" d="M35.4,30.2c0,0,1.3,0.4,1.5,0.8c-0.4,0.1-0.7,0.2-1.1,0.3L35.4,30.2z"/>
<path class="st2" d="M35.9,31.6l1.2-0.4c0.2,0.4,0.4,0.9,0.5,1.4l-0.2-0.3c-0.4,0.1-1.2,0.3-1.2,0.3S35.9,31.6,35.9,31.6z"/>
<path class="st2" d="M37.6,31.7c0.4,0.3,0.7,0.6,1,1c-0.3,0-0.5,0-0.8,0C37.8,32.3,37.6,31.7,37.6,31.7L37.6,31.7z"/>
<path class="st2" d="M37.9,33c0.3,0,0.8,0,0.8,0c-0.1,0.9-0.5,1.8-1,2.5c0.1-0.5,0.2-1,0.2-1.5C37.9,33.7,37.9,33.3,37.9,33L37.9,33
	z"/>
<path class="st1" d="M36.8,37.2c-0.6,0.9-1.5,1.6-2.5,2c0.3-0.3,0.6-0.7,0.8-1.1C35.4,38,36.1,37.7,36.8,37.2L36.8,37.2z"/>
<path class="st1" d="M34.6,38.1c-1.5,1.1-2.1,1.1-2.1,1.1c-0.7,0-1.4-0.2-2.1-0.5c0.7-0.3,1.3-0.8,1.8-1.4
	C33,37.7,33.8,37.9,34.6,38.1z"/>
<path class="st1" d="M31.9,37.1c-0.8,0.4-1.7,0.7-2.6,0.9c-0.6-0.2-1.2-0.5-1.7-0.9c0.6-0.1,1.2-0.4,1.8-0.7h1.4
	C31.2,36.6,31.5,36.9,31.9,37.1L31.9,37.1z"/>
<path class="st3" d="M10.1,23.2h6.2v1.3c0.8-0.1,1.7-0.3,2.5-0.6l0.1,0.4h2v-0.1c1.1,0.1,2.3,0.2,3.4,0.1c0.6-0.1,1.1,0.1,1.6,0.4
	v-0.1c1.2,0,2.3-0.2,3.5-0.6l0.1,0.4h4.7c0.6-0.8,1.5-1.3,2.5-1.2c0.8,0.1,1.7,0.2,2.5,0.5c0.1,1.3,0,2.5-0.3,3.8h-0.6
	c0.1,0.3,0.2,0.7,0.2,1.1c-0.1,2.4-3,5.9-5,6.1c-0.7,0.1-1.4-0.3-1.7-1c-5.4-2.9-13.8-1.6-16.5,1.7c-0.8-1.3-1.6-2.6-2.3-4l0.2-0.1
	c-0.6-1.1-1-2.3-1.3-3.5c0,0-1.3,0.1-1.3,0.1C10.2,26.2,10.1,24.7,10.1,23.2L10.1,23.2z"/>
<path class="st4" d="M10.5,23.4h5.2v1.4c0.9,0,1.8-0.2,2.6-0.5c0.2,1.3,0.5,2.6,0.9,3.8c-0.1-0.9,0-1.8,0-1.8h-0.3v-1.7h2.4v-0.1
	c0.9,0.1,1.9,0.1,2.8,0c0.7-0.1,1.5,0.2,1.9,0.9c0-0.2,0.1-0.5,0.1-0.5c0.9,0,1.8-0.2,2.7-0.5c0.3,1.3,0.4,2.5,0.5,3.8
	c0.1-0.6,0.2-1.2,0.3-1.8h-0.3l0.1-1.7h5.1c0.4-0.8,1.3-1.3,2.2-1.2c0.7,0.1,1.3,0.2,2,0.4c0,1,0,1.9-0.2,2.9l-1.1-0.1
	c0.3,0.5,0.5,1,0.6,1.6c-0.2,2.3-2.9,5.6-4.6,5.6c-1.2,0-1.5-1.5-1.5-1.5l-0.4,0.5c-2.3-1.1-4.8-1.6-7.3-1.6l0.3-1.9h0.3l0.2-0.8
	c-0.4,0.1-0.8,0.2-1.2,0.1v0.7h0.3l-0.1,1.9c-2.6,0-5.2,0.6-7.4,1.9L16.6,33c-0.5,0.4-1,0.8-1.5,1.2c-1-1.7-1.7-3-1.7-3l0.2-0.1
	c-0.7-1.4-1.2-2.8-1.5-4.3l-1.3,0.1C10.5,25.8,10.4,24.6,10.5,23.4L10.5,23.4z"/>
<path class="st3" d="M10.9,23.8h4.5c0,1.4,0.1,2.5,0.1,2.5h-1c-0.1-0.7-0.1-1.4-0.4-1.4c0,1.9,0.5,3.8,1.3,5.5
	c0.2,0.3,0.3,0.2,0.3,0.2l0.9,1.9c-0.5,0.3-0.9,0.7-1.4,1.1c-0.8-1.3-1.3-2.3-1.3-2.3s0.2,0,0.1-0.4c-1-1.8-1.6-3.9-1.7-6
	c-0.4,0.1-0.1,1.5-0.1,1.5l-1,0.1C10.9,25.6,10.8,24.6,10.9,23.8L10.9,23.8z"/>
<path class="st3" d="M16,25c0.7-0.1,1.4-0.2,2.1-0.4c0.3,1.8,0.7,3.5,1.4,5.2c0,0.1,0.1,0.2,0.2,0.2c0,0,0,0,0,0
	c0.2,0,0.1-0.1,0.1-0.1c-0.3-1.3-0.4-2.5-0.4-3.8c0-0.4-0.3-0.2-0.3-0.2v-1h2.3v1c0,0-0.3,0-0.3,0.1c0,1.2,0,2.5,0.1,3.7
	c0,0.3,0.3,0.2,0.3,0.2l0.2,1.2c-1.2,0.2-2.3,0.5-3.4,0.9l-0.6-1.5c0,0,0.2,0,0.2-0.1s-0.3-0.7-0.3-0.7l-0.5,0.1l0.1,0.6
	c0.1,0.3,0.3,0.2,0.3,0.2l0.6,1.5c-0.6,0.3-1.5,0.7-1.5,0.7c-0.3-0.5-0.6-1.1-0.9-1.7c0,0,0.2,0,0.1-0.2C15.5,28.8,15.4,26.8,16,25z
	"/>
<path class="st3" d="M21.7,24.7c0.8,0.1,1.6,0.1,2.5,0c1.4,0,1.8,0.6,1.8,1.5c0,2.2-1.5,2-1.5,2c-0.3,0-0.6,0-0.8-0.1v1.4
	c0,0.3,0.3,0.2,0.3,0.2l0,1.1c-0.9,0-1.9,0.1-1.9,0.1l-0.1-1.2c0,0,0.3,0.1,0.3-0.2c-0.1-1.3-0.1-2.5-0.1-3.8c0-0.1-0.3-0.1-0.3-0.1
	C21.7,25.4,21.7,25.1,21.7,24.7L21.7,24.7z"/>
<path class="st3" d="M26.5,25c0.7-0.1,1.4-0.2,2.1-0.4c0.5,1.6,0.6,3.4,0.3,5.1c0,0,0,0.2,0,0.3s0.1,0,0.2,0s0.1-0.1,0.1-0.1
	c0.5-1.3,0.8-2.6,0.9-4c0-0.2-0.3-0.1-0.3-0.1l0-1H32c0.3,0.9,0.5,1.8,0.5,2.7c0.1-0.5,0.2-1,0.2-1.5c0-0.2-0.3-0.2-0.3-0.2v-1h2v1
	c-0.1-0.1-0.3-0.2-0.4-0.1S33.9,25.9,34,26c-0.1,3.2-2.6,6.2-2.6,6.2l-1.3-0.5c0.5-1,0.9-2.2,0.9-3.4c-0.1,0.5-0.3,1.1-0.6,1.6
	c-0.2,0.3,0.2,0.3,0.2,0.3c-0.2,0.5-0.5,0.9-0.8,1.4c-1.1-0.3-2.1-0.6-3.2-0.7l0.4-1.1c0.1,0,0.2,0,0.2-0.1c0,0,0,0,0,0
	c0-0.2,0.1-0.5,0.1-0.5h-0.5c-0.1,0.1-0.1,0.3-0.1,0.4c-0.1,0.2,0.2,0.2,0.2,0.2s-0.1,0.6-0.3,1.2c-0.8-0.1-1.8-0.1-1.8-0.1l0.2-1.1
	c0,0,0.2,0.1,0.3-0.2S26.3,26.1,26.5,25L26.5,25z"/>
<path class="st3" d="M36.8,23.8c0.5,0,1.1,0.1,1.6,0.3c0,0.7,0,1.5-0.2,2.2l-1.1-0.1c0,0,0-0.9-0.3-0.9s-0.2,0.3-0.2,0.3
	c0,0.5,1.1,1.2,1.1,2.6c0,1.5-2.5,5.1-4.2,5.3c-0.8,0.1-1-0.8-1.3-1.5c0.8-1.1,1.4-2.4,1.9-3.7l1.1,0.2c0,0-1,2.1-0.6,2.1
	s0.8-0.5,1-1.7c0.1-0.9-1.1-2.2-1-3.3c0-1.1,0.9-2,2-2C36.7,23.7,36.7,23.7,36.8,23.8L36.8,23.8z"/>
<path class="st5" d="M16.1,25.2c0.6,0,1.3-0.2,1.9-0.4c0.3,1.7,0.7,3.4,1.4,5c0.2,0.4,0.3,0.4,0.3,0.4l0.3,1
	c-0.5,0.1-1.4,0.5-1.4,0.5c-0.2-0.4-0.3-0.8-0.5-1.1c0,0,0.2,0,0-0.5c-0.1-0.2-0.3-0.6-0.3-0.6c-0.4,0.1-0.7,0.1-0.7,0.1
	c0.2,1.3,0.5,1.1,0.5,1.1c0.2,0.4,0.3,0.8,0.5,1.2C17.7,32,17,32.4,17,32.4L16.2,31c0,0,0.2,0,0-0.5C15.7,28.8,15.6,26.9,16.1,25.2
	L16.1,25.2z"/>
<path class="st5" d="M19.5,24.9h2v0.7c0,0-0.3-0.1-0.3,0.4c-0.1,1.2,0,2.4,0.1,3.6c0,0.4,0.3,0.3,0.3,0.3s0.1,0.5,0.1,0.9
	c-0.6,0.1-1.5,0.3-1.5,0.3l-0.3-1c0,0,0.3,0,0.2-0.5c-0.3-1.2-0.4-2.5-0.3-3.7c0-0.4-0.3-0.4-0.3-0.4L19.5,24.9L19.5,24.9z"/>
<path class="st5" d="M21.9,24.9c0.8,0.1,1.6,0.1,2.4,0c1.3,0,1.5,0.7,1.5,1.3c0,2.1-1.4,1.9-1.4,1.9L23.5,28v1.5
	c0,0.4,0.3,0.3,0.3,0.3s0,0.4,0,0.8c-0.5,0-1.6,0.1-1.6,0.1L22,29.9c0,0,0.2,0.1,0.2-0.5c-0.1-2.4,0-3.5,0-3.5
	c0-0.5-0.3-0.4-0.3-0.4L21.9,24.9L21.9,24.9z"/>
<path class="st5" d="M26.6,25.1c0.6,0,1.3-0.2,1.9-0.3c0.5,1.6,0.5,3.2,0.2,4.9c-0.1,0.4,0.1,0.4,0.1,0.4s-0.3,0.8-0.5,1
	c-0.5-0.1-1.5-0.3-1.5-0.3l0.3-0.9c0,0,0.2,0.1,0.3-0.3c0-0.1,0.1-0.6,0.1-0.6h-0.8l-0.2,0.6c-0.1,0.3,0.1,0.3,0.1,0.3
	c-0.1,0.3-0.2,0.6-0.3,0.9c-0.5-0.1-1.4-0.1-1.4-0.1l0.1-0.8c0,0,0.2,0,0.3-0.2C26,27.6,26.6,25.2,26.6,25.1L26.6,25.1z"/>
<path class="st5" d="M30,24.9h1.8c0.5,1.3,0.6,2.7,0.4,4c0.4-0.4,0.6-2.9,0.6-2.9c0.1-0.6-0.3-0.4-0.3-0.4v-0.7h1.7v0.7
	c0,0-0.3-0.1-0.3,0.4c0,2.9-2.5,6-2.5,6c-0.4-0.2-1.1-0.4-1.1-0.4c1.5-3.1,0.7-4.8,0.7-4.8c0.1,1.1-0.2,2.1-0.7,3.1
	c-0.2,0.4,0,0.5,0,0.5c-0.2,0.4-0.4,0.7-0.6,1.1l-1.2-0.3l0.5-1c0,0,0.2,0.1,0.4-0.3c0.5-1.2,0.8-2.5,0.8-3.9c0-0.4-0.3-0.4-0.3-0.4
	L30,24.9L30,24.9z"/>
<path class="st5" d="M36.8,23.9c0.5,0,1,0.1,1.5,0.3c0,0.6,0,1.3-0.2,1.9h-0.9c0,0,0-0.9-0.5-0.9s-0.4,0.5-0.4,0.5
	c-0.1,0.4,1.2,1.6,1.1,2.5c-0.1,2.1-2.8,5-4,5.2c-0.8,0.1-0.9-0.7-1.1-1.3c0.7-1.1,1.3-2.3,1.8-3.5l0.8,0.1
	c-0.3,0.6-0.5,1.2-0.6,1.8c0,0.2,0,0.4,0.3,0.4s1-0.6,1.1-2c0.1-0.8-1-1.9-1-3.1c0-1,0.7-1.9,1.8-1.9C36.6,23.9,36.6,23.9,36.8,23.9
	L36.8,23.9z"/>
<path class="st3" d="M14.5,26.7h0.8c-0.2,1.1-0.1,2.1,0.2,3.2C15,28.9,14.6,27.8,14.5,26.7L14.5,26.7z"/>
<path class="st3" d="M17,25.8c0.1,0.8,0.3,1.6,0.6,2.4h-0.7C16.8,27.4,16.9,26.6,17,25.8z"/>
<path class="st3" d="M23.5,25.8c0.3,0,0.8-0.1,0.8,0.8s-0.5,0.8-0.8,0.8L23.5,25.8z"/>
<path class="st3" d="M26.9,28c0.2-0.7,0.4-1.5,0.6-2.3c0.1,0.7,0.2,1.5,0.2,2.3H26.9z"/>
<path class="st3" d="M34.3,26.6c0.2,0.7,0.6,1.5,0.6,1.5L34,28C34.1,27.5,34.2,27.1,34.3,26.6L34.3,26.6z"/>
<path class="st4" d="M17,28h0.4c-0.1-0.3-0.3-0.7-0.4-1.1C17,27.3,17,27.6,17,28z"/>
<path class="st4" d="M23.7,25.9c0.3,0,0.4,0.1,0.5,0.6s-0.3,0.6-0.5,0.6L23.7,25.9z"/>
<polygon class="st4" points="27.1,27.8 27.4,26.8 27.5,27.8 27.1,27.8 27.1,27.8 "/>
<path class="st5" d="M11,23.9h4.1c0,0.7,0,1.5,0.1,2.2h-0.7c-0.1-1.2-0.2-1.4-0.8-1.4c0.1,1.9,0.5,3.8,1.3,5.6
	c0.3,0.5,0.5,0.4,0.5,0.4s0.4,0.8,0.8,1.6c-0.5,0.4-1.1,0.9-1.1,0.9c-0.4-0.6-0.8-1.3-1.1-2c0,0,0.3-0.1-0.1-0.8
	c-1-1.8-1.5-3.8-1.6-5.8c-0.8-0.1-0.5,1.5-0.5,1.5h-0.7C11,25.5,11,24.7,11,23.9z"/>
<path class="st3" d="M12.8,30.6c0.1,0.2,0.3,0.6,0.3,0.6l-0.2,0.1c0.9,1.8,1.2,1.3,1.8,2.2c0.1,0.2,0.5,0.3,1,0.2
	c0.9-0.7,1.8-1.2,2.9-1.6c1.7-0.6,3.5-1,5.4-1.1c3.3-0.1,6.6,0.8,9.4,2.7c4.6,3.1,5.5,6.3,5.5,6.3c-3.3-2.1-7.1-3.4-11-3.7
	c-1.5-0.1-3,0-4.4,0.5c-1.1,0.4-3.5,1.9-4.5,2.3c-1,0.4-2,0.6-3,0.7c-1.4-0.7-2.7-1.8-3.6-3.1c-1.9-2.5-1.6-4-1.6-4
	C11.1,31.8,11.9,31,12.8,30.6L12.8,30.6z"/>
<path class="st2" d="M11.1,32.4c0.3-0.4,0.6-0.7,1-1c-0.1,0.3-0.2,0.7-0.3,1C11.6,32.4,11.4,32.4,11.1,32.4L11.1,32.4z"/>
<path class="st2" d="M12.3,32.4c0-0.3,0.1-0.6,0.2-0.9c0.2,0.3,0.4,0.6,0.6,0.9C12.8,32.4,12.6,32.4,12.3,32.4L12.3,32.4z"/>
<path class="st2" d="M11,32.7h0.8c-0.1,0.8,0,1.7,0.2,2.5C11.5,34.5,11.1,33.6,11,32.7L11,32.7z"/>
<path class="st2" d="M12.2,32.7c0.3,0,0.7,0,1-0.1c-0.1,0.4-0.1,0.7-0.1,1.1h-1C12.1,33.4,12.1,33.1,12.2,32.7L12.2,32.7z"/>
<path class="st2" d="M12.2,34.1h1c0.2,0.5,0.4,1,0.6,1.4c-0.3,0.3-0.7,0.6-1.1,0.8C12.4,35.6,12.2,34.9,12.2,34.1L12.2,34.1z"/>
<path class="st2" d="M13.7,32.8c0.1,0.3,0.3,0.5,0.5,0.7l-0.6,0.2C13.5,33.4,13.6,33.1,13.7,32.8L13.7,32.8z"/>
<polygon class="st2" points="13.6,34 14.3,33.8 14.7,34.1 13.8,34.7 13.6,34 13.6,34 "/>
<path class="st2" d="M15.4,34.1c0.4-0.1,0.8-0.2,1.2-0.4l-0.5,0.9C15.8,34.5,15.6,34.3,15.4,34.1z"/>
<path class="st2" d="M14,35l1-0.7c0.6,0.4,1.4,0.9,1.4,0.9c-0.2,0.6-0.5,1.2-0.8,1.7c-0.7-0.2-1.3-0.6-1.8-1.1l0.4-0.3
	C14.1,35.3,14.1,35.2,14,35z"/>
<path class="st2" d="M13.1,36.3l0.5-0.3c0.5,0.5,1.1,0.9,1.8,1.1c-0.3,0.2-0.6,0.2-0.9,0.1C14.1,37.1,13.1,36.3,13.1,36.3z"/>
<path class="st2" d="M16.3,34.7l0.5-0.8c0.6,0,1.1,0,1.7,0c-0.2,0.6-0.5,1.2-0.9,1.8c-0.1,0.1-0.2,0.2-0.4,0.2l-0.6-0.1l0.3-0.7
	L16.3,34.7L16.3,34.7z"/>
<path class="st2" d="M16.7,33.7l0.4-0.5c0.6-0.4,1.2-0.6,1.8-0.8c-0.4,0.4-0.7,0.9-1,1.3C17.6,33.7,17.1,33.7,16.7,33.7L16.7,33.7z"
	/>
<path class="st2" d="M18.4,33.7c0.2-0.4,0.5-0.8,0.8-1.2c0.4,0,0.8,0.1,1.2,0.3c0,0-0.9,1.3-1.1,1.6c-0.2,0-0.5,0-0.7,0l0.2-0.8
	L18.4,33.7L18.4,33.7z"/>
<polygon class="st2" points="18.5,34.7 19.1,34.7 18.1,35.4 18.5,34.7 18.5,34.7 "/>
<polygon class="st2" points="19.8,34.1 20.1,33.6 20.5,33.7 19.8,34.1 19.8,34.1 "/>
<path class="st2" d="M19.3,32.2c0.6-0.3,1.2-0.5,1.9-0.6l-0.9,0.7L19.3,32.2L19.3,32.2z"/>
<path class="st2" d="M20.5,32.5c0,0,0.7-0.6,1-0.9c1.4-0.2,1.9,0.2,1.9,0.2c-0.4,0.2-0.7,0.4-1,0.7c-0.6,0.2-1.2,0.6-1.7,1h-0.4
	l0.6-0.8L20.5,32.5L20.5,32.5z"/>
<path class="st2" d="M22.5,31.4c0.9-0.1,1.6-0.2,1.6-0.2c-0.3,0.1-0.6,0.1-0.8,0.2C23,31.4,22.7,31.4,22.5,31.4L22.5,31.4z"/>
<path class="st2" d="M22.7,32.5c0.2-0.2,0.4-0.3,0.6-0.4c0.3,0.2,0.7,0.6,0.7,0.6C23.6,32.6,23.1,32.5,22.7,32.5z"/>
<path class="st2" d="M23.6,31.6c0.4-0.2,0.8-0.3,1.2-0.3l1.5,0.7c-0.6,0.1-1.2,0.4-1.8,0.7c-0.3-0.3-0.6-0.6-0.9-0.8l0.3-0.2
	L23.6,31.6L23.6,31.6z"/>
<path class="st2" d="M25.1,31.2c0.3,0.1,0.7,0.3,1,0.4l0.7-0.3C26.7,31.4,25.7,31.2,25.1,31.2L25.1,31.2z"/>
<path class="st2" d="M26.3,31.8l0.8-0.4c1,0.4,1.9,1.1,2.6,2c-0.3,0.1-0.6,0.2-0.8,0.4l-1.9-0.5c-0.2-0.3-0.9-0.9-0.9-0.9l0.6-0.2
	L26.3,31.8L26.3,31.8z"/>
<path class="st3" d="M26.4,33c-0.3-0.1-1.5-0.3-1.5-0.3L26.4,33z"/>
<path class="st2" d="M27.8,31.5c1.2,0.3,2.3,0.8,3.4,1.3c-0.5,0-1,0-1.5,0.1C29.1,32.4,28.5,31.9,27.8,31.5L27.8,31.5z"/>
<path class="st2" d="M29.9,33.2c0.5-0.1,1-0.1,1.5-0.1c0.3,0.3,0.6,0.7,0.8,1.2l-0.9,0.3l-0.8-0.3c-0.1-0.3-0.6-0.7-0.6-0.7l0.2-0.1
	L29.9,33.2L29.9,33.2z"/>
<polygon class="st2" points="29.5,33.8 29.9,34 29.3,33.8 29.5,33.8 29.5,33.8 "/>
<path class="st2" d="M31.8,33.3l0.5,0.7l1,0.2C32.8,33.8,32.3,33.5,31.8,33.3L31.8,33.3z"/>
<polygon class="st2" points="33.7,34.5 34.5,35.1 34,35 33.7,34.5 33.7,34.5 "/>
<polygon class="st2" points="35.3,35.6 35.5,36 36.1,36.4 35.3,35.6 35.3,35.6 "/>
<polygon class="st2" points="32.4,34.2 33.4,34.4 33.9,35.4 33.3,35.5 32.1,35 31.9,34.6 32.5,34.5 32.4,34.2 32.4,34.2 "/>
<path class="st2" d="M34,35.2l0.9,0.2c0.2,0.3,0.4,0.7,0.4,1.1l-0.3,0.1l-1.4-0.9h0.5L34,35.2L34,35.2z"/>
<polygon class="st2" points="35.6,36.3 36.4,36.8 36.7,37.7 35.3,36.7 35.6,36.6 35.6,36.3 35.6,36.3 "/>
<path class="st1" d="M34.5,36.6c0.2,0.2,0.3,0.4,0.3,0.6c0.7,0.3,1.4,0.6,2,1C36.1,37.6,35.4,37,34.5,36.6L34.5,36.6z"/>
<path class="st1" d="M31.6,36.1l0.2-0.8c0,0,2.4,0.8,2.5,1.7C33.5,36.7,32.6,36.4,31.6,36.1z"/>
<path class="st1" d="M28.1,34.1c0,0,2.3,0.7,2.5,0.8c0.4,0.2,0.5,1.1,0.5,1.1l-2.2-0.4C28.7,35,28.4,34.5,28.1,34.1z"/>
<path class="st1" d="M22.4,33.3c1.2-0.1,2.4,0,3.6,0.4c0.8,0.5,1.6,1.1,2.2,1.8l-2.3-0.2C24.9,34.4,23.7,33.7,22.4,33.3L22.4,33.3z"
	/>
<path class="st1" d="M21.4,33.6c0.1-0.1,0.3-0.2,0.5-0.1c1,0.4,1.9,1.1,2.6,1.8c-0.7,0.2-1.3,0.4-1.9,0.8c-1-0.1-1.9-0.4-2.8-0.9
	C20.3,34.6,20.8,34.1,21.4,33.6L21.4,33.6z"/>
<path class="st1" d="M19.4,35.4c0.6,0.7,1.5,1.2,2.4,1.4c0,0-1,0.6-1.2,0.7c-0.9,0.5-3-0.8-3-0.8C18.3,36.4,18.9,36,19.4,35.4
	L19.4,35.4z"/>
<path class="st1" d="M17.3,37c0.5,0.6,1.1,1,1.8,1.4c-0.7,0.3-1.4,0.5-2.1,0.5c-0.7-0.3-1.4-0.7-2-1.1C15.8,37.6,16.6,37.4,17.3,37
	L17.3,37z"/>
<path class="st2" d="M16.2,36.7l0.3-0.7c0.2,0,0.4,0,0.6,0.1C16.8,36.4,16.5,36.6,16.2,36.7z"/>
<polygon class="st5" points="39.7,28 39.7,28.2 39.5,28.2 39.5,28.7 39.3,28.7 39.3,28.2 39.1,28.2 39.1,28 39.7,28 39.7,28 "/>
<polygon class="st5" points="40,28.7 39.9,28.2 39.9,28.7 39.7,28.7 39.7,28 39.9,28 40.1,28.6 40.2,28 40.4,28 40.4,28.7 
	40.2,28.7 40.2,28.2 40.1,28.7 40,28.7 40,28.7 "/>
<path class="st2" d="M35.3,34.1c0.2,0.1,0.5,0.2,0.8,0.2c-0.1,0.4-0.2,0.8-0.5,1.1c-0.4-0.4-0.9-0.8-0.9-0.8L35.3,34.1L35.3,34.1z"
	/>
<path class="st2" d="M36,33.1c0.1,0.3,0.2,0.6,0.2,0.9l-0.7-0.2C35.7,33.6,35.9,33.4,36,33.1z"/>
<path class="st2" d="M36.5,34.3c0.4,0,0.7,0,1.1,0c0,0.8-0.2,1.5-0.6,2.2c-0.4-0.2-0.8-0.4-1-0.8C36.1,35.3,36.4,34.8,36.5,34.3
	L36.5,34.3z"/>
<path class="st2" d="M36.3,33c0.3,0.1,0.7,0,1-0.2l0.2,0.3c0,0.3,0,0.6,0,0.9c-0.3,0.1-0.6,0.1-0.9,0.1C36.6,33.7,36.5,33.4,36.3,33
	L36.3,33z"/>
<path class="st3" d="M19.4,18.4c0,0,2.3,0.1,3.4,0c1.2,0.9,2.9,0.9,4.1,0c0.6,0,3.1,0,3.1,0c0.9,0.4,1.7,1.1,2.1,2H32
	c0.3,0.5,0.3,1,0.2,1.5c0.5,0.7,0.9,1.5,1,2.4h-2.6c-0.4,0.3-0.9,0.5-1.4,0.7c0.4,3.8-1.9,5-1.9,5s1-1.6,0.3-4.6
	c-1.1-0.1-2.1-0.5-2.9-1.2c-0.3,0.7-2.4,1.2-2.4,1.2c-0.4,1.5-0.3,3,0.3,4.4c-2.4-1.3-1.9-5-1.9-5c-1.1-0.3-2.1-1-2.7-2h0.2
	c-0.4-0.7-0.5-1.5-0.3-2.3h-0.3c0.5-0.8,1.2-1.4,1.9-2V18.4z"/>
<path class="st2" d="M19.5,18.9H22c-0.1,0.1-0.3,0.2-0.3,0.4c0.2-0.1,0.5-0.2,0.7-0.3c0.5,0.5,1.1,0.8,1.8,1l-0.6,0.2
	c0.4,0.4,0.8,0.6,1.3,0.8c0.6-0.2,1.1-0.5,1.5-0.9c-0.3,0-0.5,0-0.8-0.1c0.6,0,1.2-0.4,1.5-0.9c0.4,0,0.8,0.2,1.1,0.4
	c-0.1-0.2-0.2-0.4-0.4-0.5c0.6-0.1,1.3-0.1,1.9-0.1c0.6,0.2,1.2,0.7,1.6,1.2h-0.2c0,0,1.1,1.3-0.2,2c-0.1-0.4-0.4-0.8-0.8-1
	c0,0,0.9,1.4-0.4,1.8c0-0.4-0.2-0.9-0.6-1.1c0,0,0.5,1.2-0.5,1.5c0-0.5-0.2-0.9-0.5-1.2c0,0,0.4,1,0.1,1.4c-0.6,0.2-1.1,0.7-1.3,1.3
	c-0.8,0-1.5-0.5-1.9-1.2c-0.5,0.6-1.3,1-2.1,1c-0.1-0.5-0.5-1-1-1.2c-0.1-0.6,0.1-1.1,0.5-1.5c-0.5,0.3-0.8,0.8-0.9,1.4l-0.6-0.3
	c-0.1-0.5,0-1,0.3-1.4c-0.4,0.3-0.7,0.7-0.8,1.2c0,0-1.4-0.3-0.2-1.8c-0.4,0.2-0.8,0.6-0.9,1.1c-0.5-0.2-1.6-1.1-0.1-2.1h-0.4
	C19,19.4,19.3,19.1,19.5,18.9L19.5,18.9z"/>
<path class="st2" d="M18.2,21.6c0.2,0.3,1.9,1,2.4,2.7c-0.9-0.3-1.6-1-1.9-1.8c0,0.2,0,0.4,0,0.5C18.4,22.7,18.2,22.2,18.2,21.6
	L18.2,21.6z"/>
<path class="st2" d="M23.7,19.3c0.8,0.1,1.6,0.1,2.4,0C25.3,19.8,24.4,19.8,23.7,19.3z"/>
<path class="st2" d="M29.1,24.5c-0.1-1.1,1.9-1.8,2.5-2.8c0,0.6-0.3,1.2-0.8,1.6c0-0.2,0-0.4,0-0.6C30.6,23.6,29.9,24.3,29.1,24.5
	L29.1,24.5z"/>
<path class="st4" d="M20.9,23.2c0,0,1.3,0.5,1.5,1.1c-0.4-0.2-0.8-0.3-1.2-0.4C21.1,23.7,21,23.5,20.9,23.2L20.9,23.2z"/>
<path class="st4" d="M27.4,24.2c0.4-0.5,0.9-0.8,1.5-0.8c-0.2,0.1-0.3,0.3-0.4,0.5C28.1,23.9,27.7,24,27.4,24.2L27.4,24.2z"/>
<path class="st3" d="M27,22c0.3,0,0.4,0.5,0.3,0.5s-0.7,0.3-0.9,0.7C26.4,22.8,26.6,22.3,27,22z"/>
<path class="st3" d="M22.7,22c-0.3,0-0.3,0.5-0.3,0.5s0.7,0.3,0.9,0.7C23.3,22.8,23.1,22.3,22.7,22z"/>
<path class="st3" d="M24.4,21.9c0,0,0.3-0.3,0.5-0.3s0.5,0.3,0.5,0.3c-0.2,0.1-0.3,0.2-0.4,0.3C24.7,22,24.5,21.9,24.4,21.9z"/>
<path class="st3" d="M19.3,20.2c0.5-0.4,1.1-0.5,1.7-0.5c0.3,0.8,1.1,1.2,1.9,1c0.5,0.3,0.9,0.7,1.2,1.1c-0.4-0.3-0.9-0.6-1.4-0.7
	c-1.9,0.9-2.1-0.4-2.4-1C20,20,19.3,20.1,19.3,20.2L19.3,20.2z"/>
<path class="st3" d="M30.3,20.2c-0.5-0.4-1.1-0.5-1.7-0.5c-0.3,0.8-1.1,1.2-1.9,1c-0.5,0.3-0.9,0.7-1.2,1.1c0.4-0.3,0.9-0.6,1.4-0.7
	c1.9,0.9,2.1-0.4,2.4-1C29.6,20,30.3,20.1,30.3,20.2L30.3,20.2z"/>
<path class="st4" d="M20.7,20c0.1,0.2,0.2,0.3,0.4,0.5c0,0.3,0.1,0.6,0.4,0.8c0-0.2,0-0.3,0-0.5c0.2,0.2,0.5,0.3,0.8,0.4
	C20.7,22.1,20.5,20.1,20.7,20L20.7,20z"/>
<path class="st4" d="M29,20c-0.1,0.2-0.2,0.3-0.4,0.5c0,0.3-0.1,0.6-0.4,0.8c0-0.2,0-0.3,0-0.5c-0.2,0.2-0.5,0.3-0.8,0.4
	C29,22,29.1,20.1,29,20z"/>
<path class="st5" d="M27.5,24.6c0.1-0.1,0.1-0.1,0.2-0.2c0.1,0,0.2,0.1,0.2,0.1c0.4,0.8,0.5,1.7,0.5,2.6c0.2-0.9,0.1-1.8-0.1-2.7
	c0-0.1,0.1-0.1,0.1-0.1h0.3c0.5,1.7,0.2,3.5-0.8,4.9C28.2,27.7,28.1,26.1,27.5,24.6L27.5,24.6z"/>
<path class="st5" d="M21.1,24.3c0.1,0,0.2,0.1,0.3,0.1c0,0,0.1,0.1,0.1,0.1c-0.1,0.7-0.1,1.3,0,2c0-0.7,0.2-1.4,0.5-2h0.2
	c-0.3,0.8-0.4,1.6-0.4,2.5c-0.1,0.7,0,1.3,0.2,1.9C21,27.6,20.7,25.9,21.1,24.3L21.1,24.3z"/>
<path class="st2" d="M31.6,23.3c0.4,0.3,0.7,0.6,1,0.9h-2C31,23.9,31.4,23.6,31.6,23.3L31.6,23.3z"/>
<path class="st2" d="M31.7,23c0.1-0.2,0.3-0.4,0.4-0.6c0.3,0.4,0.4,0.8,0.4,1.2C32.2,23.4,32,23.2,31.7,23z"/>
<path class="st3" d="M24.7,32.5c2.6,0,4.6,2.1,4.6,4.6s-2.1,4.6-4.6,4.6s-4.6-2.1-4.6-4.6l0,0C20.1,34.5,22.2,32.5,24.7,32.5
	C24.7,32.5,24.7,32.5,24.7,32.5z"/>
<path class="st4" d="M20.9,35c-0.5,0.9-0.6,2-0.4,3c1-1.2,2.4-2.1,4-2.4C23.9,34.1,22.6,34,20.9,35z"/>
<path class="st4" d="M24.6,35.9c-1.6,0.4-3,1.4-3.8,2.8c0.2,0.5,0.5,1,0.9,1.4C23.6,39,25,37.7,24.6,35.9z"/>
<path class="st4" d="M24.8,35.9c0.5,2.2-0.5,3.7-2.5,4.6c0.5,0.4,1,0.6,1.6,0.7c2.1-1,3.1-3.4,2.4-5.6
	C25.8,35.7,25.3,35.8,24.8,35.9L24.8,35.9z"/>
<path class="st4" d="M26.5,35.7c0.7,2,0.1,4.2-1.5,5.5c1.6-0.1,3-1.2,3.5-2.7c-0.8-0.7-1.2-1.7-1.2-2.8C27,35.8,26.8,35.7,26.5,35.7
	L26.5,35.7z"/>
<path class="st4" d="M27.5,35.9c0.1,0.8,0.5,1.5,1.2,2c0.2-0.4,0.2-0.9,0.1-1.3C28.4,36.3,27.9,36.1,27.5,35.9L27.5,35.9z"/>
<path class="st4" d="M24.9,32.9c0.7,0.7,1.3,1.6,1.6,2.5c0.3,0,0.5,0,0.8,0.1c0-0.5,0-1.1,0.1-1.6C26.7,33.3,25.8,33,24.9,32.9
	L24.9,32.9z"/>
<path class="st4" d="M23.7,33c-0.7,0.1-1.4,0.5-1.9,1c1.6-0.2,2.6,0.2,3,1.6c0.5-0.1,1-0.1,1.5-0.2C25.9,34.2,24.9,33.3,23.7,33z"/>
<path class="st4" d="M27.9,34.4c-0.3,0-0.4,0.6-0.4,1.3c0.5,0.1,1,0.4,1.3,0.7C28.7,35.7,28.4,35,27.9,34.4L27.9,34.4z"/>
<path class="st3" d="M21.1,17.9c-0.1,0-0.3,0.1-0.4,0.1c-0.3,0-0.5-0.1-0.8-0.2c-0.3-0.2-0.4-0.6-0.2-1c0.1-0.1,0.1-0.2,0.2-0.2
	c0.2-0.2,0.5-0.2,0.8-0.2c0.1,0,0.2,0,0.4,0l0.1,0.4c-0.1-0.1-0.3-0.1-0.4-0.1c-0.4,0-0.6,0.2-0.6,0.5s0.3,0.5,0.6,0.5
	c0.1,0,0.3,0,0.4-0.1L21.1,17.9L21.1,17.9z"/>
<path class="st3" d="M21.2,17.8l0.5,0.1l0.3-0.3h0.8l0.2,0.3l0.6-0.1l-1.2-1.6L21.2,17.8z M22.1,17.3l0.3-0.4l0.3,0.4H22.1z"/>
<polygon class="st3" points="23.7,16.3 24.2,16.3 24.2,17.9 23.7,17.9 23.7,16.3 "/>
<path class="st3" d="M24.6,17.9h0.5v-0.7l0.6,0.7l0.5-0.1l-0.6-0.6c0.2-0.1,0.3-0.2,0.3-0.4s-0.3-0.5-0.8-0.5h-0.7L24.6,17.9
	L24.6,17.9z M25.1,16.6L25.1,16.6c0.2,0,0.4,0.1,0.4,0.2s-0.1,0.2-0.4,0.2l0,0C25.1,17.1,25.1,16.6,25.1,16.6z"/>
<polygon class="st3" points="26.3,16.2 27.8,17.2 27.8,16.3 28.3,16.3 28.3,18 26.9,17 26.9,17.9 26.3,17.9 26.3,16.2 "/>
<path class="st3" d="M28.8,17.4c0.1,0.1,0.3,0.1,0.4,0.1c0.2,0,0.3-0.1,0.3-0.1s-0.2-0.1-0.4-0.2s-0.5-0.2-0.5-0.5s0.3-0.5,0.8-0.5
	c0.2,0,0.5,0.1,0.7,0.2l-0.3,0.3c-0.1-0.1-0.2-0.1-0.4-0.1c-0.1,0-0.2,0-0.2,0.1s0.2,0.1,0.5,0.2s0.5,0.2,0.5,0.5s-0.3,0.5-0.9,0.5
	c-0.3,0-0.5-0.1-0.8-0.2L28.8,17.4L28.8,17.4z"/>
<path class="st6" d="M15.9,11.7c0-0.9,0-1.7,1.2-1.7c0.7,0,1,0.4,1,1.1h-0.7c0-0.4-0.1-0.6-0.3-0.6c-0.4,0-0.5,0.4-0.5,1.2
	s0,1.2,0.5,1.2s0.3-0.4,0.3-0.7h0.7c0,0.9-0.4,1.2-1,1.2C16,13.5,16,12.6,15.9,11.7L15.9,11.7z"/>
<path class="st6" d="M20.1,11.7c0-0.9,0-1.2-0.5-1.2s-0.5,0.4-0.5,1.2s0,1.2,0.5,1.2S20.1,12.6,20.1,11.7z M21.1,13.4h-1.2h-0.2
	c-1,0-1.2-0.6-1.2-1.7c0-0.9,0-1.7,1.2-1.7s1.2,0.9,1.2,1.7c0,0.7-0.1,1-0.4,1.3l0,0c0.1,0,0.2-0.1,0.4-0.1h0.3L21.1,13.4L21.1,13.4
	z"/>
<path class="st6" d="M23.7,10.1v2.4c0,0.6-0.4,1-1,1c-0.1,0-0.1,0-0.1,0c-0.8,0-1.1-0.4-1.1-1v-2.4h0.7v2.3c0,0.4,0.2,0.6,0.4,0.6
	s0.5-0.2,0.5-0.6v-2.3H23.7z"/>
<path class="st6" d="M24.9,11.3L24.9,11.3c0.1-0.1,0.1-0.2,0.2-0.2c0.1,0,0.2-0.1,0.3-0.1c0.3,0,0.6,0.2,0.6,0.5c0,0,0,0,0,0v1.9
	h-0.7v-1.6c0-0.2,0-0.4-0.2-0.4s-0.2,0.2-0.2,0.4v1.6h-0.7v-2.4h0.7L24.9,11.3L24.9,11.3z"/>
<path class="st6" d="M27.3,13.4h-0.7v-2.4h0.7C27.3,11.1,27.3,13.4,27.3,13.4z M27.3,10.1v0.5h-0.7v-0.5L27.3,10.1z"/>
<polygon class="st6" points="27.6,11.1 28.3,11.1 28.6,12.8 28.6,12.8 29,11.1 29.6,11.1 29,13.4 28.2,13.4 27.6,11.1 "/>
<path class="st6" d="M31.1,12c0-0.2,0-0.6-0.3-0.6s-0.3,0.4-0.3,0.6H31.1z M30.5,12.4c0,0.3,0,0.7,0.3,0.7s0.3-0.2,0.3-0.4h0.7
	c0,0.2-0.1,0.4-0.2,0.6c-0.2,0.2-0.4,0.2-0.7,0.2c-0.9,0-1-0.5-1-1.2s0.2-1.2,1-1.2s1,0.6,1,1.3L30.5,12.4z"/>
<path class="st6" d="M32.9,11.1v0.3l0,0c0.1-0.2,0.4-0.4,0.6-0.4v0.6c-0.6,0-0.6,0.3-0.6,0.5v1.3h-0.7v-2.3H32.9z"/>
<path class="st6" d="M34.3,12.7c0,0.1,0,0.2,0,0.3c0,0.1,0.1,0.1,0.2,0.1c0.1,0,0.2-0.1,0.2-0.2c0,0,0,0,0,0c0-0.5-1.2-0.4-1.2-1.1
	c0-0.5,0.5-0.7,0.9-0.7s0.8,0.2,0.8,0.7h-0.6c0-0.2,0-0.3-0.1-0.3c0,0-0.1-0.1-0.2-0.1c-0.1,0-0.2,0.1-0.2,0.2
	c0,0.4,1.2,0.4,1.2,1.1c0,0.4-0.3,0.7-0.9,0.7s-1-0.1-0.9-0.8L34.3,12.7z"/>
<path class="st6" d="M36.6,13.4h-0.7v-2.4h0.7C36.6,11.1,36.6,13.4,36.6,13.4z M36.6,10.1v0.5h-0.7v-0.5L36.6,10.1z"/>
<path class="st6" d="M36.9,11.1h0.3v-0.4l0.7-0.3v0.7h0.3v0.4h-0.3v1.3c0,0.2,0,0.3,0.2,0.3h0.1v0.4c-0.1,0-0.2,0-0.3,0
	c-0.6,0-0.6-0.4-0.6-0.5v-1.5h-0.3L36.9,11.1L36.9,11.1z"/>
<polygon class="st6" points="38.9,13.4 38.2,11.1 38.9,11.1 39.2,12.7 39.2,12.7 39.6,11.1 40.2,11.1 39.3,14.3 38.6,14.3 
	38.9,13.4 "/>
<path class="st5" d="M9.6,9.6v0.2c0,0.2,0.1,0.6,0.1,0.8v0.2l0,0v0.3v0.1l0,0c0.1,0.3,0.1,0.7,0.2,1l0,0l0.1,0.3l0,0l0,0v0.1l0,0
	v0.1l0,0v0.1l0,0l0.1,0.4l0,0l0,0l0,0l0,0l0,0v0.1l0,0v0.1l0,0l0,0l0,0l0.1,0.2l0,0l0,0l0,0l0.1,0.2l0,0l0,0l0.1,0.2l0,0l0,0l0,0
	l0.1,0.1l0,0l0,0l0,0l0,0l0,0l0.1,0.2l0,0l0.1,0.1l0,0l0,0l0,0l0,0l0,0l0.1,0.2l0,0l0.2-0.1l-0.2,0.1l0,0c0.3,0.5,0.6,1,1,1.4
	l0.1,0.1l0.1-0.1c0.7-0.3,1.4-0.8,1.9-1.4c0.5-0.3,0.9-0.8,1.2-1.4l0,0v-0.4l0,0v-0.8l0,0v-0.2V9.3V8L9.6,9.6z"/>
<path class="st7" d="M14,13.4c0.3-0.2,0.5-0.4,0.7-0.6c0-0.8,0-2.4,0-3.4c-1.2-0.2-2.4,0.1-3.4,0.8c-0.4,0.3-0.8,0.5-1.1,0.9
	c0.1,0.4,0.2,0.8,0.3,1.3C11.7,12.4,12.9,12.7,14,13.4z"/>
<path class="st8" d="M14,13.4c-1-0.7-2.3-1.1-3.5-1.1c0.2,0.8,0.5,1.5,0.9,2.2c0.8-0.1,1.5-0.4,2.2-0.9L14,13.4L14,13.4z"/>
<path class="st6" d="M11.3,10.2c1-0.7,2.2-1,3.4-0.8c0-0.6,0-1,0-1L10,9.8c0,0.4,0.1,0.8,0.2,1.3C10.5,10.8,10.9,10.5,11.3,10.2
	L11.3,10.2z"/>
<path class="st6" d="M13.5,13.8c-0.7,0.4-1.4,0.7-2.2,0.9c0.3,0.5,0.6,0.9,0.9,1.3c1.5-0.8,2.4-1.8,2.4-3.1l0,0
	C14.3,13.2,13.9,13.5,13.5,13.8L13.5,13.8z"/>
<path class="st5" d="M12.8,10.5c-0.3,0-0.4,0.2-0.4,0.6s0.1,0.6,0.4,0.6s0.4-0.2,0.4-0.6S13,10.5,12.8,10.5L12.8,10.5z M13.6,12.2
	c-0.1,0-0.1,0-0.2,0c-0.2,0-0.4-0.1-0.5-0.2l-0.2-0.2c-0.1-0.1-0.2-0.1-0.4-0.3c-0.1-0.1-0.2-0.3-0.2-0.5c0-0.4,0.4-0.6,0.8-0.6
	c0.3,0,0.6,0.3,0.6,0.6c0,0.3-0.2,0.6-0.5,0.6l0,0l0.3,0.3C13.3,12.1,13.4,12.1,13.6,12.2L13.6,12.2L13.6,12.2z"/>
<path class="st9" d="M14.7,11.6h-0.3v1c-0.1,0.1-0.2,0.2-0.3,0.2c-0.1,0-0.2-0.1-0.2-0.2c0,0,0,0,0,0v-0.9h-0.4l0,0
	c0.1,0,0.2,0.1,0.2,0.2v0.7c0,0.2,0.2,0.4,0.4,0.4c0,0,0,0,0.1,0c0.2,0,0.3-0.1,0.4-0.2v0.2h0.3C14.7,12.8,14.7,11.6,14.7,11.6z"/>
<path class="st9" d="M12,11.4c-0.1,0.1-0.2,0.2-0.4,0.2c-0.2,0-0.4-0.2-0.4-0.6s0.2-0.6,0.4-0.5c0.2,0,0.3,0.1,0.4,0.3H12v-0.4h-0.5
	c-0.4,0-0.7,0.3-0.7,0.6c0,0,0,0,0,0c0,0.3,0.2,0.6,0.6,0.6c0,0,0,0,0.1,0C11.7,11.7,11.8,11.7,12,11.4L12,11.4L12,11.4z"/>
</svg>
