<?xml version="1.0" encoding="utf-8"?>
<!-- Generator: Adobe Illustrator 21.1.0, SVG Export Plug-In . SVG Version: 6.00 Build 0)  -->
<svg version="1.1" id="Layer_1" xmlns="http://www.w3.org/2000/svg" xmlns:xlink="http://www.w3.org/1999/xlink" x="0px" y="0px"
	 viewBox="0 0 50 50" style="enable-background:new 0 0 50 50;" xml:space="preserve">
<style type="text/css">
	.st0{fill:#FFFFFF;}
	.st1{fill:#AC1F23;}
	.st2{fill:#EC2227;}
	.st3{fill:#E5CA71;}
	.st4{fill:#F37154;}
	.st5{fill:#FAA51D;}
	.st6{fill:url(#_Path_43_1_);}
	.st7{fill:url(#_Compound_Path_5_1_);}
	.st8{fill:url(#_Path_44_1_);}
	.st9{fill:url(#_Path_45_1_);}
	.st10{fill:url(#_Path_46_1_);}
	.st11{fill:url(#_Path_47_1_);}
	.st12{fill:url(#_Path_48_1_);}
	.st13{fill:url(#_Path_49_1_);}
	.st14{fill:url(#_Path_50_1_);}
	.st15{fill:url(#_Path_51_1_);}
	.st16{fill:url(#_Path_52_1_);}
	.st17{fill:url(#_Path_53_1_);}
	.st18{fill:url(#_Path_54_1_);}
	.st19{fill:url(#_Path_55_1_);}
	.st20{fill:url(#_Path_56_1_);}
	.st21{fill:url(#_Path_57_1_);}
	.st22{fill:url(#_Path_58_1_);}
	.st23{fill:url(#_Path_59_1_);}
	.st24{fill:url(#_Path_60_1_);}
	.st25{fill:url(#_Path_61_1_);}
	.st26{fill:url(#_Path_62_1_);}
	.st27{fill:url(#path2236_1_);}
</style>
<title>Illawarra</title>
<path id="_Compound_Path_" class="st0" d="M25,37c-1.7,0-3.2-1-3.9-2.5c-0.3,0.1-0.6,0.1-0.9,0.1h-0.1h-0.3v-0.3c0-0.4,0-0.7,0-1.1
	c-0.3,0.1-0.5,0.1-0.8,0.2h-0.3v-0.3c0-0.5,0.1-1,0.2-1.5c-0.3,0.1-0.7,0.2-1,0.2h-0.3v-0.3c0-0.4,0.1-0.8,0.3-1.1
	c-1.6,0.4-3.1,1.4-4.1,2.7l-0.1,0.2l-5-1.3l1.1-5c-0.2,0-0.4-0.1-0.6-0.2C9.1,26.7,9,26.6,9,26.5c0-0.1,0-0.2,0-0.3
	c-1.6-0.1-3.1-0.6-4.4-1.6l-0.8-0.7l1.1,0.2c0.4,0.1,0.7,0.1,1.1,0.1c-1.5-0.4-2.8-1.5-3.6-2.8l-0.4-0.9L2.8,21c1,0.6,2.1,0.9,3.2,1
	c-1.5-0.8-2.7-2-3.5-3.5c-0.1-0.2-0.2-0.5-0.2-0.7c0-0.2,0-0.4,0-0.5l0.5,0.5c0.1,0.1,0.2,0.2,0.3,0.3c1.1,1,2.5,1.8,4,2.1
	c-1.5-1.2-2.7-2.8-3.2-4.7c-0.1-0.2-0.1-0.4-0.1-0.6c0-0.3,0.1-0.5,0.2-0.8l0.2,0.5c0.1,0.2,0.3,0.5,0.4,0.8c1,1.8,3.2,3,4.6,3.5
	c-0.8-0.9-1.4-2.1-1.7-3.3l-0.2-1L8,15.3c0,0,2.9,3,6,3.8L13.9,19L13,17.7l-0.5-0.8l1,0.6c0.2,0.2,0.5,0.3,0.7,0.4
	c0.6,0.3,1.2,0.5,1.8,0.5h4.5c-0.5-0.4-0.9-0.9-1-1.5c-0.1-0.5,0.1-1.1,0.6-1.4c0-0.4,0.2-0.7,0.5-0.9c0.1-0.2,0.2-0.3,0.3-0.5
	c0.2-0.2,0.4-0.4,0.6-0.5c0.7-0.4,1.4-0.6,2.2-0.7c0.2,0,0.4,0,0.5,0l0.4,0.1l0,0c1,0.3,1.9,0.7,2.7,1.2c0.7,0.5,0.8,0.6,0.8,0.9
	c0,0.1-0.1,0.1-0.2,0.2l0.5,0.5c0.5,0.6,0.6,0.8,0.5,0.9l-0.1,0.3L28.6,17c0.2,0.3,0.3,0.7,0.4,1l0.1,0.2c0.2,0.1,0.4,0.2,0.6,0.2
	H34c0.6,0,1.3-0.2,1.8-0.5l0,0l0.1-0.1c0.2-0.1,0.3-0.2,0.4-0.2c0.5-0.3,1-0.5,1-0.5c-0.1,0.3-0.2,0.5-0.4,0.8
	c-0.1,0.1-0.2,0.4-0.4,0.6L36.1,19L36,19.1c3.1-0.8,6-3.7,6-3.8l0.7-0.7l-0.2,1c-0.3,1.2-0.9,2.3-1.7,3.3c1.5-0.6,3.9-1.8,4.8-3.8
	c0-0.1,0.5-1,0.5-1c0.2,0.4,0.2,0.8,0.1,1.2c-0.5,1.9-1.7,3.6-3.3,4.8c1.5-0.3,2.9-1,4-2.1c0.1-0.1,0.2-0.2,0.3-0.3l0.5-0.5
	c0,0.2,0,0.4,0,0.6c0,0.2-0.1,0.5-0.2,0.7c-0.8,1.4-2,2.6-3.4,3.4c1.1-0.1,2.2-0.5,3.2-1l0.8-0.5l-0.4,0.9c-0.8,1.4-2.1,2.4-3.6,2.8
	c0.4,0,0.7,0,1.1-0.1l1.1-0.2l-0.8,0.7c-1.2,1-2.7,1.5-4.3,1.6c0.1,0.1,0.1,0.2,0.1,0.2c0,0.2-0.1,0.4-0.2,0.5
	c-0.2,0.1-0.4,0.2-0.7,0.2c0.4,2.1,1,4.5,1.1,5l-4.9,1.2l-0.1-0.2c-1.1-1.3-2.6-2.3-4.2-2.7c0.2,0.4,0.3,0.8,0.3,1.2V32H32
	c-0.3-0.1-0.7-0.1-1-0.2c0.2,0.5,0.3,1,0.3,1.5v0.3h-0.3c-0.3,0-0.5-0.1-0.8-0.2c0,0.4,0,0.7,0,1.1v0.3h-0.3h-0.1
	c-0.3,0-0.6,0-0.9-0.1C28.2,36.1,26.7,37,25,37z M21.5,33.8l0.1,0.3c0.7,1.9,2.9,2.8,4.8,2.1c1-0.4,1.7-1.1,2.1-2.1l0.1-0.3l0.3,0.1
	C29,34,29.3,34,29.5,34c0-0.4,0-0.8-0.2-1.2l-0.2-0.7l0.6,0.3c0.3,0.1,0.5,0.2,0.8,0.3c-0.1-0.5-0.2-1-0.4-1.4l-0.3-0.6l0.7,0.2
	c0.4,0.1,0.8,0.3,1.1,0.3c-0.1-0.4-0.3-0.7-0.5-1l-0.2-0.2l0.3-0.5c2.1,0.4,3.9,1.5,5.4,3.1l4-1l-1-4.8l-0.1-0.3h0.3
	c0.2,0,0.4,0,0.6-0.1c-0.2-0.1-0.3-0.2-0.5-0.3h0l0.1-0.6h0.6c1.2,0,2.3-0.3,3.4-0.9c-0.6,0-1.2-0.1-1.7-0.2V24c1.5-0.2,3-0.9,4.1-2
	c-1.2,0.4-2.5,0.7-3.8,0.7l-0.1-0.6c1.5-0.6,2.8-1.5,3.8-2.7c-1.3,0.8-2.8,1.3-4.3,1.5l-1,0l0.8-0.6c1.3-0.9,2.3-2,3.1-3.3
	c-1.4,1.3-3.2,2.2-5,2.8l-0.3-0.5c0.9-0.8,1.6-1.7,2.1-2.8c-1.3,1.1-3.8,3-6.3,3.3L34.4,20l0.7-0.6c0.2-0.2,0.4-0.4,0.6-0.7l0.1-0.1
	c-0.5,0.2-1.1,0.4-1.7,0.4h-4.4c-0.7-0.1-1.2-0.4-1.6-1l0,0v-0.1l-0.1-0.5l0.2,0.1C28,17.3,28,17.1,27.9,17l0,0l-0.2-0.3l-0.4-0.7
	l0.4,0.2c-0.4-0.4-0.8-0.8-0.9-0.8l-0.8-0.7l0.5,0.1c-0.7-0.4-1.4-0.7-2.1-0.9v-0.1v0.1l-0.4-0.1c-0.1,0-0.3,0-0.4,0
	c-0.7,0-1.3,0.2-1.9,0.6l0,0c-0.2,0.1-0.3,0.2-0.5,0.4l0,0c-0.1,0.1-0.2,0.2-0.2,0.3V15L21,15c-0.4,0.2-0.3,0.3-0.3,0.5v0.2
	l-0.2,0.1c-0.3,0.2-0.5,0.5-0.5,0.9c0.1,0.5,0.4,1,0.9,1.3c0-0.2,0-0.4,0.1-0.6c0.1-0.1,0.2-0.3,0.4-0.3l0,0h0.2h0.1l0.1,0.1
	c0.2,0.3,0.3,0.6,0.2,1l0,0v0.1c-0.1,0.2-0.2,0.4-0.5,0.5v0.1h-0.1c-0.2,0.1-0.3,0.1-0.5,0.1H16c-0.6,0-1.1-0.2-1.7-0.4l0.1,0.1
	c0.2,0.2,0.4,0.5,0.6,0.7l0.7,0.6l-0.9-0.1c-2.6-0.3-5.1-2.2-6.3-3.3c0.5,1.1,1.2,2,2.1,2.8l-0.3,0.5c-1.8-0.5-3.6-1.5-5-2.8
	c0.8,1.3,1.9,2.4,3.1,3.2l0.8,0.6l-1,0c-1.5-0.1-3-0.6-4.3-1.5c1,1.2,2.3,2.1,3.8,2.7l-0.1,0.6c-1.3,0-2.6-0.3-3.9-0.7
	c1.1,1.1,2.5,1.8,4.1,2v0.6c-0.6,0.1-1.1,0.2-1.7,0.2c1,0.6,2.2,0.9,3.4,0.9H10l0.2,0.5h-0.1c-0.2,0.1-0.3,0.2-0.5,0.3
	c0.2,0,0.4,0.1,0.6,0.1h0.3l-1.1,5.1l4,1.1c0.9-1.2,2.7-2.3,5.2-3l0.3,0.5l0,0l-0.1,0.1c-0.3,0.3-0.4,0.6-0.5,1
	c0.4-0.1,0.8-0.2,1.1-0.3l0.7-0.2l-0.3,0.6c-0.2,0.5-0.4,0.9-0.4,1.4c0.3-0.1,0.5-0.2,0.8-0.3l0.6-0.3l-0.2,0.7
	c-0.1,0.4-0.2,0.8-0.2,1.1c0.3,0,0.5-0.1,0.8-0.2L21.5,33.8L21.5,33.8z M21.6,17.7c-0.1,0.2-0.1,0.4,0,0.5c0,0,0.1,0,0.1-0.1v-0.1
	C21.7,18,21.7,17.9,21.6,17.7L21.6,17.7z"/>
<path id="_Compound_Path_2" class="st0" d="M21.4,33.8l0.1,0.2c0.7,1.9,2.8,2.9,4.7,2.3c1.1-0.4,1.9-1.2,2.3-2.3l0.1-0.2l0.2,0.1
	c0.3,0.1,0.5,0.1,0.8,0.2c0-0.4,0-0.8-0.2-1.2l-0.2-0.6l0.6,0.2c0.3,0.1,0.6,0.2,0.9,0.3c-0.1-0.5-0.2-1-0.4-1.5l-0.3-0.6l0.6,0.2
	c0.4,0.1,0.8,0.3,1.2,0.4c-0.1-0.4-0.3-0.7-0.5-1L30.9,30l0.2-0.4c2.5,0.7,4.4,1.8,5.4,3.1l4-1l-1-4.8l-0.1-0.3h0.3
	c0.2,0,0.5,0,0.7-0.1c-0.2-0.1-0.4-0.2-0.5-0.3h0l0.2-0.5h0.6c1.2,0,2.4-0.3,3.5-0.9H44c-0.6,0-1.2-0.1-1.7-0.2V24
	c1.6-0.2,3.1-0.9,4.2-2.1c-1.3,0.5-2.6,0.7-4,0.8l-0.1-0.5c1.5-0.6,2.9-1.6,3.9-2.9c-1.3,0.9-2.9,1.4-4.5,1.6h-0.9l0.7-0.5
	c1.4-0.9,2.5-2,3.4-3.4c-1.5,1.4-3.3,2.4-5.2,2.9l-0.2-0.5c0.9-0.8,1.7-1.8,2.2-2.9c-1.2,1.1-3.8,3.1-6.4,3.4l-0.8,0.1l0.6-0.5
	c0.2-0.2,0.4-0.4,0.6-0.7l0.1-0.2c-0.6,0.2-1.2,0.4-1.8,0.4h-4.5c-0.6,0-1.2-0.4-1.5-0.9l0,0v-0.1L28,17.4l0.2,0.1
	c-0.1-0.2-0.2-0.4-0.3-0.5l0,0l-0.2-0.3L27.4,16l0.4,0.2c-0.5-0.5-1-0.9-1-0.9l-0.7-0.6l0.5,0.1c-0.7-0.4-1.5-0.8-2.3-1v-0.1v0.1
	l-0.4-0.1c-0.1,0-0.3,0-0.4,0c-0.7,0-1.3,0.2-1.9,0.6l0,0c-0.2,0.1-0.3,0.2-0.5,0.4l0,0c-0.1,0.1-0.2,0.2-0.2,0.3v0.1L21,15
	c-0.4,0.2-0.4,0.4-0.3,0.6v0.2l-0.2,0.1c-0.3,0.2-0.5,0.5-0.5,0.9c0.1,0.6,0.5,1,1,1.3c0-0.2,0-0.5,0.1-0.7c0.1-0.1,0.2-0.2,0.4-0.3
	l0,0h0.2h0.1l0.1,0.1c0.2,0.3,0.3,0.6,0.2,1l0,0v0.1c-0.1,0.2-0.3,0.4-0.5,0.5l0,0h-0.1c-0.2,0.1-0.3,0.1-0.5,0.1H16
	c-0.6,0-1.2-0.2-1.8-0.4l0.1,0.2c0.2,0.3,0.4,0.5,0.6,0.7l0.6,0.5l-0.8-0.1c-2.6-0.3-5.2-2.3-6.4-3.4c0.5,1.1,1.2,2.1,2.1,2.9
	l-0.2,0.5c-2-0.6-3.8-1.6-5.2-2.9c0.8,1.4,1.9,2.6,3.2,3.5L9,20.9H8.1c-1.6-0.1-3.2-0.7-4.5-1.6c1,1.3,2.4,2.3,3.9,2.9l-0.1,0.5
	c-1.4,0-2.7-0.3-4-0.8c1.2,1.1,2.7,1.9,4.3,2v0.5c-0.6,0.1-1.1,0.2-1.7,0.2H5.9c1.1,0.6,2.3,0.9,3.5,0.9H10l0.1,0.5h-0.1
	c-0.2,0.1-0.4,0.2-0.5,0.3c0.2,0.1,0.4,0.1,0.6,0.1h0.3l-1.1,5.1l0,0l4.1,1.1c0.9-1.2,2.7-2.3,5.2-3l0.2,0.4l0,0l-0.1,0.1
	c-0.3,0.3-0.4,0.6-0.5,1c0.4-0.1,0.8-0.1,1.2-0.2l0.6-0.2l-0.3,0.6c-0.2,0.5-0.4,1-0.4,1.5c0.3-0.1,0.6-0.2,0.9-0.3l0.6-0.2
	l-0.2,0.6c-0.1,0.4-0.2,0.8-0.2,1.2c0.3,0,0.5-0.1,0.8-0.2L21.4,33.8L21.4,33.8z M21.6,17.6c-0.1,0.2-0.1,0.4-0.1,0.6
	c0.1,0,0.1-0.1,0.1-0.1v-0.1C21.7,17.9,21.7,17.8,21.6,17.6L21.6,17.6L21.6,17.6z M32.5,20.5h-0.9v-1L32.5,20.5z"/>
<g id="_Group_">
	<path d="M33.9,27.8c-0.5,0.1-1,0-1.5-0.3v-8.1c1.6-0.3,3.1-0.9,4.4-1.9c-0.6,0.8-1.2,1.4-2,2c3.6-0.2,7.4-4,7.4-4
		c-0.4,1.6-1.3,3-2.6,4c0,0,5.1-1.4,6.3-4.8c0,0-0.2,3-4.1,5.8c2.1-0.2,4.1-1.1,5.6-2.6c0,0-0.9,2.8-4.9,4.5c1.7,0,3.3-0.4,4.8-1.2
		c0,0-1.1,2.4-5,3.1c0.9,0.2,1.8,0.2,2.8,0.1c-1.5,1.1-3.3,1.7-5.1,1.5c0.5,0.3,1,0.5,0.7,0.8c-1.1,0.2-2.2,0.2-3.3-0.1
		c0.1,0.1,0.1,0.1,0.2,0.2c0.4,0.3,0.8,0.8,0,0.8c-0.7,0-1.4-0.2-2-0.5c0.1,0.1,0.2,0.2,0.3,0.3c0.3,0.4,0.4,1-1,0.4
		c-0.4-0.2-0.8-0.4-1.1-0.6C33.9,27.4,34.1,27.7,33.9,27.8z"/>
</g>
<g id="_Group_2">
	<path class="st1" d="M33.5,21.5c0.1,0.4,0.3,0.8,0.6,1.2c-0.8-0.3-1.6-0.7-2.2-1.4c0.1,0.6,0.3,1.1,0.6,1.5c0,0-1.1-0.3-1.3-0.6
		c0,0,0.8,0.8,1.3,1.1c0.3,0.3,0.7,0.4,1.1,0.4c0.1-0.1-0.9-0.8-1.1-1.5c0.5,0.4,1,0.7,1.5,1c0.6,0.2,1,0.3,1.1,0.2
		s-0.9-0.7-1.1-1.2c0.8,0.4,1.7,0.8,2.6,1C35.5,22.9,34.4,22.3,33.5,21.5z M32.3,27.1c0.7,0.3,0.8-0.2,0.3-0.9
		c-0.2-0.2-0.4-0.5-0.5-0.9c0,0,0.7,0.7,1.2,1.1c1.3,1,2,0.9,1.2,0.1c-0.4-0.4-0.8-0.8-1-1.4c0.5,0.5,1,0.9,1.5,1.3
		c0.5,0.4,1.2,0.5,1.8,0.4c0.1-0.1-1.3-1.2-1.6-2c0.5,0.5,1.2,0.9,1.8,1.2c0.8,0.3,1.7,0.4,2.5,0.3c0.1-0.1-1.2-0.4-1.9-1.2
		c0.8,0.2,1.6,0.3,2.5,0.2c1,0,2-0.2,2.9-0.6c-1.2,0-2.4-0.2-3.6-0.6c1.9,0,3.7-0.5,5.3-1.5c-1.6,0.2-3.1,0.3-4.7,0.3
		c1.8-0.5,3.4-1.4,4.8-2.7c-2,0.6-4,1-6,1.2c1.4,0,2.8-0.1,4.1-0.3c0,0-4,2.3-6.1,1.9c1.4,0.6,4.7,0.4,4.7,0.4
		c-1.3,0.3-2.7,0.4-4,0.3c1,0.6,2.1,1,3.2,1.2c-1.5,0.3-4.5-0.8-4.5-0.8c0.4,0.7,1,1.3,1.7,1.8c-0.8-0.2-1.6-0.6-2.4-1
		c-0.4-0.3-1.2-1.1-1.5-1.4l0,0c0,0,0.6,0.7,0.3,0.8c0.4,0.4,0.7,0.9,1,1.4c0.1,0.3-0.3,0.4-1,0c-0.5-0.5-1-1.1-1.3-1.8
		c-0.3-0.2-0.6-0.3-0.6-0.3c0.1,0.2,0.1,0.3,0.1,0.5c0.2,0.5,0.7,1.1,0.8,1.4s-0.2,0.4-0.8,0c-0.4-0.3-1.3-1.1-1-0.6
		c0.4,0.8,0.2,1.3-0.3,0.9S32.1,27,32.3,27.1L32.3,27.1z M42.8,19c-2,0.9-4,1.5-6.1,2c1.3-0.2,2.5-0.4,3.7-0.7
		c-0.4,0.5-0.9,1-1.5,1.3C40.4,21.1,41.7,20.2,42.8,19z M36.6,21c1.7-0.8,3.1-2,4.1-3.5c-1,0.5-3.5,2.4-6.5,2.5c1.6,0,3.3-0.4,4.8-1
		C38.3,19.8,37.5,20.4,36.6,21z M34.9,19.1c-0.9,0.4-2,0.7-3,0.7l0,0c0.8,0,1.6-0.1,2.4-0.3c-0.2,0.2-0.4,0.4-0.6,0.6l0,0
		C34.2,19.8,34.6,19.5,34.9,19.1z"/>
</g>
<g id="_Group_3">
	<path id="_Path_" class="st2" d="M32.4,27.2v-1.1l0.1,0.2C33,26.9,33,27.4,32.4,27.2z"/>
	<path id="_Path_2" class="st2" d="M32.4,25.8v-1.2c0,0,0.1,0,0.1,0c0.2-0.1,0-0.9,0-0.9s1.5,0.9,1.9,0.8s-0.3-0.9-0.3-0.9
		s1.5,0.7,1.9,0.5c0.2-0.1,0.1-0.4,0-0.6c0.5,0.2,0.9,0.3,1.4,0.4c-0.4-0.1-0.8-0.3-1.1-0.5c0.2,0,0.5,0,0.7,0
		C36,23.2,35,22.8,34,22.3c0.2,0.5,1.2,1.1,1.1,1.2s-0.5,0-1.1-0.2c-0.5-0.3-1.1-0.6-1.5-1c0.2,0.7,1.2,1.4,1.1,1.5
		c-0.4,0-0.8-0.1-1.1-0.4l-0.1-0.1V21c0.8-0.2,1.5-0.4,2.2-0.6c0,0-1.1,0.1-2.2,0.2v-0.8c0.9-0.1,1.7-0.3,2.5-0.6
		c-0.3,0.4-0.7,0.7-1.2,1c2.3,0,4.5-0.6,6.3-1.9c-0.9,1.2-2.1,2.2-3.4,2.8c1.6-0.2,3.2-0.6,4.7-1.2c-0.7,0.8-1.5,1.4-2.4,1.8
		c1.6,0,3.2-0.2,4.7-0.6c-1.6,1.8-5,2.3-5,2.3c1.5,0.1,2.9,0.1,4.4-0.1c-1,0.9-3.9,1.1-4.3,1c0.9,0.6,2.1,0.9,3.2,0.8
		c-0.6,0.3-1.4,0.5-2.1,0.4c-0.7,0-1.5-0.1-2.2-0.3c0.7,0.8,2.1,1.2,2,1.4c-0.9,0.1-1.7,0-2.5-0.3c-0.7-0.3-1.3-0.6-1.9-1.1
		c0.3,0.9,1.7,1.9,1.6,2c-0.7,0.1-1.3,0-1.9-0.4c-0.6-0.4-1.1-0.8-1.5-1.3c0.2,0.5,0.6,1,1,1.4c0.8,0.7,0,0.9-1.2-0.1
		C33,26.3,32.7,26,32.4,25.8z"/>
</g>
<path id="_Path_3" d="M31.2,19.2c0.8,0.1,1.7,0.1,2.5-0.2c0.9-0.1,1.7-0.5,2.4-0.9c-0.8,0.7-1.7,1.1-2.7,1.2c-0.9,0.1-1.8,0.1-2.7,0
	L31.2,19.2z"/>
<path id="_Path_4" d="M36,18.1c-0.7,0.3-1.5,0.5-2.3,0.5c-1.3,0-2.2,0.1-2.2,0.1l3.7,0.1l1.2-0.9L36,18.1z"/>
<path id="_Path_5" d="M35,19.7c0.3-0.2,0.6-0.5,0.8-0.9l0.8-1.2l-1.8,1.4L35,19.7z"/>
<polyline id="_Path_6" class="st1" points="35,18.9 35.6,18.7 35.1,19.2 "/>
<g id="_Group_4">
	<path d="M16.1,27.8c0.5,0.1,1,0,1.5-0.3v-8.1c-1.6-0.3-3.1-0.9-4.4-1.9c0.6,0.8,1.2,1.4,2,2c-3.6-0.2-7.4-4-7.4-4
		c0.4,1.6,1.3,3,2.6,4c0,0-5.2-1.4-6.4-4.8c0,0,0.2,3,4.1,5.8C6,20.4,4,19.5,2.5,18c0,0,0.9,2.8,4.9,4.5c-1.7,0-3.3-0.4-4.8-1.2
		c0,0,1.1,2.4,5,3.1c-0.9,0.2-1.8,0.2-2.8,0.1c1.5,1.1,3.3,1.7,5.2,1.5c-0.5,0.3-1,0.5-0.6,0.8c1.1,0.2,2.2,0.2,3.3-0.1
		c-0.1,0.1-0.1,0.1-0.2,0.2c-0.4,0.3-0.8,0.8-0.1,0.8c0.7,0,1.4-0.2,2-0.5c-0.1,0.1-0.2,0.2-0.3,0.3c-0.3,0.4-0.4,1,1,0.4
		c0.4-0.2,0.8-0.4,1.1-0.6C16.1,27.4,15.9,27.7,16.1,27.8z"/>
</g>
<path class="st1" d="M13.3,23.3c0.9-0.2,1.8-0.6,2.7-1.1c-0.2,0.5-1.2,1.1-1.1,1.2s0.5,0,1.1-0.2c0.5-0.3,1.1-0.6,1.5-1
	c-0.2,0.7-1.2,1.4-1.1,1.5c0.4,0,0.8-0.1,1.1-0.4c0.5-0.4,1.3-1.1,1.3-1.1c-0.2,0.4-1.3,0.6-1.3,0.6c0.3-0.5,0.5-1,0.6-1.5
	c-0.6,0.6-1.4,1.1-2.2,1.4c0.2-0.4,0.4-0.8,0.6-1.2C15.6,22.3,14.5,22.9,13.3,23.3z M18.7,25.9c-0.5,0.4-0.7-0.1-0.3-0.9
	c0.2-0.5-0.7,0.3-1,0.6c-0.5,0.4-0.9,0.4-0.8,0s0.6-0.9,0.8-1.4c0-0.2,0.1-0.3,0.1-0.5c0,0-0.3,0.2-0.6,0.3
	c-0.4,0.6-0.8,1.2-1.4,1.7c-0.6,0.5-1.1,0.4-1,0c0.3-0.5,0.6-0.9,1-1.4c-0.3-0.2,0.4-0.8,0.4-0.8l0,0c-0.3,0.3-1.1,1.1-1.5,1.4
	c-0.8,0.4-1.6,0.8-2.4,1c0.7-0.4,1.3-1,1.7-1.8c0,0-2.9,1.1-4.4,0.8c1.1-0.2,2.2-0.6,3.2-1.2c-1.3,0.2-2.7,0.1-4-0.3
	c0,0,3.3,0.2,4.7-0.4C11,23.6,7,21.4,7,21.4c1.4,0.2,2.7,0.3,4.1,0.3c-2-0.3-4-0.7-6-1.2c1.3,1.3,3,2.2,4.8,2.7
	c-1.6,0-3.1-0.1-4.7-0.3c1.6,1,3.4,1.6,5.3,1.5c-1.1,0.4-2.3,0.7-3.5,0.6c0.9,0.4,1.9,0.6,2.9,0.6c0.8,0,1.7-0.1,2.5-0.2
	c-0.7,0.8-2,1.1-1.9,1.2c0.9,0.1,1.7,0,2.5-0.3c0.6-0.3,1.2-0.7,1.8-1.1c-0.3,0.9-1.7,1.9-1.6,2c0.7,0.1,1.3,0,1.9-0.4
	c0.6-0.4,1.1-0.8,1.5-1.3c-0.2,0.5-0.6,1-1,1.4c-0.8,0.7,0,0.9,1.2-0.1c0.5-0.4,1.2-1.1,1.2-1.1c-0.1,0.3-0.3,0.6-0.5,0.9
	c-0.5,0.6-0.4,1.2,0.3,0.9C17.9,27,19,25.6,18.7,25.9L18.7,25.9z M11.1,21.6c-0.6-0.3-1.1-0.8-1.5-1.3c1.2,0.3,2.5,0.5,3.7,0.7
	c-2.1-0.5-4.2-1.1-6.1-2C8.3,20.2,9.6,21.1,11.1,21.6L11.1,21.6z M11,19c1.5,0.6,3.1,1,4.8,1c-3-0.1-5.6-2-6.5-2.5
	c1,1.5,2.5,2.7,4.1,3.5C12.5,20.4,11.7,19.8,11,19z M16.2,20L16.2,20c-0.2-0.2-0.4-0.3-0.6-0.6c0.8,0.2,1.6,0.3,2.4,0.3l0,0
	c-1,0-2.1-0.3-3-0.7C15.3,19.5,15.7,19.8,16.2,20z"/>
<path id="_Path_7" class="st2" d="M17.6,27.2v-1.1l-0.1,0.2C17,26.9,17,27.4,17.6,27.2z"/>
<path id="_Path_8" class="st2" d="M17.6,25.8v-1.2c0,0-0.1,0-0.1,0c-0.2-0.1,0-0.9,0-0.9s-1.5,0.9-1.9,0.8s0.3-0.9,0.3-0.9
	s-1.5,0.7-1.9,0.5c-0.2-0.1-0.1-0.4,0-0.6c-0.5,0.2-0.9,0.3-1.4,0.4c0.4-0.1,0.8-0.3,1.1-0.5c-0.2,0-0.5,0-0.7,0
	c1.1-0.2,2.1-0.6,3.1-1.1c-0.2,0.5-1.2,1.1-1.1,1.2s0.5,0,1.1-0.2c0.5-0.3,1.1-0.6,1.5-1c-0.2,0.7-1.2,1.4-1.1,1.5
	c0.4,0,0.8-0.1,1.1-0.4l0.1-0.1V21c-0.8-0.2-1.5-0.4-2.2-0.6c0,0,1.1,0.1,2.2,0.2v-0.8c-0.9-0.1-1.7-0.3-2.5-0.6
	c0.3,0.4,0.7,0.7,1.1,1c-2.3,0-4.5-0.6-6.3-1.9c0.9,1.2,2.1,2.2,3.4,2.8c-1.6-0.2-3.2-0.6-4.7-1.1c0.7,0.8,1.5,1.4,2.4,1.8
	c-1.6,0-3.2-0.2-4.7-0.6c1.6,1.8,5,2.3,5,2.3c-1.5,0.1-2.9,0.1-4.4-0.1c1,0.9,3.9,1.1,4.3,1c-0.9,0.6-2,0.9-3.2,0.9
	c0.6,0.3,1.4,0.5,2.1,0.4c0.7,0,1.5-0.1,2.2-0.3c-0.7,0.8-2.1,1.2-2,1.4c0.9,0.1,1.7,0,2.5-0.3c0.7-0.3,1.3-0.7,1.8-1.1
	c-0.3,0.9-1.7,1.9-1.6,2c0.7,0.1,1.3,0,1.9-0.4c0.6-0.4,1.1-0.8,1.5-1.3c-0.2,0.5-0.6,1-1,1.4c-0.8,0.7,0,0.9,1.2-0.1
	C17,26.3,17.3,26,17.6,25.8z"/>
<g id="_Group_5">
	<path d="M31.3,30.1c-0.3-0.3-0.6-0.5-0.9-0.8h-11c-0.3,0.2-0.6,0.5-0.9,0.8c-0.4,0.4-0.6,1-0.6,1.6c0.5-0.1,1.1-0.2,1.6-0.4
		c-0.3,0.6-0.5,1.3-0.5,1.9c0.4-0.1,0.8-0.2,1.2-0.4c-0.2,0.5-0.2,1-0.2,1.6c0.5,0,0.9-0.1,1.4-0.3c0.1,1,0.5,1.3,0.5,1.3
		c0.3-0.2,0.7-0.5,1-0.7c0.1,0.4,0.3,0.7,0.5,1c0.3-0.1,0.5-0.3,0.7-0.6c0.2,0.3,0.5,0.5,0.8,0.7c0.3-0.2,0.6-0.4,0.8-0.7
		c0.2,0.2,0.4,0.4,0.7,0.6c0.2-0.3,0.4-0.6,0.5-1c0.4,0.2,0.7,0.4,1.1,0.7c0.3-0.4,0.4-0.8,0.4-1.3c0.4,0.2,0.9,0.3,1.4,0.3
		c0.1-0.5,0-1.1-0.2-1.6c0.4,0.2,0.8,0.3,1.2,0.4c0-0.7-0.2-1.3-0.5-1.9c0.5,0.2,1,0.3,1.6,0.4C31.9,31,31.7,30.5,31.3,30.1z"/>
</g>
<path id="_Path_9" class="st2" d="M24.1,32.1C24,32.9,24,33.7,24,34.5c0,0.1,0,0.2,0.1,0.2c-0.1,0.2-0.3,0.3-0.5,0.5
	c-0.2-0.5-0.4-0.9-0.5-1.4c0-0.6,0.2-1.2,0.5-1.8c-0.4,0.5-0.7,1.2-0.7,1.8c0,0.2,0.1,0.4,0.1,0.5c-0.3,0.1-0.7,0.3-1,0.5
	c-0.1-0.4-0.2-0.8-0.3-1.2c0.3-1.2,0.9-2.3,1.9-3c-0.8,1.1-1.3,2.4-1.5,3.7c0.3-1.3,1-2.5,2-3.5c-0.4,1.1-0.5,2.2-0.4,3.4
	C23.8,33.5,23.9,32.8,24.1,32.1z"/>
<path id="_Path_10" class="st2" d="M27.9,34.9c-0.3-0.2-0.6-0.4-0.9-0.5c0.1-0.2,0.1-0.4,0.1-0.5c-0.1-0.7-0.3-1.3-0.7-1.8
	c0.3,0.6,0.5,1.2,0.5,1.8c-0.1,0.5-0.2,1-0.5,1.4c-0.2-0.1-0.4-0.3-0.5-0.5c0-0.1,0.1-0.1,0.1-0.2c0-0.8,0-1.7-0.1-2.5
	c0.3,0.7,0.4,1.4,0.4,2.1c0.1-1.1,0-2.3-0.4-3.4c1,1,1.7,2.2,2,3.5c-0.2-1.3-0.7-2.6-1.5-3.7c1,0.7,1.6,1.8,1.9,3
	C28.1,34,28,34.5,27.9,34.9z"/>
<path id="_Path_11" class="st2" d="M21.5,33.6c0,0,0,0.1,0,0.1c-0.4,0.2-0.8,0.3-1.2,0.3c0-0.5,0.1-1,0.4-1.5
	c0.3-0.2,0.5-0.3,0.5-0.3v0.3c0.2-1.1,0.9-2,1.8-2.5C22.3,31.1,21.7,32.3,21.5,33.6z"/>
<path id="_Path_12" class="st2" d="M29.6,34.1c-0.4-0.1-0.8-0.2-1.2-0.4v-0.1c-0.3-1.3-0.8-2.5-1.5-3.5c0.9,0.6,1.6,1.5,1.8,2.6
	v-0.3c0,0,0.2,0.1,0.5,0.3C29.4,33,29.6,33.5,29.6,34.1z"/>
<path id="_Path_13" class="st2" d="M18.3,31.2c0.1-0.4,0.3-0.7,0.5-1.1c1.2-1,2.4-1.9,3.8-2.7c-0.8,0.6-1.6,1.2-2.2,2
	c0.7-0.5,1.4-1,2.1-1.5c-0.8,0.6-1.5,1.4-2.2,2.2c0.6-0.6,1.4-1,2.1-1.4c-0.7,0.5-1.3,1.1-1.9,1.7C19.8,30.8,19.1,31,18.3,31.2z"/>
<path id="_Path_14" class="st2" d="M21.1,32c-0.5,0.4-1.1,0.6-1.7,0.8c0.1-0.6,0.2-1.2,0.5-1.8c0.4-0.1,0.6-0.3,0.6-0.3L20.5,31
	c0.5-0.8,1.2-1.5,2.1-1.9c-0.7,0.5-1.2,1.2-1.6,2c0.5-0.6,1.1-1.1,1.8-1.4C22.1,30.3,21.5,31.1,21.1,32z"/>
<path id="_Path_15" class="st2" d="M25,35.3c-0.3-0.2-0.6-0.5-0.7-0.8c0-1.2,0.2-2.4,0.5-3.5c0,0,0.1,2,0.2,3.5
	c0.1-1.5,0.2-3.5,0.2-3.5c0.3,1.2,0.5,2.3,0.6,3.5C25.5,34.9,25.3,35.1,25,35.3z"/>
<path id="_Path_16" class="st2" d="M30.5,32.7c-0.6-0.1-1.2-0.4-1.7-0.7c-0.4-0.9-1-1.7-1.7-2.3c0.7,0.3,1.3,0.8,1.8,1.4
	c-0.4-0.7-0.9-1.4-1.5-1.9c0.8,0.5,1.5,1.1,2.1,1.9l-0.1-0.3c0,0,0.2,0.1,0.6,0.3C30.3,31.6,30.4,32.1,30.5,32.7z"/>
<path id="_Path_17" class="st2" d="M31.1,30.2c0.2,0.3,0.4,0.7,0.5,1.1c-0.8-0.2-1.5-0.5-2.3-0.8c-0.6-0.6-1.2-1.2-1.9-1.7
	c0.8,0.3,1.5,0.8,2.1,1.4c-0.6-0.8-1.4-1.5-2.2-2.1c0.7,0.4,1.4,0.9,2.1,1.5c-0.7-0.8-1.4-1.4-2.2-2C28.7,28.2,29.9,29.1,31.1,30.2z
	"/>
<path class="st1" d="M20.4,30.2l-1.3,0.4c0.3-0.7,0.8-1.3,1.3-1.8c-0.6,0.4-1.1,0.8-1.6,1.3c-0.2,0.3-0.4,0.7-0.5,1.1
	c0.8-0.2,1.5-0.5,2.3-0.8c0.6-0.6,1.2-1.2,1.9-1.7h-0.1C21.7,29.2,21,29.7,20.4,30.2z"/>
<path class="st1" d="M24.6,34.4c0-0.5,0-1.1,0-1.6c-0.1,0.3-0.2,0.6-0.3,0.8c-0.1,0.6-0.1,0.9-0.1,0.9c0.2,0.3,0.4,0.6,0.7,0.8v-0.5
	C24.8,34.7,24.7,34.5,24.6,34.4z"/>
<path class="st1" d="M24,34.5c0,0,0-0.3,0-0.8c-0.1,0.3-0.2,0.6-0.2,0.9c-0.2-0.6-0.3-1.3-0.2-2c-0.2,0.6-0.2,1.3-0.2,1.9
	c-0.1-0.1-0.1-0.2-0.2-0.3c0.1,0.3,0.2,0.7,0.4,1c0.2-0.1,0.4-0.3,0.5-0.5C24,34.7,24,34.6,24,34.5z M22.9,33
	c-0.2,0.4-0.3,0.8-0.4,1.2l-0.3,0.3c-0.1-0.7,0-1.3,0.2-1.9c-0.2,0.4-0.4,0.7-0.6,1.1c0,0.4,0.1,0.8,0.3,1.2c0.3-0.2,0.6-0.4,1-0.5
	c-0.1-0.2-0.1-0.4-0.1-0.5L22.9,33z"/>
<path class="st1" d="M21.9,31.7c-0.3,0.5-0.5,1-0.7,1.5l-0.4,0.2l0.1-0.7l0.2-0.2l0.1,0.1c0.3-0.8,0.7-1.6,1.2-2.2
	c-0.6,0.6-1,1.3-1.2,2.1v-0.3c0,0-0.2,0.1-0.5,0.3c-0.3,0.5-0.4,1-0.4,1.5c0.4-0.1,0.8-0.2,1.2-0.3c0,0,0-0.1,0-0.1s0-0.1,0.1-0.3
	C21.7,32.7,21.7,32.2,21.9,31.7z"/>
<path class="st1" d="M20.5,31.1l0.1-0.3c0,0-0.2,0.1-0.6,0.3c-0.3,0.5-0.4,1.1-0.5,1.7c0.6-0.1,1.2-0.4,1.7-0.7l0,0
	c0.1-0.4,0.2-0.7,0.4-1c-0.3,0.3-0.6,0.7-0.8,1.1L20,32.2c0-0.3,0.1-0.6,0.2-1l0.1-0.1v0.2c0.6-0.7,1.2-1.4,1.9-2
	C21.6,29.8,20.9,30.4,20.5,31.1z M22.5,29.2L22.5,29.2L22.5,29.2L22.5,29.2z"/>
<path class="st1" d="M29.5,30.2l1.3,0.4c-0.3-0.7-0.8-1.3-1.3-1.8c0.6,0.4,1.1,0.8,1.6,1.3c0.2,0.3,0.4,0.7,0.5,1.1
	c-0.8-0.2-1.5-0.5-2.3-0.8c-0.6-0.6-1.2-1.2-1.9-1.7h0.1C28.2,29.2,28.9,29.7,29.5,30.2z"/>
<path class="st1" d="M25.4,34.4c0-0.5,0-1.1,0-1.6c0.1,0.3,0.2,0.6,0.3,0.8c0.1,0.6,0.1,0.9,0.1,0.9c-0.2,0.3-0.4,0.6-0.7,0.8v-0.5
	C25.1,34.7,25.3,34.5,25.4,34.4z"/>
<path class="st1" d="M25.8,34.8c0.1,0.2,0.3,0.3,0.5,0.5c0.2-0.3,0.3-0.7,0.4-1c0,0.1-0.1,0.2-0.2,0.3c0-0.6,0-1.3-0.2-1.9
	c0.1,0.7,0,1.4-0.2,2c0-0.3-0.1-0.6-0.2-0.9c0,0.5,0,0.8,0,0.8C25.9,34.6,25.9,34.7,25.8,34.8z M27.1,33.8c0,0.2-0.1,0.4-0.1,0.5
	c0.3,0.1,0.7,0.3,1,0.5c0.1-0.4,0.2-0.8,0.3-1.2c-0.2-0.4-0.4-0.7-0.6-1.1c0.2,0.6,0.3,1.3,0.2,1.9l-0.3-0.3
	c-0.1-0.4-0.2-0.8-0.4-1.1V33.8z"/>
<path class="st1" d="M28,31.7c0.3,0.5,0.5,1,0.7,1.5l0.4,0.2L29,32.8l-0.2-0.2l-0.1,0.1c-0.3-0.8-0.7-1.6-1.2-2.2
	c0.6,0.6,1,1.3,1.2,2.1v-0.3c0,0,0.2,0.1,0.5,0.3c0.3,0.5,0.4,1,0.4,1.5c-0.4-0.1-0.8-0.2-1.2-0.3v-0.1c0,0,0-0.1-0.1-0.3
	C28.3,32.7,28.2,32.2,28,31.7z"/>
<path class="st1" d="M27.7,29.3c0.7,0.6,1.3,1.3,1.9,2v-0.2l0.1,0.1c0.1,0.3,0.2,0.6,0.2,0.9l-0.6-0.3c-0.2-0.4-0.5-0.8-0.8-1.1
	c0.2,0.3,0.3,0.6,0.4,1l0,0c0.5,0.4,1.1,0.6,1.7,0.8C30.4,32,30.3,31.5,30,31c-0.4-0.1-0.6-0.3-0.6-0.3l0.1,0.3
	C29,30.4,28.4,29.8,27.7,29.3z M27.4,29.1L27.4,29.1L27.4,29.1L27.4,29.1z"/>
<path id="_Path_18" d="M18.8,19.2c-0.8,0.1-1.7,0.1-2.5-0.2c-0.9-0.1-1.7-0.5-2.4-0.9c0.8,0.7,1.7,1.1,2.7,1.2
	c0.9,0.1,1.8,0.1,2.7,0L18.8,19.2z"/>
<polygon id="_Path_19" points="28.1,19 28.2,19.5 28.6,19.4 "/>
<path id="_Path_20" d="M21.8,17.3c0.3,0.4,0.3,1,0,1.4c-0.5,0.4-1.1,0.6-1.7,0.5c-0.8,0.1-1.7,0.1-2.5,0.1c-1-0.2-2-0.4-3-0.8
	c1.2,0.6,2.4,1,3.7,1.1c2.1,0.2,3.3-0.2,3.6-0.5c0.4-0.3,0.6-0.7,0.5-1.2C22.2,17.1,21.8,17.3,21.8,17.3z"/>
<path id="_Path_21" class="st2" d="M28,18.5c0.2,0.4,0.6,0.7,1,0.8c0.6,0.1,1.5,0.2,1.5,0.2l-2.8,0.9h-5.9L20.3,20l-0.5-0.6l0.4-0.1
	c0.6,0,1.2-0.1,1.7-0.3c0.2-0.2,0.4-0.5,0.4-0.9c0-0.2,1.8,0.1,1.8,0.1l1.3-0.3L28,18.5z"/>
<path id="_Path_22" class="st2" d="M28,17.5l0.2-0.1c0,0-1.4-2.8-3.2-3.1c-0.2,0-0.4-0.1-0.5-0.1h-0.3c-0.9-0.2-1.9-0.1-2.8,0.3
	c-0.1,0.1-0.2,0.2-0.2,0.3l0,0c-0.3,0.2-0.5,0.4-0.5,0.5s0.1,0.3,0,0.4s-0.5,0.5-0.5,0.5c-0.1,0.4,0,0.8,0.3,1.2
	c0.3,0.3,0.6,0.4,0.9,0.5c0,0-0.1-0.5,0.2-0.5c1.1-0.1,1,1,0.8,1.3c-0.6,0.5-1.3,0.9-2,1.2c0.8-0.1,1.5-0.3,2.3-0.5
	c0.5-0.2,1-0.2,1.5-0.2l0.3,0.4c0,0,0.2-0.6,0.3-0.6s1.1,0.5,1.1,0.5l0.4,0.3l0.2-0.9c0.4,0.1,0.8,0.3,1.1,0.6l0.6,0.5l0.8-0.5
	L28,17.5z"/>
<path id="_Path_23" d="M21.5,15.9c0-0.1,0.2-0.1,0.2,0C22,15.7,21.3,15.7,21.5,15.9z"/>
<path id="_Path_24" class="st3" d="M20.7,15.6c0.4,0,0.8,0,1.2,0.1c0.3,0.1,0.3,0.1,0.3,0.1L22,16.1c0,0,0.8,0.1,1,0
	c0.2,0,0.5-0.1,0.7-0.2V16c0,0-0.1,0.2-0.2,0.2L23,16.4l0.3,0.2c-0.5,0.2-0.9,0.4-1.4,0.5c-0.3,0.1-0.6,0.2-0.8,0.3L21,18.2
	c0,0-1.2-1.1-1-1.6c0.1-0.3,0.2-0.5,0.4-0.8L20.7,15.6z"/>
<path id="_Path_25" class="st0" d="M21.2,16c-0.2-0.1-0.5,0-0.6,0.1c-0.2,0.3-0.3,0.6-0.1,0.9c0.2,0.4,0.4,0.8,0.6,1.1
	c0,0-0.9-0.7-1.1-1.2c0-0.3,0-0.6,0.1-0.8l0.4-0.3l0.3-0.1l0.3,0.2L21.2,16z"/>
<path id="_Path_26" class="st2" d="M27.2,16.8c0.4,0.3,0.7,0.8,0.8,1.3c0.2,0.8,0.4,0.9,0.5,1.1c0.2,0.2,0.3,0.3,0.5,0.4l-1-0.1
	c0-0.5,0-0.9-0.1-1.4C27.8,17.9,27.1,16.8,27.2,16.8L27.2,16.8z"/>
<path id="_Path_27" class="st1" d="M23.3,16.4c0.3,0.2,0.5,0.4,0.7,0.7c0.1,0.4,0.1,0.9,0,1.4c-0.1-0.2-0.2-0.5-0.3-0.7
	c-0.2-0.2,0.1,0.5-0.1,0.9c-0.2,0.3-0.5,0.6-0.9,0.6c-0.4,0.1-0.8,0.1-1.2,0.1l0.3-0.4c0,0,0.8-0.7,0.8-1.1s0-1,0-1l0.8-0.2l0.1-0.1
	L23.3,16.4z"/>
<polygon points="27.1,16.8 27.4,17.4 28.3,17.6 27.6,16.8 "/>
<path id="_Path_28" class="st2" d="M21.2,14.9c0,0-0.1-0.6,1.6-1.2s3.6,1.1,4.2,1.8c0.4,0.6,0.8,1.3,1,2l-2.7-2l-1.9-1.1l-1.1,0.3
	L21.2,14.9z"/>
<path id="_Path_29" class="st1" d="M25.6,14.8c0.5,0.8,0.4,1.9,0,2.7c-0.1,0.2-0.2,0.3-0.4,0.4c0.3-0.1,0.6-0.3,0.8-0.5
	c0.2-0.3-0.2,0.7-0.7,1.1c-0.2,0.2-0.5,0.4-0.7,0.5c0.5-0.2,1.1-0.2,1.7-0.1c0.5,0.1,0.9,0.3,1.3,0.6l1.4,0
	c-0.4-0.6-0.7-1.3-0.8-2.1c0-0.3-0.1-0.5-0.2-0.8c-0.4-0.9-1-1.6-1.8-2.3c-0.7-0.4-1.5-0.7-2.3-0.9C24.6,13.7,25.2,14.2,25.6,14.8z"
	/>
<path id="_Path_30" d="M28.3,17.7c0,0.3,0.1,0.5,0.2,0.8c0.2,0.5,0.7,0.8,1.3,0.8c0.6,0,1.2-0.1,1.8-0.4c0.6-0.3,0.7-0.1,0.7-0.1
	c-0.4,0.5-0.9,0.8-1.4,1C30,20.1,29,20,28.2,19.5c0-0.5-0.1-1-0.2-1.5c0-0.3-0.1-0.5-0.3-0.8L28.3,17.7z"/>
<path d="M25.8,15.2c0.6,0.5,1,1.2,1.1,1.9c-0.1-0.2-0.3-0.4-0.5-0.5c0.1,0.6,0,1.1-0.5,1.5c0.6,0.1,1.2,0.3,1.7,0.6
	c-0.4,0-0.9,0-1.3,0c0.8,0.2,1.5,0.5,2.1,1c0-1-0.4-2-1.1-2.7c0.2,0,0.4,0.1,0.5,0.1C27.4,16.3,26.7,15.7,25.8,15.2z"/>
<path id="_Path_31" d="M26.8,16c0.4,0.3,0.8,0.7,1.2,1.2c0.3,0.5,0.2,0.4,0.2,0.4l-0.3,0.2l-0.4-0.4l-0.3-0.7L26.8,16z"/>
<path id="_Path_32" class="st4" d="M23.6,13.6c-0.5,0.1-1,0.3-1.4,0.5c-0.4,0.3-0.7,0.6-0.5,0.9c0,0.1,0.1,0.2,0.2,0.3
	c-0.1,0-0.1,0-0.2,0c-0.1,0,0,0.2,0,0.2h-1.1l0.1-0.5l0.4-0.4c0.3-0.4,0.7-0.7,1.1-0.9c0.5-0.2,1-0.3,1.5-0.4L23.6,13.6z"/>
<path d="M24.6,15.1c-0.1,0.2-0.4,0.4-0.6,0.4C24.2,15.7,24.8,15.4,24.6,15.1z"/>
<path class="st5" d="M24.2,14.9c0.1,0.1,0,0.3-0.1,0.4c-0.2,0.1-0.4,0.1-0.7,0.2h-0.4c0,0,0.7-0.7,0.7-0.7s0.4-0.1,0.4-0.1
	L24.2,14.9z"/>
<path id="_Compound_Path_3" d="M24.3,14c0.2,0,0.9,0,0.9,0.3c-0.3-0.1-0.6-0.1-0.8,0.1c0,0.1,0.2,0.3,0.1,0.4c0-0.1-0.2-0.2-0.2-0.2
	c0.4,0.6-0.3,0.9-1.2,0.8c0,0.1,0.2,0,0.2,0.1c-0.6,0-1.2-0.1-1.7-0.3C23.3,15.6,23.4,14.2,24.3,14z M24,14.6
	c-0.2,0-0.2,0.1-0.2,0.2s0.1,0,0.1,0.1c0,0.3-0.6,0.1-0.5,0.3C24.1,15.3,24.4,14.9,24,14.6L24,14.6z"/>
<ellipse transform="matrix(0.999 -4.501428e-02 4.501428e-02 0.999 -0.6422 1.0869)" class="st0" cx="23.8" cy="14.8" rx="0.1" ry="0.1"/>
<path id="_Compound_Path_4" d="M28.3,17.8c0.2,0.1,0.3,0.2,0.4,0.3c-0.1-0.4-0.3-0.8-0.5-1.2c-0.2-0.4-0.4-0.8-0.7-1.2
	c-0.8-1.1-2-2-3.3-2.2c-0.9-0.1-1.7,0.1-2.5,0.6c-0.2,0.1-0.4,0.3-0.6,0.4c-0.1,0.1-0.2,0.3-0.3,0.4c-0.5,0.3-0.5,0.6-0.4,0.8
	c-1.3,0.7-0.3,2.6,0.9,2.8c-0.1-0.2-0.1-1,0.2-1.1c0.1,0,0.2,0,0.3,0c0.1,0,0.2,0.1,0.3,0.2c0.1,0.2,0.1,0.5,0,0.8
	c-0.1,0.2-0.3,0.3-0.5,0.5c-0.5,0.3-1.1,0.4-1.7,0.3c-1.2-0.1-1.7-0.2-1.7-0.2c0.4,0.2,0.8,0.4,1.2,0.6c0.5,0.1,1.1,0.1,1.6,0h0
	c0,0-0.2,0.2,0.3,0c0.4-0.1,0.7-0.3,1-0.6c0.2-0.3,0.4-0.6,0.4-1c0.1,0.1,0.3,0.3,0.4,0.4c0.2-0.4-0.3-0.8-0.3-1s0.5-0.3,0.9-0.5
	c-0.1-0.1-0.3-0.2-0.4-0.3c0.3-0.1,0.5-0.1,0.6-0.4c0.1,0,0.1,0.1,0.2,0c0-0.2-0.6-0.3-0.8-0.1c0.1,0,0.3,0,0.2,0
	c-0.4,0.1-0.9,0.1-1.3,0c-0.1-0.1,0.1-0.1,0.1-0.2c-0.5-0.3-1.1-0.4-1.6-0.3c0-0.2,0-0.4,0.5-0.6c0,0-0.1-0.6,1.6-1.2
	s3.6,1.1,4.2,1.8c0.4,0.6,0.8,1.3,1,2l-0.8-0.6c0.4,0.4,0.6,0.9,0.8,1.5l0.4,0.1C28.4,18.2,28.3,18,28.3,17.8
	C28.3,17.8,28.3,17.9,28.3,17.8z M20.8,15.7c0.4-0.1,0.8,0,1.2,0.1c0,0.1-0.2,0.2-0.1,0.3c0.6,0.1,1.2,0,1.8-0.1
	c0,0.1-0.2,0.1-0.2,0.2s0.2-0.1,0.3-0.1c-0.1,0.4-1,0.2-1.2,0.5c0.2,0,0.7-0.1,0.7,0.1c-0.9-0.1-1.3,0.5-2,0.6
	c0.1-0.3,0.3-0.5,0.9-0.5c0.1-0.3,0.5-0.4,0.7-0.5c-0.4,0.1-0.6,0.1-0.8,0.4c-0.9-0.2-1.1,0.8-1,1.4c-0.6-0.4-0.9-1-0.9-1.7
	c0.1-0.3,0.3-0.5,0.5-0.5C21.1,15.8,21.3,15.8,20.8,15.7L20.8,15.7z"/>
<path d="M21.2,15c-0.2,0-0.3,0.1-0.3,0.3c0.2-0.1,0.4,0,0.7,0C21.4,15.2,21.2,15.1,21.2,15z"/>
<path id="_Path_33" d="M24.5,13.4c0.9,0.2,1.8,0.7,2.6,1.2c1,0.7,0.6,0.5,0.6,0.5L27.1,15c0,0,0.6,0.6,1.1,1.1
	c0.5,0.5,0.5,0.6,0.5,0.6l-0.8-0.3c-0.1-0.3-0.3-0.6-0.5-0.8c-0.4-0.5-0.8-0.9-1.2-1.3C25.6,14,25.1,13.7,24.5,13.4z"/>
<path id="_Path_34" class="st1" d="M24.1,13.6c0.7,0.1,1.5,0.4,2.1,0.8c0.6,0.4,0.6,0.4,0.6,0.4l-0.6-0.1c0.5,0.4,0.9,0.7,1.3,1.2
	c0.4,0.4,0.4,0.4,0.4,0.4l-0.5-0.1v0.2L26.3,15c-0.4-0.4-0.9-0.8-1.4-1.1C24.7,13.8,24.4,13.7,24.1,13.6z"/>
<path id="_Path_35" d="M28.3,17.8c0.3,0.6,0.9,0.9,1.5,0.9c1.2,0.1,2.8,0.1,2.8,0.1l-4.4,0.2l-0.3-1.3L28.3,17.8z"/>
<path id="_Path_36" d="M20.2,18.7c0,0,1.5,0.1,1.7-0.4c0.1-0.3,0.1-0.5,0.1-0.8l0.3,0.6l-0.5,0.8h-1.5L20.2,18.7z"/>
<path id="_Path_37" d="M14,18.1c0.7,0.3,1.5,0.5,2.3,0.5c1.3,0,2.2,0.1,2.2,0.1l-3.7,0.1l-1.1-0.9L14,18.1z"/>
<path id="_Path_38" d="M15,19.7c-0.3-0.2-0.6-0.5-0.8-0.9l-0.8-1.2l1.8,1.4L15,19.7z"/>
<polyline id="_Path_39" class="st1" points="15,18.9 14.4,18.7 14.9,19.2 "/>
<path id="_Path_40" d="M26.7,28.9l0.2,0.9c-0.6-0.3-1.3-0.5-2-0.5c-0.7,0.1-1.5,0.2-2.1,0.6l0.4-1.1h3.5L26.7,28.9z"/>
<path id="_Path_41" d="M25,22L9.1,31.8l4.5,1.2c1.4-2.2,6.1-3.9,11.6-3.9S35,30.8,36.4,33l4.5-1.1L25,22z"/>
<path id="_Path_42" d="M38.8,22.1c-0.2-1.1-1.1-1.9-2.2-1.8H11.6L9.1,31.8l3.8-1.4l3.9-0.9l2.2-0.3l0.2-0.5v0.5l3.1-0.3h0.1l1.9-0.1
	l0.5-1.5l0.5,1.5l2.6,0.1l2.8,0.2v-0.5l0.3,0.5l2.8,0.6c0.1,0,1.7,0.5,2.9,0.9l2.5,0.8l1.6,0.5C40.9,31.9,38.9,22.4,38.8,22.1z"/>
<linearGradient id="_Path_43_1_" gradientUnits="userSpaceOnUse" x1="13.105" y1="29.35" x2="13.105" y2="18.68" gradientTransform="matrix(1 0 0 -1 0 50)">
	<stop  offset="0.57" style="stop-color:#FFFFFF"/>
	<stop  offset="1" style="stop-color:#CCCCCC"/>
</linearGradient>
<path id="_Path_43" class="st6" d="M14.1,24.3l-1,0.1l0.8-3.8h-1.9L9.5,31.3c0.8-0.3,1.5-0.5,2.3-0.8l0.8-4l1.1-0.2L13,30.2
	c0.8-0.2,1.5-0.4,2.2-0.6c0.5-3,1-6,1.4-8.9h-1.9L14.1,24.3z"/>
<linearGradient id="_Compound_Path_5_1_" gradientUnits="userSpaceOnUse" x1="18.275" y1="29.35" x2="18.275" y2="20.44" gradientTransform="matrix(1 0 0 -1 0 50)">
	<stop  offset="0.57" style="stop-color:#FFFFFF"/>
	<stop  offset="1" style="stop-color:#CCCCCC"/>
</linearGradient>
<path id="_Compound_Path_5" class="st7" d="M18,20.6c-0.8,2.9-1.7,5.8-2.6,8.9c0.7-0.2,1.3-0.3,2-0.4l0.3-1.3l1.4-0.2
	c0,0.4,0,0.8,0,1.2c0.7-0.1,1.5-0.2,2.2-0.3c-0.3-2.6-0.6-5.2-0.8-7.9L18,20.6z M18.1,26.4c0.3-1.1,0.6-2.1,0.8-3.2c0,1,0,2,0.1,3
	L18.1,26.4z"/>
<linearGradient id="_Path_44_1_" gradientUnits="userSpaceOnUse" x1="24.925" y1="29.36" x2="24.925" y2="21.48" gradientTransform="matrix(1 0 0 -1 0 50)">
	<stop  offset="0.57" style="stop-color:#FFFFFF"/>
	<stop  offset="1" style="stop-color:#CCCCCC"/>
</linearGradient>
<path id="_Path_44" class="st8" d="M26.5,24.5c-0.2-1.3-0.4-2.6-0.6-3.9h-1.8c-0.2,1.3-0.5,2.6-0.7,3.9c-0.1-1.3-0.2-2.6-0.3-3.9
	h-1.9c0.2,2.7,0.4,5.3,0.7,7.9c0.8-0.1,1.6-0.1,2.4-0.1c0.2-1.1,0.4-2.2,0.6-3.3c0.2,1.1,0.3,2.2,0.5,3.3c0.8,0,1.6,0,2.4,0.1
	c0.3-2.6,0.6-5.2,0.9-7.9H27C26.8,21.9,26.7,23.2,26.5,24.5z"/>
<linearGradient id="_Path_45_1_" gradientUnits="userSpaceOnUse" x1="31.845" y1="29.35" x2="31.845" y2="20.36" gradientTransform="matrix(1 0 0 -1 0 50)">
	<stop  offset="0.57" style="stop-color:#FFFFFF"/>
	<stop  offset="1" style="stop-color:#CCCCCC"/>
</linearGradient>
<path id="_Path_45" class="st9" d="M31.7,20.6c-0.2,1.3-0.4,2.6-0.7,3.9l-0.4-3.9h-1.9c0.2,2.7,0.3,5.3,0.5,8
	c0.7,0.1,1.5,0.2,2.2,0.3L31.1,25c0.5,1.3,1,2.7,1.5,4.1c0.8,0.1,1.6,0.3,2.3,0.5L33,24.9c0.3-1.4,0.5-2.8,0.7-4.3H31.7z"/>
<linearGradient id="_Path_46_1_" gradientUnits="userSpaceOnUse" x1="37.087" y1="29.42" x2="37.087" y2="18.58" gradientTransform="matrix(1 0 0 -1 0 50)">
	<stop  offset="0.57" style="stop-color:#FFFFFF"/>
	<stop  offset="1" style="stop-color:#CCCCCC"/>
</linearGradient>
<path id="_Path_46" class="st10" d="M38.6,25.6c-0.8-0.5-1.5-0.6-2.2-1c-0.3-0.2-0.4-0.9-0.4-1.2l-0.2-0.9c0-0.2,0-0.3,0.3-0.3h0.2
	c0.2,0,0.4,0.2,0.4,0.4c0.1,0.4,0.2,1.1,0.3,1.5c1.1,0.4,1.4,0.6,2,0.9c-0.2-1-0.2-1.5-0.4-2.4c-0.3-1.3-1-2-2.2-2h-1
	c-1.2,0-1.7,0.6-1.5,1.7l0.2,1.4c0.1,0.6,0.3,1.6,0.9,1.9s1.1,0.5,2,0.9c0.3,0.2,0.5,0.4,0.5,0.8l0.2,1.3c0,0.2-0.1,0.3-0.3,0.2
	l-0.2,0c-0.2,0-0.4-0.2-0.5-0.4c-0.1-0.4-0.2-1-0.3-1.4c-0.9-0.4-1.2-0.5-2-0.8c0.1,0.8,0.2,1.2,0.3,2c0.2,1.1,0.8,1.7,2.2,2.1
	l1.3,0.4l0,0c0.7,0.2,1.4,0.5,2.1,0.7l-0.4-2l0-0.4l-0.3-1.5C39.4,26.6,39.3,26,38.6,25.6z"/>
<linearGradient id="_Path_47_1_" gradientUnits="userSpaceOnUse" x1="12.865" y1="25.35" x2="12.865" y2="29.34" gradientTransform="matrix(1 0 0 -1 0 50)">
	<stop  offset="0" style="stop-color:#FFFFFF"/>
	<stop  offset="0.24" style="stop-color:#FBFBFB"/>
	<stop  offset="0.47" style="stop-color:#F0F0F0"/>
	<stop  offset="0.68" style="stop-color:#DEDEDE"/>
	<stop  offset="0.89" style="stop-color:#C3C3C3"/>
	<stop  offset="1" style="stop-color:#B3B3B3"/>
</linearGradient>
<path id="_Path_47" class="st11" d="M13.6,20.9l-0.8,3.8l1-0.1v-0.1L13,24.5l0.8-3.8h-1.8v0.2L13.6,20.9z"/>
<linearGradient id="_Path_48_1_" gradientUnits="userSpaceOnUse" x1="15.71" y1="20.35" x2="15.71" y2="29.35" gradientTransform="matrix(1 0 0 -1 0 50)">
	<stop  offset="0" style="stop-color:#FFFFFF"/>
	<stop  offset="0.24" style="stop-color:#FBFBFB"/>
	<stop  offset="0.47" style="stop-color:#F0F0F0"/>
	<stop  offset="0.68" style="stop-color:#DEDEDE"/>
	<stop  offset="0.89" style="stop-color:#C3C3C3"/>
	<stop  offset="1" style="stop-color:#B3B3B3"/>
</linearGradient>
<path id="_Path_48" class="st12" d="M14.8,20.7v0.2h1.7c-0.5,2.9-0.9,5.9-1.4,8.8l0.2-0.1c0.5-3,1-6,1.4-8.9H14.8z"/>
<linearGradient id="_Path_49_1_" gradientUnits="userSpaceOnUse" x1="12.09" y1="19.39" x2="12.09" y2="23.32" gradientTransform="matrix(1 0 0 -1 0 50)">
	<stop  offset="0" style="stop-color:#FFFFFF"/>
	<stop  offset="0.24" style="stop-color:#FBFBFB"/>
	<stop  offset="0.47" style="stop-color:#F0F0F0"/>
	<stop  offset="0.68" style="stop-color:#DEDEDE"/>
	<stop  offset="0.89" style="stop-color:#C3C3C3"/>
	<stop  offset="1" style="stop-color:#B3B3B3"/>
</linearGradient>
<path id="_Path_49" class="st13" d="M12.4,26.7l-0.8,3.9l0.2-0.1l0.8-3.9L12.4,26.7z"/>
<linearGradient id="_Path_50_1_" gradientUnits="userSpaceOnUse" x1="19.61" y1="21.4" x2="19.61" y2="29.35" gradientTransform="matrix(1 0 0 -1 0 50)">
	<stop  offset="0" style="stop-color:#FFFFFF"/>
	<stop  offset="0.24" style="stop-color:#FBFBFB"/>
	<stop  offset="0.47" style="stop-color:#F0F0F0"/>
	<stop  offset="0.68" style="stop-color:#DEDEDE"/>
	<stop  offset="0.89" style="stop-color:#C3C3C3"/>
	<stop  offset="1" style="stop-color:#B3B3B3"/>
</linearGradient>
<path id="_Path_50" class="st14" d="M20.2,20.8c0.2,2.6,0.5,5.2,0.8,7.8h0.2c-0.3-2.6-0.6-5.2-0.8-7.9H18l0,0.2L20.2,20.8z"/>
<linearGradient id="_Path_51_1_" gradientUnits="userSpaceOnUse" x1="17.415" y1="20.83" x2="17.415" y2="22.01" gradientTransform="matrix(1 0 0 -1 0 50)">
	<stop  offset="0" style="stop-color:#FFFFFF"/>
	<stop  offset="0.24" style="stop-color:#FBFBFB"/>
	<stop  offset="0.47" style="stop-color:#F0F0F0"/>
	<stop  offset="0.68" style="stop-color:#DEDEDE"/>
	<stop  offset="0.89" style="stop-color:#C3C3C3"/>
	<stop  offset="1" style="stop-color:#B3B3B3"/>
</linearGradient>
<path id="_Path_51" class="st15" d="M17.5,28l-0.3,1.1h0.2l0.3-1.1H17.5z"/>
<linearGradient id="_Path_52_1_" gradientUnits="userSpaceOnUse" x1="18.325" y1="23.47" x2="18.325" y2="26.61" gradientTransform="matrix(1 0 0 -1 0 50)">
	<stop  offset="0" style="stop-color:#FFFFFF"/>
	<stop  offset="0.24" style="stop-color:#FBFBFB"/>
	<stop  offset="0.47" style="stop-color:#F0F0F0"/>
	<stop  offset="0.68" style="stop-color:#DEDEDE"/>
	<stop  offset="0.89" style="stop-color:#C3C3C3"/>
	<stop  offset="1" style="stop-color:#B3B3B3"/>
</linearGradient>
<path id="_Path_52" class="st16" d="M18.7,23.4c-0.3,1-0.6,2.1-0.8,3.1l1-0.1v-0.1l-0.7,0.1l0.6-2.4C18.7,23.8,18.7,23.6,18.7,23.4z
	"/>
<linearGradient id="_Path_53_1_" gradientUnits="userSpaceOnUse" x1="22.31" y1="25.29" x2="22.31" y2="29.36" gradientTransform="matrix(1 0 0 -1 0 50)">
	<stop  offset="0" style="stop-color:#FFFFFF"/>
	<stop  offset="0.24" style="stop-color:#FBFBFB"/>
	<stop  offset="0.47" style="stop-color:#F0F0F0"/>
	<stop  offset="0.68" style="stop-color:#DEDEDE"/>
	<stop  offset="0.89" style="stop-color:#C3C3C3"/>
	<stop  offset="1" style="stop-color:#B3B3B3"/>
</linearGradient>
<path id="_Path_53" class="st17" d="M22.9,20.8c0.1,1.3,0.2,2.6,0.3,3.9l0.2-0.9c-0.1-1.1-0.2-2.1-0.3-3.2h-1.9v0.2H22.9z"/>
<linearGradient id="_Path_54_1_" gradientUnits="userSpaceOnUse" x1="25.29" y1="25.3" x2="25.29" y2="29.36" gradientTransform="matrix(1 0 0 -1 0 50)">
	<stop  offset="0" style="stop-color:#FFFFFF"/>
	<stop  offset="0.24" style="stop-color:#FBFBFB"/>
	<stop  offset="0.47" style="stop-color:#F0F0F0"/>
	<stop  offset="0.68" style="stop-color:#DEDEDE"/>
	<stop  offset="0.89" style="stop-color:#C3C3C3"/>
	<stop  offset="1" style="stop-color:#B3B3B3"/>
</linearGradient>
<path id="_Path_54" class="st18" d="M25.7,20.8c0.2,1.3,0.4,2.6,0.6,3.9l0.1-0.9c-0.2-1.1-0.3-2.1-0.5-3.2h-1.8v0.2L25.7,20.8z"/>
<linearGradient id="_Path_55_1_" gradientUnits="userSpaceOnUse" x1="24.41" y1="21.59" x2="24.41" y2="24.71" gradientTransform="matrix(1 0 0 -1 0 50)">
	<stop  offset="0" style="stop-color:#FFFFFF"/>
	<stop  offset="0.24" style="stop-color:#FBFBFB"/>
	<stop  offset="0.47" style="stop-color:#F0F0F0"/>
	<stop  offset="0.68" style="stop-color:#DEDEDE"/>
	<stop  offset="0.89" style="stop-color:#C3C3C3"/>
	<stop  offset="1" style="stop-color:#B3B3B3"/>
</linearGradient>
<path id="_Path_55" class="st19" d="M24.6,25.3c-0.2,1-0.4,2.1-0.6,3.1h0.2c0.2-0.9,0.3-1.7,0.5-2.6L24.6,25.3z"/>
<linearGradient id="_Path_56_1_" gradientUnits="userSpaceOnUse" x1="27.85" y1="21.51" x2="27.85" y2="29.36" gradientTransform="matrix(1 0 0 -1 0 50)">
	<stop  offset="0" style="stop-color:#FFFFFF"/>
	<stop  offset="0.24" style="stop-color:#FBFBFB"/>
	<stop  offset="0.47" style="stop-color:#F0F0F0"/>
	<stop  offset="0.68" style="stop-color:#DEDEDE"/>
	<stop  offset="0.89" style="stop-color:#C3C3C3"/>
	<stop  offset="1" style="stop-color:#B3B3B3"/>
</linearGradient>
<path id="_Path_56" class="st20" d="M27,20.6v0.2h1.5c-0.2,2.6-0.5,5.1-0.9,7.6h0.2c0.3-2.6,0.6-5.2,0.9-7.9L27,20.6z"/>
<linearGradient id="_Path_57_1_" gradientUnits="userSpaceOnUse" x1="33.315" y1="20.36" x2="33.315" y2="29.35" gradientTransform="matrix(1 0 0 -1 0 50)">
	<stop  offset="0" style="stop-color:#FFFFFF"/>
	<stop  offset="0.24" style="stop-color:#FBFBFB"/>
	<stop  offset="0.47" style="stop-color:#F0F0F0"/>
	<stop  offset="0.68" style="stop-color:#DEDEDE"/>
	<stop  offset="0.89" style="stop-color:#C3C3C3"/>
	<stop  offset="1" style="stop-color:#B3B3B3"/>
</linearGradient>
<path id="_Path_57" class="st21" d="M33.5,20.8c-0.2,1.5-0.5,2.9-0.7,4.2l1.9,4.5l0.3,0.1L33,24.9c0.3-1.4,0.5-2.8,0.7-4.3h-2v0.2
	H33.5z"/>
<linearGradient id="_Path_58_1_" gradientUnits="userSpaceOnUse" x1="31.165" y1="21.07" x2="31.165" y2="24.82" gradientTransform="matrix(1 0 0 -1 0 50)">
	<stop  offset="0" style="stop-color:#FFFFFF"/>
	<stop  offset="0.24" style="stop-color:#FBFBFB"/>
	<stop  offset="0.47" style="stop-color:#F0F0F0"/>
	<stop  offset="0.68" style="stop-color:#DEDEDE"/>
	<stop  offset="0.89" style="stop-color:#C3C3C3"/>
	<stop  offset="1" style="stop-color:#B3B3B3"/>
</linearGradient>
<path id="_Path_58" class="st22" d="M30.9,25.2l0.4,3.7h0.2L31.2,26L30.9,25.2z"/>
<linearGradient id="_Path_59_1_" gradientUnits="userSpaceOnUse" x1="29.895" y1="25.29" x2="29.895" y2="29.35" gradientTransform="matrix(1 0 0 -1 0 50)">
	<stop  offset="0" style="stop-color:#FFFFFF"/>
	<stop  offset="0.24" style="stop-color:#FBFBFB"/>
	<stop  offset="0.47" style="stop-color:#F0F0F0"/>
	<stop  offset="0.68" style="stop-color:#DEDEDE"/>
	<stop  offset="0.89" style="stop-color:#C3C3C3"/>
	<stop  offset="1" style="stop-color:#B3B3B3"/>
</linearGradient>
<path id="_Path_59" class="st23" d="M30.5,20.8l0.4,3.9L31,24l-0.3-3.3h-1.9v0.2L30.5,20.8z"/>
<linearGradient id="_Path_60_1_" gradientUnits="userSpaceOnUse" x1="38.044" y1="18.59" x2="38.044" y2="27.6" gradientTransform="matrix(1 0 0 -1 0 50)">
	<stop  offset="0" style="stop-color:#FFFFFF"/>
	<stop  offset="0.24" style="stop-color:#FBFBFB"/>
	<stop  offset="0.47" style="stop-color:#F0F0F0"/>
	<stop  offset="0.68" style="stop-color:#DEDEDE"/>
	<stop  offset="0.89" style="stop-color:#C3C3C3"/>
	<stop  offset="1" style="stop-color:#B3B3B3"/>
</linearGradient>
<path id="_Path_60" class="st24" d="M38.6,25.6c-0.8-0.5-1.5-0.6-2.2-1c-0.3-0.2-0.4-0.9-0.4-1.2l-0.2-0.9c0,0,0-0.1,0-0.1
	c-0.2,0-0.2,0.1-0.2,0.3l0.2,0.9c0,0.3,0.2,1,0.5,1.1c0.7,0.4,1.4,0.6,2.2,1s0.8,1,1,1.8l0.3,1.5l0.1,0.5l0.4,1.8l0.2,0.1l-0.4-2
	L39.9,29l-0.3-1.5C39.4,26.6,39.3,26,38.6,25.6z"/>
<linearGradient id="_Path_61_1_" gradientUnits="userSpaceOnUse" x1="36.065" y1="20.97" x2="36.065" y2="23.85" gradientTransform="matrix(1 0 0 -1 0 50)">
	<stop  offset="0" style="stop-color:#FFFFFF"/>
	<stop  offset="0.24" style="stop-color:#FBFBFB"/>
	<stop  offset="0.47" style="stop-color:#F0F0F0"/>
	<stop  offset="0.68" style="stop-color:#DEDEDE"/>
	<stop  offset="0.89" style="stop-color:#C3C3C3"/>
	<stop  offset="1" style="stop-color:#B3B3B3"/>
</linearGradient>
<path id="_Path_61" class="st25" d="M36.6,28.5c0,0.2,0.2,0.4,0.5,0.4l0.2,0c0.2,0.1,0.3,0,0.3-0.1h-0.2l-0.2,0
	c-0.2,0-0.4-0.2-0.5-0.4c-0.1-0.4-0.2-1-0.3-1.4c-0.9-0.4-1.2-0.5-2-0.8v0.2l1.8,0.7C36.4,27.5,36.5,28.1,36.6,28.5z"/>
<linearGradient id="_Path_62_1_" gradientUnits="userSpaceOnUse" x1="36.565" y1="25.05" x2="36.565" y2="29.42" gradientTransform="matrix(1 0 0 -1 0 50)">
	<stop  offset="0" style="stop-color:#FFFFFF"/>
	<stop  offset="0.24" style="stop-color:#FBFBFB"/>
	<stop  offset="0.47" style="stop-color:#F0F0F0"/>
	<stop  offset="0.68" style="stop-color:#DEDEDE"/>
	<stop  offset="0.89" style="stop-color:#C3C3C3"/>
	<stop  offset="1" style="stop-color:#B3B3B3"/>
</linearGradient>
<path id="_Path_62" class="st26" d="M35.2,20.8h1c1.2,0,1.9,0.6,2.2,2c0.2,0.8,0.2,1.3,0.4,2.1L39,25c-0.2-1-0.2-1.5-0.4-2.4
	c-0.3-1.3-1-2-2.2-2h-1c-0.5,0-1,0.1-1.3,0.5C34.4,20.9,34.8,20.8,35.2,20.8z"/>
<ellipse transform="matrix(0.8199 -0.5726 0.5726 0.8199 -14.2112 20.205)" cx="25" cy="32.7" rx="4" ry="4"/>
<g id="_Group_6">
	
		<radialGradient id="path2236_1_" cx="-432.63" cy="-207.91" r="3.76" gradientTransform="matrix(-1.44 -7.000000e-02 5.000000e-02 -1 -584.58 -204.12)" gradientUnits="userSpaceOnUse">
		<stop  offset="0" style="stop-color:#FEE795"/>
		<stop  offset="0.2" style="stop-color:#FFD52D"/>
		<stop  offset="0.66" style="stop-color:#F89730"/>
		<stop  offset="1" style="stop-color:#F57E2D"/>
	</radialGradient>
	<path id="path2236" class="st27" d="M26.8,29.5c1.8,1,2.4,3.2,1.5,5c-1,1.8-3.2,2.4-5,1.5s-2.4-3.2-1.5-5c0,0,0,0,0,0
		C22.7,29.2,25,28.5,26.8,29.5C26.7,29.5,26.7,29.5,26.8,29.5"/>
	<path id="_Path_63" d="M25,36.5c-2.1,0-3.8-1.7-3.7-3.8c0-2.1,1.7-3.8,3.8-3.7c0.6,0,1.2,0.2,1.8,0.5l-0.1,0.2
		c-1.7-1-3.9-0.4-4.9,1.4c0,0,0,0,0,0c-1,1.7-0.3,3.9,1.4,4.9s3.9,0.3,4.9-1.4c1-1.7,0.3-3.9-1.4-4.9l0.1-0.2c1.8,1,2.5,3.3,1.5,5.1
		c0,0,0,0,0,0C27.6,35.8,26.4,36.5,25,36.5z"/>
</g>
<rect id="_Path_64" x="14.8" y="18.7" width="20.1" height="0.7"/>
<polygon id="_Path_65" points="17.7,20 17.5,20.4 17.9,20.4 "/>
<polygon id="_Path_66" points="20.7,19.3 20.7,19.8 21.3,19.8 21.3,19.2 "/>
<polygon id="_Path_67" points="23,18.8 22.8,19.9 22.2,19.9 22.2,19 "/>
<path d="M22.9,29.9c-0.4,0-1.4,2-0.3,4.2c0.6,1.1,1.6,2,2.9,2.3c0.2,0.1,0.1,0,0.3,0c0.3-0.1,0.6-0.2,0.9-0.4
	c-0.5,0.2-1.1,0.2-1.6,0c-0.9-0.4-1.7-1-2.1-1.9c-0.7-1.3-0.7-2.8,0-4.1c0.2-0.3,0.5-0.5,0.9-0.6C23.7,29.4,22.8,29.6,22.9,29.9z"/>
<path id="_Path_68" d="M28.3,31h-0.2c-0.6,0.9-1.4,1.7-2.3,2.2c-0.9,0.6-1.8,1-2.8,1.2c-0.3,0.1-0.6,0.1-0.9,0
	c-0.3-0.1-0.5-0.3-0.6-0.5c-0.1-0.3,0,0.2,0,0.4l0,0v0.1v0.1l0,0v0.1c0.9,0.7,2.7,0,4.2-1c0.7-0.5,1.4-1,2.1-1.5
	c0.4-0.2,0.8-0.2,1.2,0L28.3,31z"/>
<path id="_Path_69" d="M26.8,29.4h-0.2l-0.1-0.1c-1.2,0.1-1.8,1.5-2.2,2.2s-0.9,1.9-1.7,2s-1.3-1.1-1.3-1.1
	c-0.3,0.3,1.2,2.9,2.7,0.2c0.4-1,1-1.9,1.7-2.6c0.3-0.3,0.7-0.4,1.1-0.3C27.2,29.8,26.8,29.4,26.8,29.4z"/>
<path id="_Path_70" d="M28.4,33.8c-0.1,0.4-0.4,0.7-0.8,0.9c-1,0.3-2.1,0.3-3.1,0.2c-1.7-0.1-1.4,1.1-1.4,1.2s0.3,0.2,0.3,0.1
	s0-0.1,0-0.1h0.3c-0.2-0.1-0.3-0.3-0.2-0.5c0,0,0,0,0,0l0,0c0.2-0.2,0.7-0.4,1.6-0.4c2.2,0.1,2.4,0,3.1-0.4c0-0.1,0-0.1,0-0.2h0.2
	C28.4,34.6,28.7,33,28.4,33.8z"/>
<g id="_Group_7">
	<path id="_Path_71" class="st0" d="M20.7,32l0.2,0.3c0.1,0,0.2,0.1,0.3,0.1l0.5,0.1l0.6-0.2l0,0c-0.3,0-0.5-0.2-0.7-0.3
		c-0.1-0.1-0.2-0.2-0.2-0.4c0.2,0.1,0.4,0.1,0.6,0.1c0.2,0,0.4-0.1,0.5-0.3l-0.5-0.2c-0.2-0.1-0.2-0.7-0.2-0.7l0.1-0.1l0.3,0.1
		c0.2,0.1,0.5,0.2,0.7,0.3c0.1,0,0.2-0.1,0.3-0.1L23,30.5c-0.1-0.1-0.2-0.2-0.3-0.3c0-0.1-0.1-0.3,0-0.4c0.1-0.1,0.2-0.2,0.2-0.3
		c0-0.1,0-0.7,0-0.7h-1.1l-0.5,0.4l-0.7,0.4c0,0-0.3,0.3-0.3,0.4s0.1,0.7,0.1,0.7l-0.1,1l0.2,0.4L20.7,32z"/>
	<path id="_Path_72" class="st3" d="M22.3,28.9c0,0-0.7,0-0.8,0.2s-0.2,0.1-0.2,0.1L21,29.4l-0.5,0.4c-0.1,0.1-0.1,0.2-0.2,0.3
		c0,0.1,0.1,0.9,0.1,0.9v0.8l0.3,0.4l0.1-0.2l0.1-0.2c0,0,0.1-0.1,0.2-0.2c0,0,0.1-0.1,0.1-0.1c-0.1-0.2-0.2-0.5-0.2-0.7
		c0-0.1,0.1-0.3,0.1-0.4h0.2h0.3c0,0,0.2-0.1,0.2-0.2s0-0.6,0.1-0.7s0.5,0.1,0.6,0.1s0.3,0.1,0.3,0s0.2-0.5,0.2-0.5L22.9,29
		L22.3,28.9z"/>
	<path id="_Compound_Path_6" d="M22.8,30c0.2-0.3,0.6-0.7,0.2-1h0.1l-0.2-0.1h-0.4c0.1,0.2,0.6,0.2,0.4,0.5c0,0-0.3-0.3,0,0.2
		c-0.4,0.3-0.5-0.1-0.9-0.1c-0.3,0.2-0.2,0.6-0.3,0.9c-0.6-0.2,0.2-1,0-1.1c-0.2,0.4-0.1,0-0.2-0.1c-0.3,0.4-1,0.4-1.2,1
		c0.1,0.6,0.1,1.3,0,1.9c0.3,0.4,1.5,1.2,2.1,0.5c-0.2-0.2-0.6-0.2-0.7-0.6c0.3,0.1,0.7,0,0.9-0.3c-0.2-0.1-0.6-0.1-0.6-0.5
		c0.1-0.1,0.1-0.4,0.3-0.4c0.3,0.1,0.8,0.4,1.2,0.2C23.4,30.3,22.7,30.6,22.8,30z M21.2,29.3c0,0.2-0.2,0.3-0.3,0.5
		c0.1,0.2,0.4,0.1,0.4,0.5c-0.4,0-0.5,0.3-0.6,0.6c-0.2,0,0-0.4-0.1-0.6c-0.1,0.1-0.2,0.2-0.2,0.3C20.2,30,20.7,29.5,21.2,29.3
		L21.2,29.3z M20.7,32c-0.4-0.2-0.2-0.7-0.1-1c0.3,0.1,0.1,0.3,0,0.5c0.1,0.3,0.1-0.2,0.4-0.1S20.7,31.7,20.7,32z M22.2,32.3
		c-0.4,0.2-1.3,0.1-1.3-0.5c0.1-0.1,0.2-0.1,0.3-0.1C21.4,32,21.6,32.3,22.2,32.3L22.2,32.3z M22.4,31.4c-0.6,0.5-1.7-0.2-1.3-1h0.3
		C21.3,31.2,21.7,31.4,22.4,31.4L22.4,31.4z M21.9,29.6c0-0.2,0,0.6,0.3,0.7c0-0.1-0.2-0.5-0.1-0.7c0.4-0.1,0.5,1.1,1.2,1
		C22.7,30.9,21.6,30.4,21.9,29.6L21.9,29.6z"/>
</g>
<g id="_Group_8">
	<path id="_Path_73" class="st0" d="M29.1,32.1l-0.2,0.3c-0.1,0-0.2,0.1-0.3,0.1l-0.5,0.1l-0.5-0.1c0.2-0.1,0.5-0.2,0.6-0.4
		c0.1-0.1,0.2-0.2,0.2-0.4c-0.2,0.1-0.4,0.1-0.6,0.1c-0.2,0-0.3-0.1-0.5-0.2c0,0,0.3-0.2,0.5-0.3s0.2-0.7,0.2-0.7l-0.1-0.1l-0.3,0.1
		c-0.2,0.1-0.5,0.2-0.7,0.3c-0.1,0-0.3,0-0.4-0.1l0.3-0.2c0.1-0.1,0.2-0.2,0.3-0.3c0-0.1,0.1-0.3,0-0.4c-0.1-0.1-0.2-0.2-0.2-0.3
		c0.1-0.2,0.1-0.4,0.2-0.6l0.9-0.1l0.5,0.4l0.7,0.4c0,0,0.3,0.3,0.3,0.4s-0.1,0.7-0.1,0.7l0.1,1L29.3,32L29.1,32.1z"/>
	<path id="_Path_74" class="st3" d="M27.4,28.8c0,0,1,0,1.1,0.2s0.1,0.2,0.1,0.2l0.3,0.2l0.5,0.4c0.1,0.1,0.1,0.2,0.1,0.3
		c0,0.1-0.1,0.9-0.1,0.9l0.1,0.8l-0.3,0.4L29.1,32L29,31.8c0,0-0.1-0.1-0.2-0.2c0,0-0.1-0.1-0.1-0.1c0.1-0.2,0.2-0.5,0.2-0.7
		c0-0.1-0.1-0.3-0.1-0.4h-0.2h-0.3c0,0-0.2-0.1-0.2-0.2s0-0.6-0.1-0.7s-0.5,0.1-0.6,0.1s-0.3,0.1-0.3,0s-0.2-0.5-0.2-0.5l0.2-0.3
		L27.4,28.8z"/>
	<path id="_Compound_Path_7" d="M28.3,29.1c0.2,0.2-0.1,0.1-0.2,0c0.1,0.2,0.6,1,0,1.1c0.2-0.4,0-0.6-0.2-0.9
		c-0.4-0.1-0.7,0.4-0.9,0c0.2-0.3,0.2-0.3-0.1-0.1c0-0.4,0.1-0.4,0.1-0.4l-0.3,0h0.1c-0.1,0.2-0.3,0.3-0.3,0.7s0.4,0.2,0.4,0.6
		s-0.6,0.2-0.6,0.7c0.5,0.3,0.9-0.1,1.3-0.2c0,0.2,0.2,0.2,0.2,0.5s-0.5,0.2-0.6,0.5c0.3,0.2,0.8,0.2,0.9,0.3
		c-0.1,0.3-0.5,0.3-0.6,0.6c0.7,0.5,1.7-0.1,2-0.6c-0.1-0.6-0.1-1.3,0-1.9C29.4,29.5,28.6,29.2,28.3,29.1z M28.6,29.4
		c0.5,0.1,0.9,0.6,0.9,1.1c0,0,0,0.1,0,0.1c-0.1,0-0.2-0.2-0.2-0.3c-0.2,0,0,0.4-0.1,0.6c-0.2-0.2-0.2-0.6-0.6-0.6
		c0-0.2,0.1-0.4,0.3-0.4c0,0,0,0,0.1,0C28.8,29.7,28.6,29.7,28.6,29.4z M26.6,30.8c0.6-0.2,0.8-0.9,1.2-1.2
		c-0.1,0.3,0.2,0.5-0.2,0.8c0.2-0.1,0.4-0.2,0.4-0.6l0,0c0,0-0.1-0.1-0.1-0.1c0,0,0.1,0,0.1,0.1C28.2,30.1,27.3,30.9,26.6,30.8
		L26.6,30.8z M27.5,31.6c0.5-0.2,1.1-0.3,1-1h0.3C29.1,31.2,28.2,31.9,27.5,31.6L27.5,31.6z M27.7,32.4c0.3-0.2,0.9-0.2,0.9-0.7
		c0.2,0,0.2,0.1,0.4,0.1C28.9,32.5,28.3,32.4,27.7,32.4L27.7,32.4z M29.2,32c-0.2-0.2-0.5-0.4-0.4-0.7s0.2,0.2,0.4,0.2
		c0-0.3-0.3-0.3-0.1-0.6c0.2,0.1,0.2,0.3,0.3,0.5C29.5,31.8,29.3,31.8,29.2,32z"/>
</g>
<polygon points="34.6,20.4 15.3,20.4 14.2,18.7 35.6,18.7 "/>
<path class="st0" d="M16.3,20.3h-0.5V19h0.5V20.3z"/>
<path class="st0" d="M17.4,20.1h0.8v0.2h-1.2V19h0.5V20.1z"/>
<path class="st0" d="M19.1,20.1h0.8v0.2h-1.2V19h0.5L19.1,20.1z"/>
<path class="st0" d="M22.2,20.3h-0.4h-0.1h-0.1L21.5,20h-0.8l-0.1,0.2h-0.1h-0.1h-0.4l0.8-1.2h0.5L22.2,20.3z M20.9,19.8h0.5
	l-0.2-0.4v-0.1v-0.1v0.1v0.1L20.9,19.8z"/>
<path class="st0" d="M22.3,19h0.4h0.1c0,0,0,0,0,0l0.3,0.7v0.1v0.1c0-0.1,0-0.1,0.1-0.2l0.3-0.7c0,0,0,0,0,0h0.1h0.1h0.1h0.1
	l0.3,0.7c0,0,0,0.1,0.1,0.1v-0.1v-0.1l0.3-0.7c0,0,0,0,0,0h0.1h0.4l-0.6,1.4h-0.4l-0.4-0.8v-0.1v0.1l-0.4,0.8h-0.4L22.3,19z"/>
<path class="st0" d="M27.3,20.3H27h-0.1h-0.1L26.7,20h-0.8l-0.1,0.2h0h-0.1h-0.4l0.8-1.2h0.5L27.3,20.3z M26,19.8h0.5l-0.2-0.4v-0.1
	v-0.1v0.1v0.1L26,19.8z"/>
<path class="st0" d="M28.2,19.8v0.5h-0.5V19h0.7c0.1,0,0.3,0,0.4,0c0.1,0,0.2,0,0.2,0.1c0.1,0,0.1,0.1,0.1,0.1c0,0.1,0,0.1,0,0.2
	c0,0,0,0.1,0,0.1c0,0,0,0.1-0.1,0.1L29,19.7l-0.2,0.1h0.1l0.1,0.1l0.4,0.5H29c-0.1,0-0.1,0-0.2-0.1l-0.3-0.4h0L28.2,19.8L28.2,19.8z
	 M28.2,19.6h0.2h0.2h0.1c0,0,0,0,0.1-0.1c0,0,0-0.1,0-0.1c0-0.1,0-0.1-0.1-0.1c-0.1,0-0.2-0.1-0.3,0h-0.2L28.2,19.6z"/>
<path class="st0" d="M30.3,19.8v0.5h-0.5V19h0.7c0.1,0,0.3,0,0.4,0c0.1,0,0.2,0,0.2,0.1c0.1,0,0.1,0.1,0.1,0.1c0,0.1,0,0.1,0,0.2
	c0,0,0,0.1,0,0.1c0,0,0,0.1-0.1,0.1l-0.1,0.1l-0.2,0.1H31l0.1,0.1l0.4,0.5H31c-0.1,0-0.1,0-0.2-0.1l-0.3-0.4h0H30.3L30.3,19.8z
	 M30.3,19.6h0.2h0.2h0.1c0,0,0,0,0.1-0.1c0,0,0-0.1,0-0.1c0-0.1,0-0.1-0.1-0.1c-0.1,0-0.2-0.1-0.3,0h-0.2L30.3,19.6z"/>
<path class="st0" d="M33.8,20.3h-0.4h-0.1h-0.1L33.1,20h-0.8l-0.1,0.2h0h-0.1h-0.4l0.8-1.2H33L33.8,20.3z M32.5,19.8H33l-0.2-0.4
	v-0.1v-0.1v0.1v0.1L32.5,19.8z"/>
</svg>
