<?xml version="1.0" encoding="utf-8"?>
<!-- Generator: Adobe Illustrator 21.1.0, SVG Export Plug-In . SVG Version: 6.00 Build 0)  -->
<svg version="1.1" id="Layer_1" xmlns="http://www.w3.org/2000/svg" xmlns:xlink="http://www.w3.org/1999/xlink" x="0px" y="0px"
	 viewBox="0 0 50 50" style="enable-background:new 0 0 50 50;" xml:space="preserve">
<style type="text/css">
	.st0{fill:#000426;}
	.st1{fill:#FFFFFF;}
	.st2{fill:none;}
	.st3{fill:#F58220;}
	.st4{fill:#BCBEC0;}
</style>
<title>Melbourne</title>
<path class="st0" d="M41.1,32.9c-2.4-0.5-4.7-0.9-7.1-1.2l4.2-5.3c1-1.3,1-3.1,0-4.4L28.3,9.4c-0.8-1.1-2.1-1.7-3.5-1.7
	c-1.3,0-2.6,0.6-3.5,1.7l0,0l-9.8,12.5c-1,1.3-1,3.1,0,4.4l4.2,5.4c-2.3,0.3-4.6,0.7-6.8,1.2c-0.5,0.1-0.8,0.5-0.7,1l1.3,5.3
	c0.1,0.4,0.6,0.7,1,0.6c2.8-0.6,5.7-1.1,8.6-1.4l0.8,3.2c0.1,0.4,0.6,0.7,1,0.6c2.6-0.5,5.4-0.5,8,0c0.4,0.1,0.9-0.2,1-0.6l0.8-3.2
	c3,0.3,6,0.7,8.9,1.4c0.4,0.1,0.9-0.2,1-0.6l1.3-5.3C41.9,33.4,41.6,33,41.1,32.9z"/>
<path class="st1" d="M14.1,37.2l-0.3-1.5c-0.2,0.4-0.4,0.8-0.7,1.2H13L11.9,36l0.3,1.5l-0.7,0.2c-0.2-1-0.4-2.1-0.6-3.1h0.1
	c0.6,0.5,1.2,0.9,1.8,1.4c0.3-0.7,0.7-1.3,1.1-2h0.1c0.2,1,0.5,2,0.7,3.1L14.1,37.2z"/>
<path class="st1" d="M15.4,36.9l-0.5-3.1c0.7-0.1,1.4-0.2,2.1-0.3l0.1,0.7l-1.3,0.2l0.1,0.5l1.1-0.2l0.1,0.6L16,35.5l0.1,0.6
	l1.2-0.1l0.1,0.7C16.8,36.7,16.1,36.8,15.4,36.9z"/>
<path class="st1" d="M18,36.5l-0.4-3.1l0.8-0.1l0.3,2.5l1.3-0.1l0.1,0.7C19.4,36.4,18.7,36.5,18,36.5z"/>
<path class="st1" d="M21.4,36.3c-0.3,0-0.6,0-0.9,0l-0.2-3c0.3-0.1,0.6-0.1,0.9-0.1c1-0.1,1.5,0.3,1.5,0.8c0,0.3-0.2,0.6-0.5,0.7
	c0.5,0.1,0.7,0.3,0.7,0.7S22.3,36.2,21.4,36.3z M21.3,33.7c-0.1,0-0.2,0-0.3,0v0.7h0.3c0.4,0,0.5-0.2,0.5-0.4S21.7,33.7,21.3,33.7z
	 M21.3,34.9h-0.3v0.7h0.3c0.4,0,0.5-0.2,0.5-0.4S21.8,34.9,21.3,34.9L21.3,34.9z"/>
<path class="st1" d="M24.8,36.2c-0.9,0-1.6-0.7-1.6-1.6c0-0.9,0.7-1.6,1.6-1.6c0.8-0.1,1.6,0.6,1.6,1.4c0,0.1,0,0.1,0,0.2
	C26.5,35.5,25.8,36.2,24.8,36.2C24.9,36.2,24.9,36.2,24.8,36.2z M24.8,33.6c-0.5,0-0.9,0.4-0.9,0.9c0,0,0,0.1,0,0.1
	c-0.1,0.5,0.3,0.9,0.8,0.9s0.9-0.3,0.9-0.8c0-0.1,0-0.1,0-0.2c0.1-0.5-0.3-0.9-0.7-1C24.9,33.6,24.9,33.6,24.8,33.6L24.8,33.6z"/>
<path class="st1" d="M28.3,36.3c-0.7,0-1.2-0.5-1.3-1.1c0-0.1,0-0.2,0-0.2l0.1-1.9h0.8l-0.1,1.8c0,0.4,0.2,0.7,0.6,0.7
	s0.6-0.2,0.7-0.7l0.1-1.8l0.8,0.1L29.8,35c0,0.7-0.5,1.3-1.2,1.3C28.5,36.3,28.4,36.3,28.3,36.3z"/>
<path class="st1" d="M32,36.5l-0.4-1.1h-0.1h-0.3l-0.1,1l-0.7-0.1l0.3-3.1c0.3,0,0.7,0,1,0c1,0.1,1.4,0.6,1.3,1.2
	c-0.1,0.4-0.3,0.7-0.7,0.8c0.2,0.4,0.4,0.9,0.6,1.3L32,36.5z M31.6,34h-0.3l-0.1,0.9h0.2c0.4,0,0.6-0.1,0.6-0.4S31.9,34,31.6,34z"/>
<path class="st1" d="M35.8,37.2c-0.5-0.7-1.1-1.3-1.6-2l-0.2,1.6l-0.7-0.1l0.5-3.1h0.1c0.6,0.7,1.1,1.3,1.7,2l0.3-1.6l0.8,0.1
	L35.8,37.2L35.8,37.2z"/>
<path class="st1" d="M36.5,37.3l0.6-3.1c0.7,0.1,1.4,0.3,2.1,0.5l-0.2,0.7L37.8,35l-0.1,0.5l1.2,0.3l-0.2,0.6l-1.2-0.3l-0.1,0.6
	l1.2,0.3l-0.2,0.6C37.9,37.6,37.2,37.4,36.5,37.3z"/>
<path class="st1" d="M22.4,40.2c-0.4,0.1-0.9-0.2-1-0.6c0,0,0-0.1,0-0.1l-0.2-1.3l0.5-0.1l0.2,1.2c0,0.3,0.2,0.5,0.5,0.4
	s0.4-0.2,0.4-0.5L22.7,38h0.6l0.1,1.3c0.1,0.5-0.3,0.9-0.7,1C22.5,40.3,22.5,40.3,22.4,40.2"/>
<path class="st1" d="M24.9,38.3V40h-0.5l-0.1-1.7h-0.7v-0.5c0.7-0.1,1.3-0.1,2-0.1v0.5L24.9,38.3"/>
<path class="st1" d="M26.6,40h-0.6l0.1-2.2c0.2,0,0.5,0,0.7,0c1,0.1,1.4,0.7,1.3,1.2S27.4,40.1,26.6,40 M26.8,38.3h-0.2l-0.1,1.3
	h0.2c0.3,0.1,0.7-0.1,0.7-0.5c0,0,0-0.1,0-0.1C27.5,38.6,27.3,38.3,26.8,38.3"/>
<path class="st1" d="M28.3,39.7c0.1,0,0.2,0.1,0.2,0.3c0,0,0,0,0,0c0,0.1-0.1,0.2-0.3,0.2c-0.1,0-0.2-0.1-0.2-0.3c0,0,0,0,0,0
	C28,39.8,28.1,39.7,28.3,39.7C28.3,39.7,28.3,39.7,28.3,39.7"/>
<path class="st2" d="M11.2,24.7c0.1,0.6,0.3,1.1,0.6,1.5l4.2,5.4l0,0l-4.2-5.4C11.5,25.7,11.3,25.2,11.2,24.7z"/>
<circle class="st3" cx="24.9" cy="12.4" r="3"/>
<path class="st0" d="M24.9,9.1c-1.8,0-3.2,1.5-3.2,3.2s1.5,3.2,3.2,3.2s3.2-1.5,3.2-3.2C28.1,10.6,26.7,9.1,24.9,9.1z M27.7,12.1
	h-1.6c0-0.2,0.1-0.3,0.1-0.5c0.1-0.5,0.3-0.9,0.6-1.3C27.4,10.8,27.7,11.5,27.7,12.1L27.7,12.1z M24.1,12.5h0.6v2.6
	c-0.5,0-1-0.2-1.4-0.5C23.7,14,24,13.3,24.1,12.5L24.1,12.5z M24.1,12.1c-0.1-0.8-0.3-1.5-0.8-2.1c0.4-0.3,0.9-0.5,1.4-0.5v2.6H24.1
	z M25.1,12.5h0.6c0,0.8,0.3,1.5,0.8,2.1c-0.4,0.3-0.9,0.5-1.4,0.5V12.5z M25.1,12.1V9.5c0.5,0,1,0.2,1.5,0.5
	c-0.4,0.6-0.7,1.3-0.9,2.1L25.1,12.1z M22.9,10.3c0.4,0.5,0.6,1.2,0.7,1.8h-1.5C22.1,11.4,22.4,10.8,22.9,10.3L22.9,10.3z M22,12.5
	h1.6c0,0.7-0.2,1.3-0.6,1.9C22.5,13.9,22.1,13.3,22,12.5L22,12.5z M26.8,14.3c-0.5-0.5-0.7-1.1-0.7-1.8h1.6
	C27.6,13.2,27.3,13.9,26.8,14.3L26.8,14.3z"/>
<path class="st4" d="M14.1,24.4c-0.1-0.2-0.1-0.5,0-0.7l3.7-4.7v-0.9l-4.1,5.3c-0.3,0.4-0.3,1,0,1.4l4.1,5.2v-0.9L14.1,24.4z"/>
<path class="st4" d="M36.1,23.4L32,18.1v0.9l3.7,4.7c0.1,0.2,0.1,0.5,0,0.7L32,29.1v0.9l4.1-5.3C36.4,24.4,36.4,23.8,36.1,23.4z"/>
<path class="st1" d="M18.4,17.7c0,0-0.1,0-0.1,0v12.9l3.4-4.1v-5l-2.3-3C18.8,17.8,18.5,17.7,18.4,17.7z"/>
<path class="st1" d="M21.1,14.5c0.4,0,0.7,0.2,0.9,0.5l5.3,6.7l-2.4,3l-5.1-6.5c-0.5-0.6-0.9-0.9-1.3-1l1.9-2.2
	C20.5,14.7,20.8,14.5,21.1,14.5z"/>
<path class="st1" d="M30.5,18.5l-2.4,3v5l3.4,4.1V17.7l0,0C31.4,17.7,31,17.8,30.5,18.5z"/>
<path class="st1" d="M27.8,15c0.2-0.3,0.6-0.5,0.9-0.5c0.3,0,0.6,0.2,0.7,0.4l1.9,2.2c-0.4,0-0.8,0.4-1.3,1l-2.5,3.1l-2.4-3L27.8,15
	z"/>
<path class="st1" d="M14.2,37.2l-0.3-1.5c-0.2,0.4-0.4,0.8-0.7,1.2h-0.1L12,36l0.3,1.5l-0.7,0.2c-0.2-1-0.4-2.1-0.6-3.1h0.1
	c0.6,0.5,1.2,0.9,1.8,1.4c0.3-0.7,0.7-1.3,1.1-2h0.1c0.2,1,0.5,2,0.7,3.1L14.2,37.2z"/>
<path class="st1" d="M15.5,36.9L15,33.8c0.7-0.1,1.4-0.2,2.1-0.3l0.1,0.7l-1.3,0.2l0.1,0.5l1.2-0.2l0.1,0.6L16,35.5l0.1,0.6l1.3-0.1
	l0.1,0.7C16.8,36.7,16.2,36.8,15.5,36.9z"/>
<path class="st1" d="M18.1,36.5l-0.4-3.1l0.8-0.1l0.3,2.5l1.3-0.1l0.1,0.7C19.5,36.4,18.8,36.5,18.1,36.5z"/>
<path class="st1" d="M21.5,36.3c-0.3,0-0.6,0-0.9,0l-0.2-3c0.3-0.1,0.6-0.1,0.9-0.1c1-0.1,1.5,0.3,1.5,0.8c0,0.3-0.2,0.6-0.5,0.7
	c0.5,0.1,0.7,0.3,0.7,0.7S22.4,36.2,21.5,36.3z M21.4,33.7c-0.1,0-0.2,0-0.3,0v0.7h0.3c0.4,0,0.5-0.2,0.5-0.4S21.7,33.7,21.4,33.7z
	 M21.4,34.9h-0.3v0.7h0.3c0.4,0,0.5-0.2,0.5-0.4S21.8,34.9,21.4,34.9L21.4,34.9z"/>
<path class="st1" d="M24.9,36.2c-0.9,0-1.6-0.7-1.6-1.6c0-0.9,0.7-1.6,1.6-1.6c0.8-0.1,1.6,0.6,1.6,1.4c0,0.1,0,0.1,0,0.2
	C26.6,35.5,25.8,36.2,24.9,36.2C24.9,36.2,24.9,36.2,24.9,36.2z M24.9,33.6c-0.5,0-0.9,0.4-0.9,0.9c0,0,0,0.1,0,0.1
	c-0.1,0.5,0.3,0.9,0.8,0.9s0.9-0.3,0.9-0.8c0-0.1,0-0.1,0-0.2c0.1-0.5-0.3-0.9-0.7-1C25,33.6,25,33.6,24.9,33.6L24.9,33.6z"/>
<path class="st1" d="M28.4,36.3c-0.7,0-1.2-0.5-1.3-1.1c0-0.1,0-0.2,0-0.2l0.1-1.9H28l-0.1,1.8c0,0.4,0.2,0.7,0.6,0.7
	s0.6-0.2,0.7-0.7l0.1-1.8l0.8,0.1L29.9,35c0,0.7-0.5,1.3-1.2,1.3C28.6,36.3,28.5,36.3,28.4,36.3z"/>
<path class="st1" d="M32.1,36.5l-0.4-1.1h-0.1h-0.3l-0.1,1l-0.7-0.1l0.3-3.1c0.3,0,0.7,0,1,0c1,0.1,1.4,0.6,1.3,1.2
	c-0.1,0.4-0.3,0.7-0.7,0.8c0.2,0.4,0.4,0.9,0.6,1.3L32.1,36.5z M31.7,34h-0.3l-0.1,0.9h0.2c0.4,0,0.6-0.1,0.6-0.4S32,34,31.7,34z"/>
<path class="st1" d="M35.9,37.2c-0.5-0.7-1.1-1.3-1.6-2L34,36.8l-0.7-0.1l0.5-3.1h0.1c0.6,0.7,1.1,1.3,1.7,2l0.3-1.6l0.8,0.1
	L35.9,37.2L35.9,37.2z"/>
<path class="st1" d="M36.6,37.3l0.6-3.1c0.7,0.1,1.4,0.3,2.1,0.5l-0.2,0.7L37.9,35l-0.1,0.5l1.2,0.3l-0.2,0.6l-1.2-0.3l-0.1,0.6
	l1.2,0.3l-0.2,0.6C37.9,37.6,37.3,37.4,36.6,37.3z"/>
<path class="st1" d="M22.5,40.2c-0.4,0.1-0.9-0.2-1-0.6c0,0,0-0.1,0-0.1l-0.2-1.3l0.5-0.1l0.1,1.2c0,0.3,0.2,0.5,0.5,0.4
	s0.4-0.2,0.4-0.5L22.8,38h0.6l0.1,1.3c0.1,0.5-0.3,0.9-0.7,1C22.6,40.3,22.6,40.3,22.5,40.2"/>
<path class="st1" d="M24.9,38.3V40h-0.5l-0.1-1.7h-0.7v-0.5c0.7-0.1,1.3-0.1,2-0.1v0.5L24.9,38.3"/>
<path class="st1" d="M26.6,40H26l0.1-2.1c0.2,0,0.5,0,0.7,0c1,0.1,1.4,0.7,1.3,1.2S27.5,40.1,26.6,40 M26.8,38.3h-0.2l-0.1,1.3h0.2
	c0.3,0.1,0.7-0.1,0.7-0.5c0,0,0-0.1,0-0.1C27.5,38.6,27.3,38.3,26.8,38.3"/>
<path class="st1" d="M28.4,39.7c0.1,0,0.2,0.1,0.2,0.3c0,0,0,0,0,0c0,0.1-0.1,0.2-0.3,0.2c-0.1,0-0.2-0.2-0.2-0.3
	C28.1,39.8,28.3,39.7,28.4,39.7C28.4,39.7,28.4,39.7,28.4,39.7"/>
<path class="st4" d="M21,31.3L20.6,31l3.6-4.3c0.1-0.1,0.3-0.2,0.5-0.2l0,0c0.2,0,0.4,0.1,0.5,0.2l3.6,4.3l-0.4,0.3L24.9,27
	c0,0-0.1-0.1-0.1-0.1c-0.1,0-0.1,0-0.1,0.1L21,31.3z"/>
<path class="st1" d="M41.9,33.2c-0.2-0.3-0.5-0.5-0.8-0.5c-2.2-0.5-4.5-0.9-6.8-1.2l3.9-5c1.1-1.4,1.1-3.3,0-4.7L28.5,9.2
	c-0.9-1.1-2.2-1.8-3.7-1.8c-1.4,0-2.7,0.7-3.6,1.8l0,0l-9.8,12.5c-1.1,1.4-1.1,3.3,0,4.7l3.9,5c-2.2,0.3-4.3,0.7-6.4,1.2
	c-0.3,0.1-0.6,0.3-0.8,0.5c-0.2,0.2-0.2,0.5-0.1,0.8l1.3,5.3c0.1,0.5,0.6,0.8,1.1,0.8h0.2c2.8-0.6,5.6-1.1,8.4-1.3l0.7,3
	c0.1,0.5,0.5,0.8,1,0.8h0.2c2.6-0.5,5.3-0.5,7.9,0H29c0.5,0,0.9-0.3,1-0.8l0.7-3c2.9,0.3,5.8,0.7,8.7,1.4h0.2l0,0
	c0.5,0,1-0.3,1.1-0.8L42,34C42.1,33.7,42.1,33.4,41.9,33.2z M11.8,26.1c-0.9-1.2-0.9-2.9,0-4.1l9.8-12.5c1.4-1.8,4-2.1,5.8-0.7
	c0.3,0.2,0.5,0.4,0.7,0.7l9.8,12.5c0.9,1.2,0.9,2.9,0,4.1l-4.1,5.2c-5.9-0.7-11.9-0.7-17.9,0L11.8,26.1z M41.6,33.9l-1.3,5.3
	c-0.1,0.3-0.3,0.5-0.6,0.5l0,0h-0.1c-2.9-0.7-5.9-1.1-8.9-1.4h-0.2l-0.8,3.5c-0.1,0.3-0.3,0.4-0.6,0.4h-0.1c-2.7-0.5-5.4-0.5-8.1,0
	h-0.1c-0.3,0-0.5-0.2-0.6-0.4l-0.8-3.4h-0.2c-2.9,0.3-5.8,0.7-8.7,1.4h-0.1c-0.3,0-0.5-0.2-0.6-0.5l-1.3-5.3c0-0.1,0-0.3,0.1-0.4
	c0.1-0.2,0.3-0.3,0.5-0.3c2.2-0.5,4.4-0.9,6.7-1.2l0.6-0.1c5.7-0.7,11.5-0.7,17.1,0l0.6,0.1c2.4,0.3,4.7,0.7,7,1.2
	c0.2,0,0.4,0.2,0.5,0.3C41.6,33.6,41.6,33.7,41.6,33.9z"/>
</svg>
