<?xml version="1.0" encoding="utf-8"?>
<!-- Generator: Adobe Illustrator 21.1.0, SVG Export Plug-In . SVG Version: 6.00 Build 0)  -->
<svg version="1.1" id="Layer_1" xmlns="http://www.w3.org/2000/svg" xmlns:xlink="http://www.w3.org/1999/xlink" x="0px" y="0px"
	 viewBox="0 0 50 50" style="enable-background:new 0 0 50 50;" xml:space="preserve">
<style type="text/css">
	.st0{fill:#ED1C24;}
	.st1{fill:#231F20;}
	.st2{fill:none;stroke:#ED1C24;stroke-width:2.000000e-02;stroke-miterlimit:3.86;}
	.st3{fill:#FFFFFF;}
	.st4{fill:none;stroke:#ED1C24;stroke-width:2.000000e-02;}
	.st5{fill:url(#SVGID_1_);}
	.st6{fill:#FBAD32;}
	.st7{fill:#808285;}
</style>
<title>Perth</title>
<path class="st0" d="M39.7,35.6c0-0.6-0.3-1.1-0.8-1.4l-0.7-0.6c-0.2-0.1-0.5-0.3-0.5-0.4s0-0.1,0.1-0.1l1.3-0.2v-1.5l-1.4,0.2
	c-0.4,0-0.8,0.1-1.2,0.3v-0.1l-4,0.6v1.4l1.3-0.2v4.1l-2.6-5.7l-2.4,5.4l-0.7,0.1c-0.4,0-0.6-0.1-0.6-0.5c0-0.2,0-1,0-1.6
	c0-0.4,0.2-0.7,0.6-0.8l0,0l1.2,0.9V33l-1.4,0.2c-0.8,0.1-1.5,0.7-1.8,1.4c-0.5-0.8-1.4-1.1-2.3-0.8L21,34.3l0,0l-3,0.5l0,0
	l-2.6,0.4L15,36.6l-0.5-1.3l-1.2,0.2l-0.4,1.5l-0.4-1.3L9.8,36l1.5,1.1l1.6,5.1l1.1-3.8l1.2,3.4l1.5-5.9l0.2,0.2v4.7l1.6-0.3v-5.3
	l0.7,0.5v4.7l3-0.4l0,0l1.8-0.3c0.9-0.1,1.6-0.6,1.9-1.5c0.4,1,1.5,0.9,2.2,0.8l1.9-0.3l0.5-1.2l1.1-0.2l0.5,1.1l1.5-0.2l0,0
	l1.6-0.2v-4.5l0.4-0.1c0.1,0.4,0.3,0.8,0.7,1l0.8,0.6c0.4,0.3,0.6,0.4,0.6,0.8s-0.3,0.3-0.6,0.4l-1.2,0.2v1.5l1.7-0.3
	C38.6,37.4,39.8,37,39.7,35.6 M21,38.7v-4.4l1.2,1v3.2L21,38.7z M24.5,37.4c0,0.4-0.2,0.7-0.6,0.8v-3c0.4,0,0.6,0.1,0.6,0.5
	C24.5,36,24.5,36.8,24.5,37.4"/>
<path class="st1" d="M25.8,35.6c0-1.3-0.8-1.7-2.1-1.5l-2,0.3l0.9,0.7v4.5l1.4-0.2c1.1-0.2,1.8-1.1,1.8-2.2
	C25.8,36.6,25.8,36,25.8,35.6 M24.8,37.5c0,0.6-0.4,1.1-1,1.1h-0.3V35h0.2c0.6-0.1,1.1,0.1,1.1,0.8C24.8,36.2,24.8,36.8,24.8,37.5"
	/>
<polygon class="st1" points="11.5,36.9 12.9,41.1 12.9,41.1 14,37.5 15.2,40.8 15.2,40.8 16.6,35.4 17.3,36 17.4,40.4 18.3,40.3 
	18.3,35 15.7,35.4 15,37.7 14.3,35.7 13.6,35.8 12.9,38 12.3,36 10.7,36.2 "/>
<polygon class="st1" points="19.7,35.6 19.7,40.1 22.2,39.7 22.3,38.8 20.7,39.1 20.7,34.6 18.8,34.9 "/>
<path class="st1" d="M28.2,34.2l0.8,0.6v-1.5l-1,0.2c-1.1,0.1-1.9,1.1-1.8,2.1c0,0.9,0,0.8,0,1.5c0,1.8,1.3,1.7,1.9,1.6l1.7-0.3
	l0.5-1.2l1.6-0.2l0.5,1l1-0.2L31.2,33l-2.1,4.8l-0.8,0.1c-0.6,0.1-1.1-0.1-1.1-0.8c0-0.3,0-0.9,0-1.7C27.2,34.8,27.6,34.4,28.2,34.2
	L28.2,34.2"/>
<polygon class="st0" points="31.6,36.2 30.7,36.4 31.2,35.3 "/>
<polygon class="st2" points="31.6,36.2 30.7,36.4 31.2,35.3 "/>
<path class="st1" d="M36.4,37.4v-0.8l1-0.2c0.3,0,0.8-0.2,0.8-0.8s-0.3-0.6-0.8-1L36.6,34c-0.4-0.2-0.6-0.6-0.6-1l0,0l-1,0.2v4.5
	l-1,0.2v-4.5l-1.3,0.2v-0.8l3.3-0.5v0.5c0.2-0.6,1-0.6,1.6-0.7l1.1-0.2v0.8l-1,0.2c-0.2,0-0.4,0.2-0.4,0.4c0,0,0,0.1,0,0.1
	c0,0.3,0.2,0.3,0.5,0.5l0.9,0.7c0.4,0.2,0.7,0.7,0.7,1.2c0,1.1-0.8,1.4-1.6,1.6L36.4,37.4"/>
<path class="st3" d="M21.2,22.2c2.7-1.2,4.5-2.5,7.8-2.4c0,0.3,0.1,0.5,0.2,0.7C26.3,20,24.2,21.5,21.2,22.2"/>
<path class="st3" d="M22.5,23.8c3.5-1.5,5.2-3.1,8.8-3.1c0.9,0,1.8-0.1,2.6-0.3c-0.1,1.1-0.7,2.2-1.7,2.7c0.4-0.6,0.6-1.2,0.7-1.9
	c-0.4,0.1-0.8,0.1-1.2,0.1c0.1,0.6-0.1,1.3-0.6,1.8C30.9,19.7,26.6,22.7,22.5,23.8"/>
<path class="st3" d="M31,23.3c-0.5,0.8-1.2,1.4-2,1.9l0.4,0.5l2.6-0.4c0,0,0.7-1.2,0.2-2c-0.1,0.5-0.3,1-0.6,1.4l-1.1,0.1
	C30.8,24.3,30.9,23.8,31,23.3"/>
<path class="st1" d="M34.8,18.4c-0.1-0.1-0.1-0.3-0.3-0.4c-0.3-0.2-0.7-0.3-1.1-0.3l0,0c0.1,0.2,0.2,0.4,0.2,0.6
	c0,0.6-0.4,1-0.9,1.2c0,0-0.4-1.7-2.9-1.4c0,0,2.2-1,3.3,0.3c0.3-0.2,0.4-0.6,0.3-0.9c-0.2-0.3-0.5-0.5-0.9-0.5c0,0,0-2.8-5.1-1.9
	c-4.8,1.1-6.7,1.6-8.4,1.6c0.2,0.2,0.5,0.4,0.8,0.5c0.5,0.3,1,0.4,1.5,0.5l0,0c-0.3,0.7-0.6,1.4-0.7,2.1l0,0c-0.2,1.5,0.2,3.6,3,4.8
	c1.5,0.7,4.1,0,5.2,2.6c0.7-0.1,2.9-0.5,2.9-0.5l0,0l0.3-0.1c0.4-0.6,0.7-1.4,0.7-2.1l-0.5-0.9c0,0.5-0.1,1-0.4,1.4l-2.6,0.4
	L29,25.1c0.8-0.4,1.5-1.1,2.1-1.9c-0.1,0.6-0.3,1.1-0.6,1.5l1.1-0.1c0.3-0.4,0.5-1,0.6-1.5c0.4-0.6,0.7-1.2,0.8-1.9
	c-0.4,0.1-0.8,0.1-1.2,0.1c0.1,0.6-0.1,1.3-0.6,1.8c-0.2-3.5-4.6-0.4-8.7,0.7c3.1-1.2,5.1-3.1,8.8-3.1c0.9,0,1.7-0.1,2.6-0.3
	c0,0.6-0.2,1.1-0.5,1.6c0.9-0.6,1.5-1.6,1.5-2.8C35,18.9,34.9,18.6,34.8,18.4 M21.2,22.2c2.7-1.2,4.5-2.5,7.8-2.4
	c0,0.3,0.1,0.5,0.2,0.7C26.3,20,24.2,21.5,21.2,22.2"/>
<polygon class="st0" points="39.6,31.3 39.1,31.4 39.1,31.4 39.3,31.4 39.3,31.9 39.4,31.9 39.4,31.4 39.6,31.4 "/>
<polygon class="st4" points="39.6,31.3 39.1,31.4 39.1,31.4 39.3,31.4 39.3,31.9 39.4,31.9 39.4,31.4 39.6,31.4 "/>
<polygon class="st0" points="39.6,31.8 39.7,31.8 39.7,31.3 39.7,31.3 39.9,31.8 39.9,31.8 40.1,31.3 40.1,31.3 40.1,31.8 
	40.2,31.8 40.2,31.2 40.1,31.2 39.9,31.7 39.9,31.7 39.7,31.3 39.6,31.3 "/>
<polygon class="st4" points="39.6,31.8 39.7,31.8 39.7,31.3 39.7,31.3 39.9,31.8 39.9,31.8 40.1,31.3 40.1,31.3 40.1,31.8 
	40.2,31.8 40.2,31.2 40.1,31.2 39.9,31.7 39.9,31.7 39.7,31.3 39.6,31.3 "/>
<path class="st1" d="M34.8,18.5c0.1,0.2,0.1,0.4,0.1,0.6c1.6-0.5,3.3-0.6,4.9-0.4C38.3,18.2,36.5,18.1,34.8,18.5"/>
<path class="st1" d="M34.9,19.5c0,0.2-0.1,0.5-0.2,0.7c1.4-0.3,2.8-0.2,4.2,0.1C37.7,19.7,36.3,19.4,34.9,19.5"/>
<path class="st3" d="M21.1,20.1c3-1,4-1.5,5.8-1.5c0-0.3,0.1-0.5,0.3-0.7c0.2-0.1,0.5-0.1,0.7,0c-0.1,0.2,0,0.5,0.1,0.7
	c0.3-0.6,0.5-0.5,0.5-0.5c0.3,0.1,0.6,0.2,0.8,0.5c-0.2,0.3-0.2,0.6-0.2,1C26.1,18.6,23.7,19.6,21.1,20.1"/>
<linearGradient id="SVGID_1_" gradientUnits="userSpaceOnUse" x1="25.48" y1="15.06" x2="25.48" y2="42.22" gradientTransform="matrix(1 0 0 -1 0 50)">
	<stop  offset="0" style="stop-color:#FDB913"/>
	<stop  offset="1" style="stop-color:#ED1C24"/>
</linearGradient>
<path class="st5" d="M19,27.2l-2.2,7.7l8.2-7.5l8.6,4.5l-1.9-5c0,0-2.2,0.4-2.9,0.5c-1-2.6-3.7-1.9-5.2-2.6h-0.1
	C22.3,26,20.7,26.9,19,27.2 M22.2,16l-1.4,0.2h-0.3c-0.7,0.1-1.3,0.1-1.6,0.1h-0.3c-0.5,0-0.1,0.5-0.1,0.5c0.6,0.6,1.4,1.1,2.3,1.3
	l-8.3,1.5l0,0c1.5,0.4,3.1,0.6,4.7,0.5l0,0c1.2,0,2.3-0.1,3.4-0.2h0.1c0.1-0.7,0.3-1.4,0.7-2.1c-0.8-0.1-1.6-0.5-2.3-1h0.3
	c1.4,0,3.1-0.5,6.7-1.2h0.1h0.2l0,0h0.1h0.1h0.1h0.1l0.2-0.1h0.3h0.1h0.1c0.6-0.1,1.2-0.2,1.8-0.2l0,0c3.2,0,3.2,2,3.2,2
	c0.4,0,0.7,0.3,0.9,0.6h0.1c0.9,0,1.1,0.4,1.2,0.6l0,0l3.8-3.6l-5.8,1.1c-0.2-0.5-1.1-1.5-3.3-1.5l0,0c-0.7,0-1.4,0.1-2.1,0.2l0,0
	l-2.8-7.1L22.2,16z"/>
<path class="st6" d="M29.1,18.8c0-0.1,0.1-0.2,0.2-0.4C29,18.2,28.8,18,28.4,18c0,0-0.2,0-0.5,0.5c-0.1-0.2-0.2-0.4-0.1-0.7
	c-0.2-0.1-0.5-0.1-0.7,0c-0.2,0.1-0.4,0.4-0.3,0.7l0,0C27.6,18.4,28.3,18.5,29.1,18.8"/>
<path class="st1" d="M33.5,17.8c0.3,0,0.6,0,0.9,0.1c0.3,0.1,0.4,0.4,0.5,0.6c0,0.1-0.1,0-0.1,0l-1.2-0.7L33.5,17.8"/>
<path class="st1" d="M21.2,33.5v-0.7l0.3,0c0.4-0.1,0.6-0.3,0.6-0.7s-0.2-0.5-0.6-0.4l-0.7,0.1v1.8L21.2,33.5z M21.2,32h0.3
	c0.3,0,0.3,0,0.3,0.2s-0.1,0.3-0.3,0.3h-0.3V32z"/>
<polygon class="st1" points="23.8,33.1 23.8,32.8 23,33 23,32.5 23.6,32.3 23.6,32 23,32.2 23,31.7 23.8,31.6 23.8,31.3 22.6,31.5 
	22.6,33.3 "/>
<path class="st1" d="M24.6,33v-0.8h0.3l0.4,0.7l0.4-0.1l-0.4-0.8c0.2-0.1,0.3-0.3,0.3-0.5c0-0.3-0.2-0.5-0.6-0.5l-0.7,0.1V33H24.6z
	 M24.6,31.5l0.3,0c0.2,0,0.3,0,0.3,0.2s-0.1,0.3-0.4,0.3h-0.3L24.6,31.5z"/>
<polygon class="st1" points="25.9,31 25.9,31.2 26.4,31.2 26.4,32.7 26.7,32.7 26.7,31.1 27.2,31 27.2,30.7 "/>
<polygon class="st1" points="28,32.5 28,31.7 28.7,31.6 28.7,32.3 29,32.3 29,30.5 28.7,30.5 28.7,31.2 28,31.4 28,30.6 27.6,30.7 
	27.6,32.5 "/>
<path class="st3" d="M29.8,18.3c0,0,2.3-0.3,2.9,1.4c0.7-0.2,1.1-1,0.8-1.7c0-0.1-0.1-0.2-0.1-0.3c0.1,0.3,0,0.7-0.3,0.9
	C33.2,18.6,32.3,17.3,29.8,18.3"/>
<path class="st7" d="M20.7,21.4L20.7,21.4c0,0.2,0.1,0.5,0.2,0.7l0,0C20.8,21.9,20.8,21.7,20.7,21.4"/>
<path class="st1" d="M20.3,21.5c0-0.4,0-0.7,0-1.1C17.2,20.9,14,20.7,11,20l3.7,2c1.9,0.4,3.9,0.5,5.8,0.2
	C20.4,22,20.4,21.8,20.3,21.5"/>
<path class="st1" d="M20.6,22.5c-1.5,0.3-3,0.3-4.5,0.2l2.8,1.5c0.9,0.1,1.8,0,2.6-0.3C21.1,23.5,20.8,23.1,20.6,22.5"/>
<path class="st1" d="M21.8,24.1c-0.6,0.3-1.3,0.5-2,0.5l-0.5,1.8c1.3-0.3,2.5-0.8,3.6-1.5C22.5,24.7,22.1,24.4,21.8,24.1"/>
<path class="st1" d="M32.3,39.1l0.6-0.1v0.1l-0.5,0.1v0.3l0.4-0.1v0.1l-0.4,0.1l0.1,0.4L33,40v0.1l-0.6,0.1L32.3,39.1z"/>
<path class="st1" d="M33.6,39.1c0-0.1-0.1-0.1-0.2-0.1c-0.1,0-0.2,0.1-0.2,0.2c0,0.1,0.1,0.1,0.2,0.1h0.1c0.2,0,0.3,0.1,0.3,0.3
	c0,0.2-0.1,0.4-0.3,0.4c0,0,0,0,0,0c-0.2,0-0.3-0.1-0.4-0.2l0.1,0c0,0.1,0.1,0.2,0.2,0.2c0.1,0,0.2-0.1,0.2-0.2c0,0,0,0,0-0.1
	c0-0.1-0.1-0.2-0.2-0.2h-0.1c-0.1,0-0.3-0.1-0.3-0.2c0-0.2,0.1-0.3,0.3-0.3c0,0,0,0,0,0C33.5,38.9,33.6,38.9,33.6,39.1L33.6,39.1z"
	/>
<path class="st1" d="M34.3,39.9h-0.1l-0.2-1h-0.3v-0.1l0.7-0.1v0.1h-0.3L34.3,39.9z"/>
<path class="st1" d="M34.8,38.7l-0.1,0.4h-0.1l0.1-0.4H34.8z"/>
<path class="st1" d="M35,38.7h0.2c0.3-0.1,0.6,0.1,0.7,0.4c0.1,0.3-0.1,0.6-0.4,0.7c0,0-0.1,0-0.1,0h-0.2L35,38.7z M35.3,39.7
	L35.3,39.7c0.3,0,0.5-0.2,0.5-0.5s-0.3-0.4-0.6-0.3l0,0L35.3,39.7z"/>
<path class="st1" d="M36.5,38.6l0.1-0.1h0.2l0.2,1.1h-0.1l-0.2-1L36.5,38.6z"/>
<path class="st1" d="M37.3,39.4l0.2-0.4l0,0c0,0-0.1,0-0.1,0c-0.2,0-0.3-0.1-0.4-0.3c0-0.2,0.1-0.4,0.3-0.4c0.2,0,0.4,0.1,0.4,0.3
	c0,0.1,0,0.2-0.1,0.3l-0.3,0.6L37.3,39.4z M37.7,38.6c0-0.1-0.1-0.2-0.3-0.2s-0.2,0.1-0.2,0.3s0.1,0.2,0.3,0.2c0,0,0,0,0,0
	C37.6,38.8,37.7,38.7,37.7,38.6C37.7,38.6,37.7,38.6,37.7,38.6L37.7,38.6z"/>
<path class="st1" d="M38.2,38.7c-0.1,0-0.1-0.1-0.2-0.2c0-0.2,0.1-0.3,0.3-0.3c0.2,0,0.3,0.1,0.3,0.2c0,0.1,0,0.2-0.1,0.3
	c0.1,0,0.2,0.1,0.2,0.2c0,0.2-0.1,0.4-0.3,0.4c-0.2,0-0.4-0.1-0.4-0.3l0,0C38,38.9,38,38.8,38.2,38.7z M38.2,39
	c0,0.1,0.2,0.2,0.3,0.1c0.1,0,0.1-0.1,0.1-0.2c0-0.1-0.2-0.2-0.3-0.1C38.2,38.8,38.2,38.9,38.2,39z M38.1,38.5
	c0,0.1,0.1,0.2,0.2,0.2c0.1,0,0.2-0.1,0.2-0.2c0,0,0,0,0-0.1c0-0.1-0.1-0.2-0.2-0.2C38.2,38.2,38.1,38.3,38.1,38.5
	C38.1,38.4,38.1,38.5,38.1,38.5z"/>
<path class="st1" d="M39.6,39v0.1l-0.7,0.1l0.4-0.7c0-0.1,0.1-0.1,0.1-0.2c0-0.1-0.1-0.2-0.2-0.2c-0.1,0-0.2,0.1-0.2,0.2h-0.1
	c0-0.2,0.1-0.4,0.3-0.4c0.2,0,0.3,0.1,0.4,0.3c0,0.1,0,0.2,0,0.2L39.2,39L39.6,39z"/>
</svg>
