<?xml version="1.0" encoding="utf-8"?>
<!-- Generator: Adobe Illustrator 21.1.0, SVG Export Plug-In . SVG Version: 6.00 Build 0)  -->
<svg version="1.1" id="Layer_1" xmlns="http://www.w3.org/2000/svg" xmlns:xlink="http://www.w3.org/1999/xlink" x="0px" y="0px"
	 viewBox="0 0 50 50" style="enable-background:new 0 0 50 50;" xml:space="preserve">
<style type="text/css">
	.st0{fill:url(#SVGID_1_);}
	.st1{fill:#D4D9DC;}
	.st2{fill:url(#SVGID_2_);}
	.st3{fill:#B0B7BC;}
	.st4{fill:url(#SVGID_3_);}
	.st5{fill:url(#SVGID_4_);}
	.st6{fill:url(#SVGID_5_);}
	.st7{fill:url(#SVGID_6_);}
	.st8{fill:url(#SVGID_7_);}
	.st9{fill:url(#SVGID_8_);}
	.st10{fill:url(#SVGID_9_);}
	.st11{fill:#FFFFFF;}
	.st12{fill:#231F20;}
	.st13{fill:none;}
	.st14{fill:#808184;}
</style>
<title>New Zealand</title>
<radialGradient id="SVGID_1_" cx="10.57" cy="34.15" r="9.14" gradientTransform="matrix(1 0 0 -1 0 50)" gradientUnits="userSpaceOnUse">
	<stop  offset="0.15" style="stop-color:#FFFFFF"/>
	<stop  offset="0.57" style="stop-color:#A2A3A5"/>
	<stop  offset="1" style="stop-color:#FFFFFF"/>
</radialGradient>
<path class="st0" d="M5.7,21.8c-0.4,0-0.8-0.3-0.8-0.8c0-0.1,0-0.1,0-0.2l0.6-3.6c0.1-0.5,0.5-0.8,1-0.8H30c0.5,0,0.9,0.4,0.9,0.9
	v3.6c0,0.5-0.4,0.9-0.9,0.9L5.7,21.8z"/>
<path class="st1" d="M30.5,20.9c0,0.2-0.2,0.4-0.4,0.4H5.7c-0.2,0-0.4-0.1-0.4-0.3c0,0,0-0.1,0-0.1L6,17.2c0.1-0.2,0.3-0.4,0.5-0.4
	H30c0.2,0,0.4,0.2,0.4,0.4L30.5,20.9z"/>
<linearGradient id="SVGID_2_" gradientUnits="userSpaceOnUse" x1="15.7703" y1="36.1821" x2="19.6003" y2="26.6421" gradientTransform="matrix(1 0 0 -1 0 50)">
	<stop  offset="0" style="stop-color:#00A0CE"/>
	<stop  offset="0.27" style="stop-color:#0070A5"/>
	<stop  offset="0.51" style="stop-color:#004C86"/>
	<stop  offset="0.64" style="stop-color:#003E7A"/>
</linearGradient>
<path class="st2" d="M30.5,20.9c0,0.2-0.2,0.4-0.4,0.4H5.7c-0.2,0-0.4-0.1-0.4-0.3c0,0,0-0.1,0-0.1L6,17.2c0.1-0.2,0.3-0.4,0.5-0.4
	H30c0.2,0,0.4,0.2,0.4,0.4L30.5,20.9z"/>
<path class="st3" d="M45.5,24.4c-0.7-2.4-3.8-3.8-7.8-3.7l0,0c3.1,0.1,5.4,1.2,6,3.1c0.8,2.9-2.8,6.4-8.1,7.9s-10.2,0.3-11-2.5
	c-0.6-2.1,1.2-4.5,4.2-6.2l0,0c-4,2-6.4,5.1-5.6,7.7c0.9,3.4,6.7,4.7,12.9,3S46.5,27.8,45.5,24.4z"/>
<path class="st3" d="M37,24.2c-0.5,0.5-1,0.9-1.6,1.2l-0.2,0.1c-1.4,0.6-2.9,0.6-4.3,0c-0.4,0.3-0.5,0.8-0.5,1.3
	c0.3,1,2.1,1.4,4.1,0.9s3.4-1.8,3.1-2.8C37.5,24.6,37.3,24.4,37,24.2z"/>
<radialGradient id="SVGID_3_" cx="-4301.5601" cy="9621.96" r="6.96" gradientTransform="matrix(0.6301 0.3686 0.3686 -0.6301 -806.9017 7704.2344)" gradientUnits="userSpaceOnUse">
	<stop  offset="0" style="stop-color:#FBBA64"/>
	<stop  offset="0.68" style="stop-color:#C32126"/>
	<stop  offset="1" style="stop-color:#89181A"/>
</radialGradient>
<path class="st4" d="M35.7,20.1c-0.4-1.8-1.5-3.4-3-4.5h-0.2c-1.3,0.1-2.5,0.8-3.4,1.8c2.8-0.1,5.1,1,5.5,2.8s-1.2,3.9-3.7,5
	c1.3,0.6,2.8,0.6,4.1,0l0.2-0.1C35.9,23.5,36.1,21.8,35.7,20.1z"/>
<radialGradient id="SVGID_4_" cx="35.435" cy="29.705" r="3.7461" gradientTransform="matrix(1 0 0 -1 0 50)" gradientUnits="userSpaceOnUse">
	<stop  offset="0" style="stop-color:#FBBA64"/>
	<stop  offset="0.68" style="stop-color:#C32126"/>
	<stop  offset="1" style="stop-color:#89181A"/>
</radialGradient>
<path class="st5" d="M37.3,23.1c0.3-0.5,0.5-0.9,0.6-1.5v-0.1c-0.8-0.4-1.3-1.1-1.5-2c-0.2-0.8,0-1.6,0.4-2.3l0,0
	c-0.9-1.1-2.3-1.7-3.8-1.7c2.9,2.2,3.9,6.1,2.4,9.4C36.2,24.6,36.8,23.9,37.3,23.1z"/>
<radialGradient id="SVGID_5_" cx="31.261" cy="28.707" r="3.5641" gradientTransform="matrix(1 0 0 -1 0 50)" gradientUnits="userSpaceOnUse">
	<stop  offset="0" style="stop-color:#FBBA64"/>
	<stop  offset="0.68" style="stop-color:#C32126"/>
	<stop  offset="1" style="stop-color:#89181A"/>
</radialGradient>
<path class="st6" d="M34.5,20.2c-0.4-1.8-2.7-2.9-5.5-2.7l-0.1,0.1c-0.1,0.1-0.2,0.3-0.3,0.4c-1.4,2.4-0.6,5.4,1.8,6.8c0,0,0,0,0,0
	l0.2,0.1l0.1,0.1C33.3,24,34.9,22,34.5,20.2z"/>
<radialGradient id="SVGID_6_" cx="37.2068" cy="30.535" r="1.5312" gradientTransform="matrix(1 0 0 -1 0 50)" gradientUnits="userSpaceOnUse">
	<stop  offset="0" style="stop-color:#FBBA64"/>
	<stop  offset="0.68" style="stop-color:#C32126"/>
	<stop  offset="1" style="stop-color:#89181A"/>
</radialGradient>
<path class="st7" d="M36.9,17.5c-0.4,0.6-0.5,1.4-0.4,2.2c0.2,0.8,0.7,1.5,1.4,1.9c0.1-0.3,0.1-0.6,0.1-0.9
	C38,19.5,37.6,18.3,36.9,17.5z"/>
<linearGradient id="SVGID_7_" gradientUnits="userSpaceOnUse" x1="-10664.2344" y1="9867.9004" x2="-10664.2344" y2="9865.6396" gradientTransform="matrix(2.52 -0.58 -0.58 -2.52 32631.1309 18709.6699)">
	<stop  offset="0" style="stop-color:#94938A"/>
	<stop  offset="0.5" style="stop-color:#FFFFFF"/>
	<stop  offset="1" style="stop-color:#777771"/>
</linearGradient>
<path class="st8" d="M29,17.6c2.8-0.2,5.1,0.9,5.5,2.6S33.2,24,30.6,25l0.1,0.1l0.2,0.1c2.6-1.2,4.2-3.2,3.7-5s-2.7-3-5.5-2.9
	L29,17.5L29,17.6z"/>
<linearGradient id="SVGID_8_" gradientUnits="userSpaceOnUse" x1="-10662.4004" y1="9867.9102" x2="-10662.4004" y2="9865.6396" gradientTransform="matrix(2.52 -0.58 -0.58 -2.52 32631.1309 18709.6699)">
	<stop  offset="0" style="stop-color:#94938A"/>
	<stop  offset="0.5" style="stop-color:#FFFFFF"/>
	<stop  offset="1" style="stop-color:#777771"/>
</linearGradient>
<path class="st9" d="M37.9,21.6L37.9,21.6c0,0,0-0.1,0-0.2c-0.7-0.4-1.2-1-1.4-1.8c-0.1-0.7,0-1.5,0.4-2.1l-0.1-0.1l0,0l-0.1-0.1
	l0,0c-0.5,0.7-0.6,1.6-0.5,2.4c0.2,0.9,0.8,1.6,1.6,2l0,0L37.9,21.6z"/>
<linearGradient id="SVGID_9_" gradientUnits="userSpaceOnUse" x1="-10663.2061" y1="9867.9102" x2="-10663.2061" y2="9865.6396" gradientTransform="matrix(2.52 -0.58 -0.58 -2.52 32631.1309 18709.6699)">
	<stop  offset="0" style="stop-color:#94938A"/>
	<stop  offset="0.5" style="stop-color:#FFFFFF"/>
	<stop  offset="1" style="stop-color:#777771"/>
</linearGradient>
<path class="st10" d="M32.8,15.6h-0.2c3.1,2.2,4.1,6.2,2.4,9.6l0.2-0.1l0.3-0.2c0.7-1.5,0.9-3.3,0.5-4.9c-0.4-1.8-1.4-3.3-2.8-4.4
	L32.8,15.6z"/>
<path class="st11" d="M44.1,28.9h-1.4c-0.5,0-0.7-0.2-0.7-0.5s0.3-0.6,0.9-0.6h2.4c0.3,0,0.6-0.3,0.7-0.6c0-0.3-0.1-0.5-0.4-0.6
	c0,0-0.1,0-0.1,0h-2.7c-1.1-0.1-2.1,0.6-2.2,1.7c0,0,0,0.1,0,0.1c-0.3,1.8,1.2,1.6,1.7,1.6h1.3c0.5,0,0.8,0.2,0.7,0.6
	s-0.4,0.6-0.9,0.6h-3.1l-0.2,1.1h3.8c1-0.1,1.8-0.9,1.8-1.9C45.9,29.1,45.1,28.9,44.1,28.9z"/>
<path class="st12" d="M43.9,32.8h-3.8c-0.3,0-0.5-0.2-0.5-0.5c0,0,0-0.1,0-0.1l0.2-1.1c0-0.2,0.2-0.4,0.5-0.4h3.1
	c0.4,0,0.4-0.1,0.4-0.2l0,0c-0.1,0-0.2,0-0.3,0h-1.4c-0.6,0.1-1.2-0.1-1.7-0.5c-0.3-0.5-0.5-1-0.3-1.6c0.1-1.4,1.3-2.3,2.7-2.2
	c0,0,0,0,0,0h2.8c0.3,0,0.5,0.1,0.7,0.3c0.2,0.2,0.2,0.5,0.2,0.8c-0.1,0.5-0.5,1-1.1,1H43c-0.3,0-0.4,0.1-0.4,0.1c0,0,0,0,0,0h1.5
	c0.6-0.1,1.3,0.2,1.7,0.6c0.3,0.4,0.5,1,0.4,1.5l0,0C46.1,31.8,45.2,32.7,43.9,32.8z M40.7,31.8h3.3c0.7,0,1.2-0.5,1.4-1.5
	c0.1-0.3,0-0.5-0.1-0.8c-0.3-0.2-0.6-0.3-1-0.3h-1.4c-0.3,0-0.6-0.1-0.9-0.3c-0.2-0.2-0.2-0.4-0.2-0.7c0-0.3,0.1-1,1.3-1h2.4
	c0.1,0,0.2-0.1,0.2-0.2l0,0h-2.7c-1.1,0-1.6,0.4-1.8,1.4c-0.1,0.3,0,0.6,0.1,0.8c0.2,0.2,0.7,0.2,1,0.2h1.5c0.4,0,0.7,0.1,1,0.4
	c0.2,0.2,0.2,0.5,0.2,0.8c0,0.3-0.3,1-1.4,1h-2.8L40.7,31.8z M45.8,30.4L45.8,30.4z"/>
<path class="st11" d="M44.1,28.9h-1.4c-0.5,0-0.7-0.2-0.7-0.5s0.3-0.6,0.9-0.6h2.4c0.3,0,0.6-0.3,0.7-0.6c0-0.3-0.1-0.5-0.4-0.6
	c0,0-0.1,0-0.1,0h-2.7c-1.1-0.1-2.1,0.6-2.2,1.7c0,0,0,0.1,0,0.1c-0.3,1.8,1.2,1.6,1.7,1.6h1.3c0.5,0,0.8,0.2,0.7,0.6
	s-0.4,0.6-0.9,0.6h-3.1l-0.2,1.1h3.8c1-0.1,1.8-0.9,1.8-1.9C45.9,29.1,45.1,28.9,44.1,28.9z"/>
<path class="st13" d="M5.9,29.1L5.9,29.1L6,29.5L5.9,29.1z"/>
<path class="st11" d="M6.7,31.1H5.6l0.2-1.4l0.1-0.6l0,0l0.1-0.4v-0.1L6,28.1v-0.3h1c1.4,0,1.6,0.7,1.4,1.6
	C8.4,30.4,7.6,31.2,6.7,31.1z M7.6,26.6H6.3l0.2-1.4l0,0c0-0.1,0-0.1,0-0.2c0-0.2-0.1-0.3-0.2-0.4c-0.1,0-0.1-0.1-0.2-0.1
	c-0.1,0-0.1,0-0.2,0H5.8H5.6c-0.3,0.1-0.5,0.4-0.6,0.7h0l0,0l-1.1,7h3.2c1.5-0.2,2.7-1.4,2.9-2.8C10.2,27.6,9.4,26.6,7.6,26.6z"/>
<path class="st11" d="M23.3,26.6h-2.5c-0.3,0-0.6,0.3-0.7,0.6c0,0.3,0.1,0.5,0.4,0.6c0,0,0.1,0,0.1,0h2c1.1,0,1.3,0.2,1.2,1.1h-2
	c-1.5,0-2.3,0.5-2.5,1.8c-0.2,0.7,0.2,1.4,1,1.6c0.2,0,0.4,0.1,0.5,0h4l0.6-3.6C25.6,26.6,24,26.6,23.3,26.6z M23.4,31.2h-1.9
	c-0.5,0-0.8-0.2-0.7-0.6s0.5-0.6,1-0.6h1.8L23.4,31.2z"/>
<path class="st12" d="M24.7,32.8h-4c-0.6,0-1.1-0.2-1.5-0.6c-0.4-0.5-0.5-1-0.4-1.6l0,0c0.3-1.9,1.9-2.2,3-2.2h1.5c0,0,0,0,0-0.1
	c0,0-0.1-0.1-0.7-0.1h-2c-0.3,0-0.5-0.1-0.7-0.3c-0.2-0.2-0.3-0.5-0.2-0.8c0.1-0.6,0.6-1,1.1-1h2.5c0.7-0.1,1.5,0.2,2,0.7
	c0.4,0.6,0.6,1.3,0.4,2l-0.6,3.6C25.2,32.6,25,32.8,24.7,32.8z M19.7,30.7c-0.1,0.3,0,0.6,0.2,0.9c0.2,0.2,0.5,0.3,0.8,0.3h3.6
	l0.5-3.2c0.1-0.4,0-0.9-0.2-1.2c-0.4-0.3-0.8-0.4-1.3-0.4h-2.5c-0.1,0-0.2,0.1-0.2,0.2l0,0h2c0.5-0.1,1,0.1,1.4,0.4
	c0.2,0.4,0.3,0.8,0.2,1.2c0,0.2-0.2,0.4-0.5,0.4h-2C20.2,29.3,19.9,29.9,19.7,30.7L19.7,30.7z M23.4,31.7h-1.9c-0.4,0-0.7-0.1-1-0.4
	c-0.2-0.2-0.2-0.5-0.2-0.8c0.1-0.7,0.8-1.1,1.5-1h1.8c0.3,0,0.5,0.2,0.5,0.5c0,0,0,0,0,0.1l-0.2,1.2C23.8,31.5,23.6,31.7,23.4,31.7
	L23.4,31.7z M21.2,30.7c0.1,0,0.2,0,0.3,0H23v-0.3h-1.2C21.3,30.4,21.3,30.5,21.2,30.7L21.2,30.7z"/>
<path class="st11" d="M18.2,31.2h-1.4c-1.2,0-1.4-0.3-1.2-1.1h2.8c0.3,0,0.6-0.3,0.7-0.6c0.1-0.3-0.1-0.5-0.4-0.6c0,0-0.1,0-0.1,0
	h-2.8c0.1-0.9,0.6-1.1,1.6-1.1h1.4c0.3,0,0.6-0.2,0.7-0.6c0.1-0.3-0.1-0.5-0.4-0.6c0,0-0.1,0-0.1,0h-1.6c-1.6-0.2-3.1,1.1-3.3,2.7
	c0,0.1,0,0.1,0,0.2c-0.2,1.7,0.5,2.9,2.4,2.9H18c0.3,0,0.6-0.2,0.7-0.6c0.1-0.3-0.1-0.5-0.4-0.6C18.3,31.2,18.2,31.2,18.2,31.2z"/>
<path class="st12" d="M18,32.8h-1.6c-0.9,0.1-1.7-0.3-2.3-0.9c-0.5-0.7-0.7-1.6-0.6-2.5c0.1-1.9,1.8-3.4,3.7-3.3c0,0,0,0,0.1,0h1.6
	c0.3,0,0.5,0.1,0.7,0.3c0.2,0.2,0.3,0.5,0.2,0.8c-0.1,0.5-0.5,1-1.1,1h-1.4c-0.3,0-0.6,0-0.9,0.2h2.1c0.3,0,0.6,0.1,0.7,0.3
	c0.2,0.2,0.3,0.5,0.2,0.8c-0.1,0.6-0.5,1-1.1,1H16c0,0,0,0,0,0.1c0,0,0.1,0.1,0.8,0.1h1.4c0.3,0,0.5,0.1,0.7,0.3
	c0.2,0.2,0.3,0.5,0.2,0.8C19,32.4,18.5,32.8,18,32.8z M18.9,27.1h-1.6c-1.4-0.1-2.7,0.9-2.8,2.3c0,0.1,0,0.1,0,0.2
	c-0.1,0.6,0,1.2,0.3,1.8c0.4,0.4,1,0.6,1.6,0.5H18c0.1,0,0.2-0.1,0.2-0.2l0,0h-1.5c-0.5,0.1-1.1-0.1-1.5-0.5
	c-0.2-0.4-0.3-0.8-0.2-1.2c0-0.2,0.2-0.4,0.5-0.4h2.8c0.1,0,0.2-0.1,0.2-0.2l0,0h-2.8c-0.3,0-0.5-0.2-0.5-0.5c0,0,0-0.1,0-0.1
	c0.2-1.3,1.1-1.5,2-1.5h1.4C18.7,27.3,18.8,27.3,18.9,27.1L18.9,27.1L18.9,27.1z M18.6,29.3L18.6,29.3z"/>
<path class="st11" d="M35.3,31.2h-1.4c-1.2,0-1.4-0.3-1.2-1.1h2.8c0.3,0,0.6-0.3,0.7-0.6c0.1-0.3-0.1-0.5-0.4-0.6c0,0-0.1,0-0.1,0
	h-2.8c0.1-0.9,0.6-1.1,1.6-1.1h1.4c0.3,0,0.6-0.2,0.7-0.6c0-0.3-0.1-0.5-0.4-0.6c0,0-0.1,0-0.1,0h-1.6c-1.6-0.2-3.1,1-3.3,2.7
	c0,0,0,0.1,0,0.1c-0.2,1.7,0.5,2.9,2.4,2.9h1.6c0.3,0,0.6-0.2,0.7-0.6c0-0.3-0.1-0.5-0.4-0.6C35.4,31.2,35.3,31.2,35.3,31.2z"/>
<path class="st12" d="M35.1,32.8h-1.6c-0.9,0.1-1.7-0.3-2.3-0.9c-0.5-0.7-0.7-1.6-0.5-2.5c0.1-1.9,1.8-3.4,3.7-3.3c0,0,0,0,0.1,0H36
	c0.3,0,0.5,0.1,0.7,0.3c0.2,0.2,0.3,0.5,0.2,0.8c-0.1,0.5-0.5,1-1.1,1h-1.4c-0.3,0-0.6,0-0.9,0.2h2.1c0.3,0,0.6,0.1,0.7,0.3
	c0.2,0.2,0.3,0.5,0.2,0.8c-0.1,0.6-0.5,1-1.1,1h-2.4c0,0,0,0,0,0.1c0,0,0.1,0.1,0.8,0.1h1.4c0.5,0,0.9,0.4,1,0.9c0,0.1,0,0.1,0,0.2
	C36.1,32.4,35.6,32.8,35.1,32.8z M36,27.1h-1.6c-1.4-0.1-2.7,0.9-2.8,2.3c0,0.1,0,0.1,0,0.2c-0.1,0.6,0,1.2,0.3,1.8
	c0.4,0.4,1,0.6,1.6,0.5h1.6c0.1,0,0.2-0.1,0.2-0.2l0,0h-1.4c-0.5,0.1-1.1-0.1-1.5-0.5c-0.2-0.4-0.3-0.8-0.2-1.2
	c0-0.2,0.2-0.4,0.5-0.4h2.8c0.1,0,0.2-0.1,0.2-0.2l0,0h-2.8c-0.3,0-0.5-0.2-0.5-0.5c0,0,0,0,0-0.1c0.2-1.3,1.2-1.5,2-1.5h1.4
	C35.9,27.3,36,27.3,36,27.1L36,27.1L36,27.1z M35.7,29.3L35.7,29.3z"/>
<path class="st11" d="M32,26.6h-1.8l-2.9,2.7l0.6-4.1l0,0c0.1-0.3-0.1-0.7-0.5-0.7c0,0-0.1,0-0.1,0c-0.4,0-0.8,0.3-0.9,0.7l0,0
	l-1.1,7.1h1.5l0.4-2.8l1.9,2.8h2L29,29.4L32,26.6z"/>
<path class="st12" d="M31.1,32.8h-2c-0.2,0-0.3-0.1-0.4-0.2l-1.2-1.8l-0.2,1.6c0,0.2-0.2,0.4-0.5,0.4h-1.5c-0.3,0-0.5-0.2-0.5-0.5
	c0,0,0,0,0-0.1l1.1-7.1l0,0c0.1-0.7,0.7-1.2,1.3-1.2c0.3,0,0.6,0.1,0.8,0.4c0.2,0.2,0.3,0.6,0.2,0.9L28,28l1.9-1.8
	c0.1-0.1,0.2-0.1,0.3-0.1H32c0.3,0,0.5,0.2,0.5,0.5c0,0.1-0.1,0.3-0.2,0.4l-2.7,2.5l1.9,2.6c0.2,0.2,0.1,0.5-0.1,0.7
	C31.3,32.7,31.2,32.8,31.1,32.8L31.1,32.8z M29.4,31.8h0.8l-1.6-2.2c-0.1-0.2-0.1-0.5,0.1-0.6l2.1-2h-0.5l-2.5,2.5L29.4,31.8z
	 M25.9,31.8h0.5l0.4-2.4c0-0.1,0-0.1,0-0.2l0.6-4.1c0,0,0-0.1,0-0.1c0,0-0.1,0-0.1,0c-0.2,0-0.3,0.1-0.4,0.3l0,0L25.9,31.8z"/>
<path class="st11" d="M13.8,26.6h-2.7l-0.2,1.1l0,0l-0.6,3.9l0,0c-0.1,0.3,0.1,0.6,0.5,0.7c0,0,0.1,0,0.1,0c0.4,0,0.8-0.3,0.8-0.7
	l0,0l0.6-3.9h1.2c0.3,0,0.6-0.2,0.6-0.5C14.3,26.9,14.1,26.7,13.8,26.6C13.9,26.6,13.8,26.6,13.8,26.6z"/>
<path class="st12" d="M10.9,32.8c-0.3,0-0.6-0.1-0.8-0.4c-0.2-0.2-0.3-0.6-0.2-0.9l0,0l0.8-5c0-0.2,0.2-0.4,0.5-0.4h2.7
	c0.3,0,0.5,0.1,0.7,0.3c0.2,0.2,0.3,0.5,0.2,0.8c-0.1,0.5-0.5,0.9-1.1,0.9h-0.9l-0.6,3.5l0,0C12.1,32.3,11.6,32.8,10.9,32.8z
	 M10.8,31.7L10.8,31.7c0,0,0,0.1,0,0.1c0,0,0.1,0,0.1,0c0.2,0,0.3-0.1,0.4-0.3l0,0l0.6-3.9c0-0.2,0.2-0.4,0.5-0.4h1.3
	c0.1,0,0.1-0.1,0.1-0.1h-2.2L10.8,31.7z"/>
<path class="st11" d="M39.9,26.6h-2.7l-0.2,1.1l0,0l-0.6,3.9l0,0c-0.1,0.3,0.1,0.6,0.5,0.7c0,0,0.1,0,0.1,0c0.4,0,0.8-0.3,0.8-0.7
	l0,0l0.6-3.9h1.2c0.3,0,0.6-0.2,0.6-0.5C40.4,26.9,40.3,26.7,39.9,26.6C40,26.6,40,26.6,39.9,26.6z"/>
<path class="st12" d="M37,32.8c-0.3,0-0.6-0.1-0.8-0.4c-0.2-0.2-0.3-0.6-0.2-0.9l0,0l0.8-5c0-0.2,0.2-0.4,0.5-0.4h2.7
	c0.3,0,0.5,0.1,0.7,0.3c0.2,0.2,0.2,0.5,0.2,0.8c-0.1,0.5-0.5,0.9-1.1,0.9h-0.8l-0.6,3.5l0,0C38.2,32.3,37.7,32.8,37,32.8z
	 M36.8,31.7c0,0.1,0,0.1,0.1,0.2c0,0,0,0,0.1,0c0.2,0,0.3-0.1,0.4-0.3l0,0l0.6-4c0-0.2,0.2-0.4,0.5-0.4h1.3c0.1,0,0.1-0.1,0.1-0.1
	h-2.2L36.8,31.7L36.8,31.7z"/>
<path class="st11" d="M7.6,26.6H6.3l0.2-1.4l0,0c0.1-0.3-0.1-0.7-0.5-0.7c0,0-0.1,0-0.1,0c-0.4,0-0.8,0.3-0.8,0.7h0l-1.1,7.1h2.9
	c1.7,0,3.1-1.3,3.2-2.9C10.2,27.6,9.4,26.6,7.6,26.6z M6.5,31.1H5.6l0.5-3.3H7c1.4,0,1.6,0.7,1.4,1.6c0,1-0.9,1.7-1.8,1.7
	C6.6,31.2,6.5,31.2,6.5,31.1z"/>
<path class="st12" d="M6.8,32.8H3.9c-0.3,0-0.5-0.2-0.5-0.5c0,0,0,0,0-0.1l1.1-7l0,0C4.7,24.5,5.2,24,5.9,24c0.3,0,0.6,0.1,0.8,0.4
	C6.9,24.6,7,24.9,7,25.2l0,0l-0.1,0.8h0.8c0.9,0,1.7,0.3,2.3,0.9c0.5,0.7,0.7,1.6,0.6,2.5C10.3,31.3,8.7,32.8,6.8,32.8z M4.5,31.8
	h2.3c1.4,0,2.6-1.1,2.8-2.5c0.1-0.6,0-1.2-0.3-1.7c-0.4-0.4-1-0.6-1.6-0.5H6.3c-0.3,0-0.5-0.2-0.5-0.5c0,0,0,0,0-0.1L6,25.2l0,0
	c0-0.1,0-0.1,0-0.2c0,0-0.1,0-0.1,0c-0.2,0-0.3,0.1-0.4,0.3l0,0L4.5,31.8z M6.5,31.6H5.6c-0.3,0-0.5-0.2-0.5-0.5c0,0,0,0,0-0.1
	l0.5-3.3c0-0.2,0.2-0.4,0.5-0.4H7c0.6-0.1,1.2,0.2,1.6,0.6C8.9,28.4,9,29,8.9,29.5C8.8,30.8,7.8,31.7,6.5,31.6
	C6.5,31.6,6.5,31.6,6.5,31.6z M6.1,30.7h0.4c0.7,0.1,1.4-0.3,1.5-1c0-0.1,0-0.2,0-0.3c0.1-0.3,0.1-0.6-0.1-0.9
	c-0.3-0.2-0.6-0.3-0.9-0.2H6.5L6.1,30.7z"/>
<path class="st11" d="M23.3,26.6h-2.5c-0.3,0-0.6,0.3-0.7,0.6c0,0.3,0.1,0.5,0.4,0.6c0,0,0.1,0,0.1,0h2c1.1,0,1.3,0.2,1.2,1.1h-2
	c-1.5,0-2.3,0.5-2.5,1.8c-0.2,0.7,0.2,1.4,1,1.6c0.2,0,0.4,0.1,0.5,0h4l0.6-3.6C25.6,26.6,24,26.6,23.3,26.6z M23.4,31.2h-1.9
	c-0.5,0-0.8-0.2-0.7-0.6s0.5-0.6,1-0.6h1.8L23.4,31.2z"/>
<path class="st11" d="M18.2,31.2h-1.4c-1.2,0-1.4-0.3-1.2-1.1h2.8c0.3,0,0.6-0.3,0.7-0.6c0.1-0.3-0.1-0.5-0.4-0.6c0,0-0.1,0-0.1,0
	h-2.8c0.1-0.9,0.6-1.1,1.6-1.1h1.4c0.3,0,0.6-0.2,0.7-0.6c0.1-0.3-0.1-0.5-0.4-0.6c0,0-0.1,0-0.1,0h-1.6c-1.6-0.2-3.1,1.1-3.3,2.7
	c0,0.1,0,0.1,0,0.2c-0.2,1.7,0.5,2.9,2.4,2.9H18c0.3,0,0.6-0.2,0.7-0.6c0.1-0.3-0.1-0.5-0.4-0.6C18.3,31.2,18.2,31.2,18.2,31.2z"/>
<path class="st11" d="M35.3,31.2h-1.4c-1.2,0-1.4-0.3-1.2-1.1h2.8c0.3,0,0.6-0.3,0.7-0.6c0.1-0.3-0.1-0.5-0.4-0.6c0,0-0.1,0-0.1,0
	h-2.8c0.1-0.9,0.6-1.1,1.6-1.1h1.4c0.3,0,0.6-0.2,0.7-0.6c0-0.3-0.1-0.5-0.4-0.6c0,0-0.1,0-0.1,0h-1.6c-1.6-0.2-3.1,1-3.3,2.7
	c0,0,0,0.1,0,0.1c-0.2,1.7,0.5,2.9,2.4,2.9h1.6c0.3,0,0.6-0.2,0.7-0.6c0-0.3-0.1-0.5-0.4-0.6C35.4,31.2,35.3,31.2,35.3,31.2z"/>
<path class="st11" d="M32,26.6h-1.8l-2.9,2.7l0.6-4.1l0,0c0.1-0.3-0.1-0.7-0.5-0.7c0,0-0.1,0-0.1,0c-0.4,0-0.8,0.3-0.9,0.7l0,0
	l-1.1,7.1h1.5l0.4-2.8l1.9,2.8h2L29,29.4L32,26.6z"/>
<path class="st11" d="M13.8,26.6h-2.7l-0.2,1.1l0,0l-0.6,3.9l0,0c-0.1,0.3,0.1,0.6,0.5,0.7c0,0,0.1,0,0.1,0c0.4,0,0.8-0.3,0.8-0.7
	l0,0l0.6-3.9h1.2c0.3,0,0.6-0.2,0.6-0.5C14.3,26.9,14.1,26.7,13.8,26.6C13.9,26.6,13.8,26.6,13.8,26.6z"/>
<path class="st11" d="M39.9,26.6h-2.7l-0.2,1.1l0,0l-0.6,3.9l0,0c-0.1,0.3,0.1,0.6,0.5,0.7c0,0,0.1,0,0.1,0c0.4,0,0.8-0.3,0.8-0.7
	l0,0l0.6-3.9h1.2c0.3,0,0.6-0.2,0.6-0.5C40.4,26.9,40.3,26.7,39.9,26.6C40,26.6,40,26.6,39.9,26.6z"/>
<path class="st11" d="M7.6,26.6H6.3l0.2-1.4l0,0c0.1-0.3-0.1-0.7-0.5-0.7c0,0-0.1,0-0.1,0c-0.4,0-0.8,0.3-0.8,0.7h0l-1.1,7.1h2.9
	c1.7,0,3.1-1.3,3.2-2.9C10.2,27.6,9.4,26.6,7.6,26.6z M6.5,31.1H5.6l0.5-3.3H7c1.4,0,1.6,0.7,1.4,1.6c0,1-0.9,1.7-1.8,1.7
	C6.6,31.2,6.5,31.2,6.5,31.1z"/>
<path class="st14" d="M13.3,22.8h-2.2c-0.2,0-0.3,0.1-0.3,0.3c0,0.1,0.1,0.3,0.2,0.3c0,0,0,0,0.1,0h1.3l-1.8,1.5l-0.1,0.6h2.5
	l0.1-0.6h-1.6l1.8-1.5L13.3,22.8z"/>
<path class="st12" d="M12.9,25.7h-2.5c-0.1,0-0.2-0.1-0.2-0.2c0,0,0,0,0,0l0.1-0.6c0-0.1,0-0.1,0.1-0.1l1.4-1.1H11
	c-0.1,0-0.3-0.1-0.4-0.2c-0.1-0.1-0.1-0.2-0.1-0.4c0-0.3,0.3-0.5,0.6-0.5h2.2c0.1,0,0.2,0.1,0.2,0.2c0,0,0,0,0,0l-0.1,0.6
	c0,0.1,0,0.1-0.1,0.1L12,24.7h1c0.1,0,0.2,0.1,0.2,0.2c0,0,0,0,0,0l-0.1,0.6C13.1,25.6,13,25.7,12.9,25.7
	C12.9,25.7,12.9,25.7,12.9,25.7z M10.6,25.2h2v-0.1h-1.3c-0.1,0-0.2-0.1-0.2-0.2c0-0.1,0-0.1,0.1-0.2l1.8-1.5V23h-1.9
	C11,23,11,23,11,23.1l0,0h1.3c0.1,0,0.2,0.1,0.2,0.2c0,0.1,0,0.1-0.1,0.2L10.7,25L10.6,25.2z"/>
<path class="st14" d="M10.1,25.4H9.4l0.3-1.6c0-0.2,0.1-0.5-0.4-0.5H8.7l-0.3,2.1H7.7l0.4-2.7h1.3c0.7,0,1.1,0.2,0.9,1L10.1,25.4z"
	/>
<path class="st12" d="M10.1,25.7H9.4c-0.1,0-0.2-0.1-0.2-0.2c0,0,0,0,0,0l0.3-1.7c0,0,0-0.1,0-0.1l0,0c-0.1,0-0.1,0-0.2,0H8.9
	l-0.3,1.9c0,0.1-0.1,0.2-0.2,0.2H7.7c-0.1,0-0.2-0.1-0.2-0.2c0,0,0,0,0,0l0.4-2.7c0-0.1,0.1-0.2,0.2-0.2h1.3c0.4,0,0.7,0.1,1,0.3
	c0.2,0.3,0.3,0.6,0.2,0.9l-0.3,1.7C10.3,25.6,10.2,25.7,10.1,25.7z M9.7,25.2h0.2l0.2-1.5c0.1-0.2,0-0.4-0.1-0.6
	C10,23,9.8,23,9.4,23H8.3L8,25.2h0.2l0.3-1.9c0-0.1,0.1-0.2,0.2-0.2h0.6c0.2,0,0.4,0,0.5,0.2c0.1,0.1,0.1,0.3,0.1,0.5l0,0L9.7,25.2z
	"/>
<path class="st11" d="M13.3,22.8h-2.2c-0.2,0-0.3,0.1-0.3,0.3c0,0.1,0.1,0.3,0.2,0.3c0,0,0,0,0.1,0h1.3l-1.8,1.5l-0.1,0.6h2.5
	l0.1-0.6h-1.6l1.8-1.5L13.3,22.8z"/>
<path class="st11" d="M10.1,25.4H9.4l0.3-1.6c0-0.2,0.1-0.5-0.4-0.5H8.7l-0.3,2.1H7.7l0.4-2.7h1.3c0.7,0,1.1,0.2,0.9,1L10.1,25.4z"
	/>
<path class="st11" d="M7.2,19.8c0.3,0,0.7-0.1,0.7-0.3s-0.1-0.1-0.3-0.3s-0.5-0.3-0.5-0.5s0.5-0.7,1.2-0.8l0.1,0.4
	c-0.4,0-0.7,0.1-0.7,0.3s0.2,0.2,0.4,0.3c0.2,0.1,0.5,0.2,0.5,0.5s-0.4,0.7-1.3,0.8L7.2,19.8"/>
<path class="st11" d="M9.9,20.1c0-0.1,0-0.6,0-1v-0.3c0-0.3,0-0.9,0-1h0.6c0,0,0,0.6,0,0.9v0.1l0,0l1-1l0.4,0.4
	c-0.1,0.1-0.6,0.5-0.8,0.7c0.1,0.1,0.8,0.7,0.9,0.8l-0.4,0.4c0-0.1-0.8-0.9-1.1-1.1l0,0v0.1c0,0.2,0,0.9,0,1L9.9,20.1"/>
<path class="st11" d="M13.9,20.1c0-0.1,0-0.4,0-0.4v-0.2c0-0.4-0.2-0.7-0.4-0.9c-0.1-0.1-0.3-0.2-0.4-0.2l0.2-0.5
	c0.2,0.1,0.4,0.2,0.6,0.3c0.2,0.2,0.3,0.4,0.4,0.6l0,0c0.1-0.2,0.2-0.4,0.4-0.5c0.2-0.2,0.4-0.3,0.6-0.4l0.2,0.5
	c-0.2,0.1-0.4,0.2-0.6,0.3c-0.2,0.2-0.4,0.5-0.4,0.8v0.2c0,0,0,0.3,0,0.4L13.9,20.1"/>
<path class="st11" d="M18.3,20.1c-0.1,0-0.3,0-0.4,0c-1.2,0-1.5-0.6-1.5-0.9s0.5-1.1,1.8-1.4l0.1,0.5c-0.8,0.1-1.2,0.4-1.2,0.8
	s0.3,0.6,0.9,0.6c0.1,0,0.2,0,0.4,0L18.3,20.1"/>
<path class="st11" d="M19.7,20.1c0-0.1,0-0.9,0-0.9v-0.3c0,0,0-0.8,0-0.9h0.6c0,0.1,0,0.5,0,0.9v0.3c0,0.3,0,0.9,0,0.9L19.7,20.1"/>
<path class="st11" d="M22.3,20.1c0-0.1,0-0.7,0-1.1v-0.7h-0.9v-0.4c0.2,0,1,0,1,0h0.3c0.1,0,0.8,0,1,0v0.4h-0.9v0.7c0,0.5,0,1,0,1.1
	L22.3,20.1"/>
<path class="st11" d="M25.6,20.1c0-0.1,0-0.4,0-0.4v-0.2c0-0.4-0.2-0.7-0.5-0.9c-0.1-0.1-0.3-0.2-0.5-0.2l0.2-0.5
	c0.2,0.1,0.4,0.2,0.6,0.3c0.2,0.2,0.3,0.4,0.4,0.6l0,0c0.1-0.2,0.2-0.4,0.4-0.5c0.2-0.2,0.4-0.3,0.6-0.4l0.2,0.5
	c-0.2,0.1-0.4,0.2-0.6,0.3c-0.2,0.2-0.4,0.5-0.4,0.8v0.2c0,0,0,0.3,0,0.4L25.6,20.1"/>
</svg>
