<?xml version="1.0" encoding="utf-8"?>
<!-- Generator: Adobe Illustrator 21.1.0, SVG Export Plug-In . SVG Version: 6.00 Build 0)  -->
<svg version="1.1" id="Layer_1" xmlns="http://www.w3.org/2000/svg" xmlns:xlink="http://www.w3.org/1999/xlink" x="0px" y="0px"
	 viewBox="0 0 50 50" style="enable-background:new 0 0 50 50;" xml:space="preserve">
<style type="text/css">
	.st0{fill:#5B4099;}
	.st1{fill:#FFC528;}
	.st2{fill:#FFFFFF;}
</style>
<title>Sydney</title>
<path class="st0" d="M36.8,25.4c15.3-1.1,12.4-15.6-3.5-2.8c-0.1-1.8-0.1-3.6,0.2-5.3c-2.7,0.6-5.1,2-6.9,4
	c-0.6-2.4-0.6-4.9-0.1-7.4c-1.9,0.4-6.7,2.1-9.3,8.7l-0.6,0.3c-2.6-1.4-5.7-1.8-8.6-1c1.7,2.1,3.4,5.5,3.5,7.8l-8.1,0.4l7.4,0.7
	L8,31.4l2.9,0.8l-6.3,0.5l6.5,0.7l-3.2,0.8l2.8,0.7l-7.5,0.7l9.1,0.4l0.2-1.4L11,34.1l2.1-0.2l0.3-2l-2-0.4l1.7-0.3
	c0.4-2.4-0.4-4.9-2.3-8.1c2.1,0,4.2,0.5,6,1.6l2.4-0.9c0,0,2.3-5.5,5.4-7.3c-0.1,2.1,0.1,4.2,0.6,6.3l2,1.1c1.2-1.5,2.7-2.8,4.4-3.7
	c-0.1,1.3,0,2.7,0.3,4l2,1c0,0,4.8-6.6,10.7-6.7C48,18.4,44.2,24.2,36.8,25.4z"/>
<polygon class="st0" points="35.8,26.6 35.7,27.1 35.9,27.1 35.7,28.4 35.5,28.4 35.5,29 36.5,29 36.6,28.4 36.4,28.4 36.4,27.8 
	37.1,29 37.8,29 38.1,27.1 38.3,27.1 38.4,26.6 37.3,26.6 37.3,27.1 37.5,27.1 37.4,27.7 36.8,26.6 "/>
<path class="st0" d="M28.1,28.2v-0.1h-0.5L27.5,29H28v-0.1c0.1,0.1,0.3,0.2,0.5,0.1c0.6,0.1,1.1-0.4,1.1-1c0,0,0,0,0,0
	c0-0.3-0.2-0.6-0.5-0.6c0,0-0.6-0.1-0.6-0.3s0.1-0.1,0.3-0.1s0.4,0.1,0.4,0.3v0.1h0.4l0.1-0.8h-0.4v0.1c-0.2-0.1-0.3-0.1-0.5-0.1
	c-0.3,0-0.5,0.1-0.7,0.3c-0.2,0.2-0.2,0.4-0.2,0.7c0,0.3,0.2,0.5,0.4,0.6c0.4,0.1,0.6,0.1,0.6,0.3s-0.1,0.2-0.3,0.2
	C28.4,28.4,28.2,28.3,28.1,28.2z"/>
<polygon class="st0" points="16.2,36 16.4,34.6 15.9,34.6 16.1,33.1 17.1,34.6 16.7,34.6 16.5,36 20,36 20.2,34.6 19.9,34.6 
	18.2,32.5 19.9,31.1 20.4,31.1 20.6,29.7 17.3,29.7 17.1,31 17.8,31.1 16.2,32.3 16.3,31.1 16.8,31.1 17,29.6 13.6,29.7 13.4,31 
	14,31.1 13.5,34.6 13,34.6 12.8,36 "/>
<polygon class="st0" points="21.6,31 21.2,34.6 20.6,34.6 20.4,36 23.9,36 24,34.6 23.5,34.6 24,31 24.5,31.1 24.7,29.7 21.2,29.7 
	21,31 "/>
<polygon class="st0" points="25.2,29.6 25.1,31 25.6,31 25.2,34.6 24.6,34.6 24.4,36 27.2,36 27.4,34.6 26.8,34.6 27,33 28.6,36 
	30.6,36 31.2,31.1 31.8,31 32,29.6 29.3,29.7 29.1,31 29.6,31 29.5,32.6 28,29.7 "/>
<path class="st0" d="M38,29.6l-0.3,2.5h-1.4c0.1-0.8-0.4-1.2-0.8-1.2s-1.1,0.6-1.3,1.8s-0.2,2,0.5,2c0.4,0,0.8-0.3,0.9-0.7H35
	l0.2-1.4H38c-0.1,1.6-0.7,3.5-3.5,3.5c-1.4,0.2-2.7-0.8-2.9-2.3c0-0.1,0-0.3,0-0.4c0.1-1.3,0.8-4,3.6-3.9c0.5,0,1,0.1,1.4,0.5v-0.4
	L38,29.6z"/>
<path class="st0" d="M39.4,34.1v-0.4h-1.1L38,36h1.2v-0.3c0.4,0.3,0.8,0.4,1.3,0.4c0.9,0,2.9-0.4,3-2.5c0.1-0.8-0.5-1.5-1.2-1.6
	c-0.1,0-1.6-0.3-1.6-0.7c0-0.3,0.3-0.4,0.7-0.4s0.9,0.4,0.9,0.7v0.2h1.1l0.3-2.1h-1.2v0.2c-1.1-0.6-2.4-0.4-3.3,0.5
	c-0.4,0.5-0.6,1.1-0.6,1.7c0,0.7,0.5,1.3,1.1,1.5c1,0.4,1.6,0.3,1.5,0.7s-0.4,0.5-0.7,0.5C40,34.8,39.6,34.5,39.4,34.1z"/>
<polygon class="st0" points="38.8,27.1 38.7,28.4 38.4,28.4 38.4,29 40.7,29 40.8,28 40.2,28 40.1,28.4 39.7,28.4 39.7,28.1 
	40.1,28.1 40.1,27.5 39.8,27.5 39.8,27.1 40.3,27.1 40.2,27.5 40.9,27.5 41,26.5 38.6,26.5 38.6,27.1 "/>
<path class="st0" d="M34.3,26.5c0.6,0,1.1,0.5,1.1,1.1c0,0,0,0,0,0c0,0.8-0.7,1.3-1.4,1.3h-1.4v-0.6H33l0.1-1.3h-0.2v-0.6L34.3,26.5
	z M34,27.1l-0.1,1.3c0.2,0,0.5-0.2,0.5-0.7S34.3,27.1,34,27.1L34,27.1z"/>
<polygon class="st0" points="32.6,27.1 32.7,26.5 31.6,26.5 31.5,27.1 31.7,27.1 31.4,27.5 31.2,27.1 31.4,27.1 31.4,26.5 30,26.5 
	30,27.1 30.1,27.1 30.7,28 30.7,28.4 30.4,28.4 30.3,29 31.9,29 31.9,28.4 31.7,28.4 31.7,28 32.5,27.1 "/>
<polygon class="st0" points="43.9,27.1 43.9,26.5 42.8,26.5 42.8,27.1 42.9,27.1 42.7,27.5 42.5,27.1 42.6,27.1 42.7,26.5 
	41.2,26.5 41.2,27.1 41.3,27.1 42,28 41.9,28.4 41.6,28.4 41.6,29 43.1,29 43.2,28.4 42.9,28.4 42.9,28 43.7,27.1 "/>
<path class="st0" d="M27.1,24.6l-0.9,0.6l-0.1-0.7l-1,0.7l-0.6-0.8l-0.7,0.5L23,24l-0.9,1l-0.9-0.6l-0.5,0.7l-0.8-0.7l-0.1,0.8
	l-0.8-0.5l1,3.7c1.9,1.2,4.3,1.2,6.1,0L27.1,24.6z"/>
<path class="st1" d="M25.4,26.6L24.9,26L24,26.7l-1-1.5l-1.1,1.5l-0.9-0.8l-0.5,0.8l-1-0.9l0.7,2.5c1.7,1,3.8,1,5.5,0l0.7-2.6
	L25.4,26.6z M22,27.1l0.4-0.5v1.8c-0.2,0-0.4-0.1-0.7-0.1l-0.2-1.7L22,27.1z M20.4,28L20,26.5l0.5,0.5l0.2,0.9l0.2,0.1l-0.3-1.1
	l0.2-0.3l0.3,1.5l0.5,0.4C21.2,28.4,20.8,28.2,20.4,28z M23.1,28.6c-0.3,0-0.7,0-1,0l0.8-0.2l0.1-2.8l0,0l0.3,0.5L23.1,28.6z
	 M25.5,28c-0.7,0.3-1.4,0.5-2.1,0.6l0.2-2.1L24,27l0.1-0.1l-0.2,1.4h0.2l0.3-1.5l0.5-0.4l0.5,0.7l0.6-0.6L25.5,28z"/>
<circle class="st0" cx="39.8" cy="19.1" r="3.7"/>
<path class="st1" d="M36.5,18.5c-0.1,0.6-0.1,1.2,0.1,1.7c0.4-0.4,0.9-0.7,1.4-1C37.7,18.6,37.1,18.4,36.5,18.5z"/>
<path class="st1" d="M41.6,16.2c-0.4,0.4-0.5,1-0.5,1.5l0,0c0.5-0.2,1.1-0.3,1.6-0.3C42.5,16.9,42.1,16.5,41.6,16.2z"/>
<path class="st1" d="M38.1,16.2c-0.7,0.4-1.2,1.1-1.5,1.8c0.3,0,0.7,0,1,0.2c0.3,0.2,0.6,0.4,0.8,0.7c0.3-0.1,0.5-0.3,0.8-0.4
	L38.1,16.2z"/>
<path class="st1" d="M40.7,17.9c0-0.1,0-0.1,0-0.2c-0.1-0.6,0.1-1.3,0.5-1.8c-0.9-0.4-1.8-0.4-2.7,0l1.1,2.4
	C39.9,18.2,40.3,18.1,40.7,17.9z"/>
<path class="st2" d="M36.9,19.1c0-0.2,0.1-0.5,0.2-0.7h-0.2C36.9,18.7,36.9,18.9,36.9,19.1z"/>
<path class="st2" d="M41.9,17.2c-0.2-0.2-0.4-0.3-0.6-0.5l-0.1,0.2C41.5,16.9,41.7,17,41.9,17.2z"/>
<path class="st2" d="M38.5,16.9l-0.2-0.5c-0.6,0.3-1.1,0.9-1.3,1.6l0.2,0C37.5,17.6,37.9,17.2,38.5,16.9z"/>
<path class="st2" d="M40.8,16.7c0-0.1,0.1-0.2,0.1-0.3c-0.7-0.3-1.5-0.4-2.3-0.1l0.2,0.5C39.4,16.6,40.1,16.6,40.8,16.7z"/>
<path class="st2" d="M36.9,19.1c0-0.2,0.1-0.5,0.2-0.7h-0.2C36.9,18.7,36.9,18.9,36.9,19.1z"/>
<path class="st2" d="M41.9,17.2c-0.2-0.2-0.4-0.3-0.6-0.5l-0.1,0.2C41.5,16.9,41.7,17,41.9,17.2z"/>
<path class="st2" d="M38.5,16.9l-0.2-0.5c-0.6,0.3-1.1,0.9-1.3,1.6l0.2,0C37.5,17.6,37.9,17.2,38.5,16.9z"/>
<path class="st2" d="M40.8,16.7c0-0.1,0.1-0.2,0.1-0.3c-0.7-0.3-1.5-0.4-2.3-0.1l0.2,0.5C39.4,16.6,40.1,16.6,40.8,16.7z"/>
<path class="st1" d="M40.8,22c-0.6,0.2-1.2,0.2-1.8,0h-0.1c0.2-0.3,0.3-0.7,0.4-1.1c0.3,0,0.6-0.1,0.9-0.2l-0.8-1.8
	c-0.3,0.1-0.5,0.3-0.8,0.4c0.2,0.4,0.3,0.8,0.3,1.2c0,0.6-0.1,1.1-0.5,1.6c0.8,0.4,1.6,0.4,2.4,0.1L40.8,22z"/>
<path class="st1" d="M38.5,20.9c0-0.1,0-0.3,0-0.4c0-0.3-0.1-0.7-0.3-1c-0.5,0.3-1,0.7-1.4,1.1c0.3,0.6,0.7,1,1.2,1.4
	c0.1-0.1,0.1-0.1,0.2-0.2c-0.5-0.3-0.9-0.7-1.3-1.1C37.4,20.9,38,20.9,38.5,20.9z"/>
<path class="st1" d="M42.9,17.8c-0.6,0.1-1.2,0.2-1.7,0.4c0.2,0.9,1,1.6,1.8,1.8C43.3,19.2,43.2,18.5,42.9,17.8L42.9,17.8z
	 M42.7,19.5c-0.2-0.1-0.3-0.2-0.4-0.3c0.2-0.3,0.3-0.6,0.3-0.9C42.7,18.7,42.7,19.1,42.7,19.5L42.7,19.5z"/>
<path class="st1" d="M41.2,21.8l-0.6-1.3c0.4-0.2,0.8-0.4,1.1-0.7c-0.5-0.4-0.8-0.9-1-1.5c-0.3,0.1-0.7,0.3-1.1,0.4l0,0l1.5,3.4
	c0.8-0.3,1.4-1,1.7-1.8l-0.3-0.1C42.4,20.9,41.9,21.5,41.2,21.8z"/>
</svg>
